<?xml version="1.0" encoding="utf-8"?>
<svg width="23px" height="17px" viewBox="0 0 23 17" version="1.1" xmlns:xlink="http://www.w3.org/1999/xlink" xmlns="http://www.w3.org/2000/svg">
  <desc>Created with Lunacy</desc>
  <path d="M0 7.50015L0 6.49985C0 6.22362 0.223858 5.9997 0.5 5.9997L16.67 5.9997L12.22 1.55837C12.1253 1.46446 12.0721 1.33662 12.0721 1.20326C12.0721 1.0699 12.1253 0.942065 12.22 0.848154L12.93 0.147944C13.0239 0.0532588 13.1517 0 13.285 0C13.4183 0 13.5461 0.0532588 13.64 0.147944L19.78 6.27978C19.9207 6.42034 19.9998 6.61104 20 6.80994L20 7.19006C19.9977 7.38853 19.9189 7.57845 19.78 7.72022L13.64 13.8521C13.5461 13.9467 13.4183 14 13.285 14C13.1517 14 13.0239 13.9467 12.93 13.8521L12.22 13.1418C12.1259 13.0497 12.0729 12.9235 12.0729 12.7917C12.0729 12.66 12.1259 12.5338 12.22 12.4416L16.67 8.0003L0.5 8.0003C0.223858 8.0003 0 7.77638 0 7.50015Z" transform="translate(1.5 1.5)" id="Icon-color" fill="#004D86" stroke="#004C88" stroke-width="3" />
</svg>