<?xml version="1.0" encoding="utf-8"?>
<!-- Generator: Adobe Illustrator 23.1.1, SVG Export Plug-In . SVG Version: 6.00 Build 0)  -->
<svg version="1.1" id="Layer_1" xmlns="http://www.w3.org/2000/svg" xmlns:xlink="http://www.w3.org/1999/xlink" x="0px" y="0px"
	 viewBox="0 0 3898.4 206.2" style="enable-background:new 0 0 3898.4 206.2;" xml:space="preserve">
<style type="text/css">
	.st0{fill:none;stroke:#00AEEF;stroke-width:1.5;stroke-linecap:round;stroke-miterlimit:10;}
	.st1{fill:#07456B;stroke:#00AEEF;stroke-width:1.5;stroke-linecap:round;stroke-miterlimit:10;}
</style>
<path class="st0" d="M1246.3,195.3h667"/>
<path class="st0" d="M1913.2,164.4h-91.3"/>
<path class="st0" d="M2656.3,164.3h-480"/>
<path class="st0" d="M2146.3,164.3h-23"/>
<path class="st0" d="M1684.3,164.3h-142"/>
<path class="st0" d="M1719.1,164.4h-6.3"/>
<path class="st0" d="M1760.5,164.4H1748"/>
<path class="st0" d="M1815.3,164.4h-48.2"/>
<path class="st0" d="M1464.5,164.4v-63.1h198.2v63.1"/>
<path class="st0" d="M1517.4,164.4v-52.6h40.6v52.6"/>
<path class="st0" d="M1517.4,118.4h40.6"/>
<path class="st0" d="M1517.4,124.9h40.6"/>
<path class="st0" d="M1517.4,131.5h40.6"/>
<path class="st0" d="M1517.4,138.1h40.6"/>
<path class="st0" d="M1517.4,144.7h40.6"/>
<path class="st0" d="M1517.4,151.2h40.6"/>
<path class="st0" d="M1517.4,157.8h40.6"/>
<path class="st0" d="M1565.7,164.4v-52.6h40.6v52.6"/>
<path class="st0" d="M1565.7,118.4h40.6"/>
<path class="st0" d="M1565.7,124.9h40.6"/>
<path class="st0" d="M1565.7,131.5h40.6"/>
<path class="st0" d="M1565.7,138.1h40.6"/>
<path class="st0" d="M1565.7,144.7h40.6"/>
<path class="st0" d="M1565.7,151.2h40.6"/>
<path class="st0" d="M1565.7,157.8h40.6"/>
<path class="st0" d="M1614,164.4v-52.6h40.6v52.6"/>
<path class="st0" d="M1614,118.4h40.6"/>
<path class="st0" d="M1614,124.9h40.6"/>
<path class="st0" d="M1614,131.5h40.6"/>
<path class="st0" d="M1614,138.1h40.6"/>
<path class="st0" d="M1614,144.7h40.6"/>
<path class="st0" d="M1614,151.2h40.6"/>
<path class="st0" d="M1614,157.8h40.6"/>
<path class="st0" d="M1483.9,164.4v-18.5h-7.9v18.5"/>
<path class="st0" d="M1501.6,145.9h-6.5v6.5h6.5V145.9z"/>
<path class="st0" d="M1476,117.9h-6.5v6.5h6.5V117.9z"/>
<path class="st0" d="M1488.8,117.9h-6.5v6.5h6.5V117.9z"/>
<path class="st0" d="M1501.6,117.9h-6.5v6.5h6.5V117.9z"/>
<path class="st0" d="M1469.4,138.1h40.9"/>
<path class="st0" d="M1469.4,111.8h40.9"/>
<path class="st0" d="M1637.9,101.3v-8.8h16.7v8.8"/>
<path class="st0" d="M1589.6,101.3v-8.8h16.7v8.8"/>
<path class="st0" d="M1815.3,179.2h6.5V72h-6.5V179.2z"/>
<path class="st0" d="M1760.5,179.2h6.5V55.8h-6.5V179.2z"/>
<path class="st0" d="M1760.5,85.1H1707l2.8,6.6h50.7"/>
<path class="st0" d="M1767.1,91.7h48.2"/>
<path class="st0" d="M1767.1,85.1h48.2"/>
<path class="st0" d="M1821.8,91.7h82.2v-6.6h-82.2"/>
<path class="st0" d="M1767.1,140.8h48.2"/>
<path class="st0" d="M1821.8,134.2h-61.3"/>
<path class="st0" d="M1760.5,80.6V61.4h-24v19.2"/>
<path class="st0" d="M1811,179.2h14.9V174H1811V179.2z"/>
<path class="st0" d="M1756.3,179.2h14.9V174h-14.9V179.2z"/>
<path class="st0" d="M1883.5,85.1l-64.9-34.3"/>
<path class="st0" d="M1767.1,85.1l51.5-34.3"/>
<path class="st0" d="M1748.4,65.4c0,0,0,16,0,15.2"/>
<path class="st0" d="M1743.4,65.4c0,0,0,16,0,15.2"/>
<path class="st0" d="M1812.3,94.7l-42.2,36.3"/>
<path class="st0" d="M1815.3,50.8h6.5v-6.6h-6.5V50.8z"/>
<path class="st0" d="M1818.6,72c0-1.3,0-21.2,0-21.2"/>
<path class="st0" d="M1760.5,80.6h-43.6v4.5"/>
<path class="st0" d="M1842.4,88.4v3.3"/>
<path class="st0" d="M1862.9,88.4v3.3"/>
<path class="st0" d="M1883.5,76v15.7"/>
<path class="st0" d="M1760.5,68.1h-5.9v12.6"/>
<path class="st0" d="M1873.3,91.7v38.6"/>
<path class="st0" d="M1870.6,135.8h5.4v-5.5h-5.4V135.8z"/>
<path class="st0" d="M1870.6,133.1h-10.3v26.1h25.9v-26.1H1876"/>
<path class="st0" d="M1863.4,138.9h2.4v17.3h2.1"/>
<path class="st0" d="M1868.7,138.9h2.4v17.3h2.1"/>
<path class="st0" d="M1874,138.9h2.4v17.3h2.1"/>
<path class="st0" d="M1879.3,138.9h2.4v17.3h2.1"/>
<path class="st0" d="M1719.1,179.2v-28.9h17.4"/>
<path class="st0" d="M1736.6,150.4h11.4v28.9"/>
<path class="st0" d="M1744.6,156.9h-2.7v19.2h-2.3"/>
<path class="st0" d="M1738.7,156.9h-2.7v19.2h-2.3"/>
<path class="st0" d="M1732.8,156.9h-2.7v19.2h-2.3"/>
<path class="st0" d="M1726.9,156.9h-2.7v19.2h-2.3"/>
<path class="st0" d="M1738.3,121.2h-17.5v29.2h28.9v-29.2C1749.8,121.2,1738.3,121.2,1738.3,121.2z"/>
<path class="st0" d="M1746.3,127.7h-2.7V147h-2.3"/>
<path class="st0" d="M1740.4,127.7h-2.7V147h-2.3"/>
<path class="st0" d="M1734.6,127.7h-2.7V147h-2.3"/>
<path class="st0" d="M1728.7,127.7h-2.7V147h-2.3"/>
<path class="st0" d="M1701.3,150.4h-17.5v14v14.8"/>
<path class="st0" d="M1712.8,179.2v-14.8v-14h-11.4"/>
<path class="st0" d="M1709.3,156.9h-2.7v19.2h-2.3"/>
<path class="st0" d="M1703.4,156.9h-2.7v19.2h-2.3"/>
<path class="st0" d="M1697.6,156.9h-2.7v19.2h-2.3"/>
<path class="st0" d="M1691.7,156.9h-2.7v19.2h-2.3"/>
<path class="st0" d="M1703.5,121.2H1686v29.2h28.9v-29.2H1703.5z"/>
<path class="st0" d="M1711.5,127.7h-2.7V147h-2.3"/>
<path class="st0" d="M1705.6,127.7h-2.7V147h-2.3"/>
<path class="st0" d="M1699.7,127.7h-2.7V147h-2.3"/>
<path class="st0" d="M1693.8,127.7h-2.7V147h-2.3"/>
<path class="st0" d="M1672.4,179.2H1851"/>
<path class="st0" d="M2175.7,179.2v-14.8v-14h-28.9v14v14.8"/>
<path class="st0" d="M2172.3,156.9h-2.7v19.2h-2.3"/>
<path class="st0" d="M2166.4,156.9h-2.7v19.2h-2.3"/>
<path class="st0" d="M2160.5,156.9h-2.7v19.2h-2.3"/>
<path class="st0" d="M2154.6,156.9h-2.7v19.2h-2.3"/>
<path class="st0" d="M2159.3,121h-17.4v29.2h28.9V121C2170.7,121,2159.3,121,2159.3,121z"/>
<path class="st0" d="M2167.3,127.5h-2.7v19.2h-2.3"/>
<path class="st0" d="M2161.4,127.5h-2.7v19.2h-2.3"/>
<path class="st0" d="M2155.5,127.5h-2.7v19.2h-2.3"/>
<path class="st0" d="M2149.6,127.5h-2.7v19.2h-2.3"/>
<path class="st0" d="M2135.3,179.2H2314"/>
<path class="st0" d="M2123.2,195.3h1391.7"/>
<path class="st0" d="M3490.5,195.3h407.1"/>
<path class="st0" d="M3271.8,164.3V153h10.5v11.3"/>
<path class="st0" d="M3255.6,117.7h42.6v46.6"/>
<path class="st0" d="M3289.3,124.9h-24.6v7.9h24.6V124.9z"/>
<path class="st0" d="M3289.3,138.6h-24.6v7.9h24.6V138.6z"/>
<path class="st0" d="M3148.4,164.3V83.4h107.2v80.8"/>
<path class="st0" d="M3184.9,164.3V153h34.2v11.3"/>
<path class="st0" d="M3202.1,153v11.3"/>
<path class="st0" d="M3180.9,164.3V116h42.3v48.3"/>
<path class="st0" d="M3170.9,92.3h-8.1V98h8.1V92.3z"/>
<path class="st0" d="M3184.9,92.3h-8.1V98h8.1V92.3z"/>
<path class="st0" d="M3199,92.3h-8.1V98h8.1V92.3z"/>
<path class="st0" d="M3213.1,92.3h-8.1V98h8.1V92.3z"/>
<path class="st0" d="M3227.2,92.3h-8.1V98h8.1V92.3z"/>
<path class="st0" d="M3241.3,92.3h-8.1V98h8.1V92.3z"/>
<path class="st0" d="M3170.9,104.8h-8.1v5.7h8.1V104.8z"/>
<path class="st0" d="M3184.9,104.8h-8.1v5.7h8.1V104.8z"/>
<path class="st0" d="M3199,104.8h-8.1v5.7h8.1V104.8z"/>
<path class="st0" d="M3213.1,104.8h-8.1v5.7h8.1V104.8z"/>
<path class="st0" d="M3227.2,104.8h-8.1v5.7h8.1V104.8z"/>
<path class="st0" d="M3241.3,104.8h-8.1v5.7h8.1V104.8z"/>
<path class="st0" d="M3170.9,117.4h-8.1v5.7h8.1V117.4z"/>
<path class="st0" d="M3241.3,117.4h-8.1v5.7h8.1V117.4z"/>
<path class="st0" d="M3170.9,128.9h-8.1v5.7h8.1V128.9z"/>
<path class="st0" d="M3241.3,128.9h-8.1v5.7h8.1V128.9z"/>
<path class="st0" d="M3170.9,140.2h-8.1v5.7h8.1V140.2z"/>
<path class="st0" d="M3241.3,140.2h-8.1v5.7h8.1V140.2z"/>
<path class="st0" d="M3170.9,151.8h-8.1v5.7h8.1V151.8z"/>
<path class="st0" d="M3241.3,151.8h-8.1v5.7h8.1V151.8z"/>
<path class="st0" d="M3219.1,119.5h-34.2v29.2h34.2V119.5z"/>
<path class="st0" d="M3277,124.9v7.9"/>
<path class="st0" d="M3277,138.6v7.9"/>
<path class="st0" d="M3147.7,107.6h-19v56.6"/>
<path class="st0" d="M3148.4,145.9h-10.2v18.4"/>
<path class="st0" d="M3148.3,150.6h-4.9v13.6"/>
<path class="st0" d="M3148.4,114.2h-10.2v10.5h10.2"/>
<path class="st0" d="M3148.4,129.4h-10.2v10.5h10.2"/>
<path class="st0" d="M3070,158.4c3.8,0,6.8-8.8,6.8-19.7s-3.1-19.7-6.8-19.7s-6.8,8.8-6.8,19.7
	C3063.1,149.6,3066.2,158.4,3070,158.4z"/>
<path class="st0" d="M3070,144.8v18"/>
<path class="st0" d="M3066.5,135.6l3.4,3.4l3.3-3.3"/>
<path class="st0" d="M3066.5,129.8l3.4,3.4l3.3-3.3"/>
<path class="st0" d="M3066.5,141.5l3.4,3.4l3.3-3.3"/>
<path class="st0" d="M3511.7,160c3.8,0,6.8-8.8,6.8-19.7s-3.1-19.7-6.8-19.7s-6.8,8.8-6.8,19.7S3507.9,160,3511.7,160z"/>
<path class="st0" d="M3511.7,146.3v18"/>
<path class="st0" d="M3508.3,137.2l3.4,3.4l3.3-3.3"/>
<path class="st0" d="M3508.3,131.3l3.4,3.4l3.3-3.3"/>
<path class="st0" d="M3508.3,143.1l3.4,3.4l3.3-3.3"/>
<path class="st0" d="M3801.8,160.3c3.8,0,6.8-8.8,6.8-19.7s-3.1-19.7-6.8-19.7s-6.8,8.8-6.8,19.7S3798,160.3,3801.8,160.3z"/>
<path class="st0" d="M3801.8,146.7v18"/>
<path class="st0" d="M3798.4,137.5l3.4,3.4l3.3-3.3"/>
<path class="st0" d="M3798.4,131.6l3.4,3.4l3.3-3.3"/>
<path class="st0" d="M3798.4,143.4l3.4,3.4l3.3-3.3"/>
<path class="st0" d="M3578.2,160.3c3.8,0,6.8-8.8,6.8-19.7s-3.1-19.7-6.8-19.7s-6.8,8.8-6.8,19.7S3574.5,160.3,3578.2,160.3z"/>
<path class="st0" d="M3578.2,146.7v18"/>
<path class="st0" d="M3574.8,137.5l3.4,3.4l3.3-3.3"/>
<path class="st0" d="M3574.8,131.6l3.4,3.4l3.3-3.3"/>
<path class="st0" d="M3574.8,143.4l3.4,3.4l3.3-3.3"/>
<path class="st0" d="M3433.4,163.7v-67h57.1v66.8"/>
<path class="st0" d="M3312.5,163.7V76.2h98.3v87.5"/>
<path class="st0" d="M3320.4,74.9v-6.6h82.6v6.6"/>
<path class="st0" d="M3438.1,96.6v-6.2h47.6v6.3"/>
<path class="st0" d="M3346,163.6v-16.8h31.4v16.8"/>
<path class="st0" d="M3361.6,146.8v16.8"/>
<path class="st0" d="M3401.4,146.2h-11.2v11.5h11.2V146.2z"/>
<path class="st0" d="M3333.8,146.2h-11.1v11.5h11.1V146.2z"/>
<path class="st0" d="M3345,98.1h-11.1v11.5h11.1V98.1z"/>
<path class="st0" d="M3333.8,98.1h-11.1v11.5h11.1V98.1z"/>
<path class="st0" d="M3345,81.8h-11.1v11.5h11.1V81.8z"/>
<path class="st0" d="M3333.8,81.8h-11.1v11.5h11.1V81.8z"/>
<path class="st0" d="M3345,113.8h-11.1v11.5h11.1V113.8z"/>
<path class="st0" d="M3333.8,113.8h-11.1v11.5h11.1V113.8z"/>
<path class="st0" d="M3345,130h-11.1v11.5h11.1V130z"/>
<path class="st0" d="M3333.8,130h-11.1v11.5h11.1V130z"/>
<path class="st0" d="M3374.3,98.1h-11.1v11.5h11.1V98.1z"/>
<path class="st0" d="M3363.1,98.1H3352v11.5h11.1V98.1z"/>
<path class="st0" d="M3374.3,81.8h-11.1v11.5h11.1V81.8z"/>
<path class="st0" d="M3363.1,81.8H3352v11.5h11.1V81.8z"/>
<path class="st0" d="M3374.3,113.8h-11.1v11.5h11.1V113.8z"/>
<path class="st0" d="M3363.1,113.8H3352v11.5h11.1V113.8z"/>
<path class="st0" d="M3374.3,130h-11.1v11.5h11.1V130z"/>
<path class="st0" d="M3363.1,130H3352v11.5h11.1V130z"/>
<path class="st0" d="M3402.2,98.1H3391v11.5h11.2V98.1z"/>
<path class="st0" d="M3391,98.1h-11.1v11.5h11.1V98.1z"/>
<path class="st0" d="M3402.2,81.8H3391v11.5h11.2V81.8z"/>
<path class="st0" d="M3391,81.8h-11.1v11.5h11.1V81.8z"/>
<path class="st0" d="M3410.8,90.4h9.1v9h-9.1"/>
<path class="st0" d="M3410.8,105h9.1v9h-9.1"/>
<path class="st0" d="M3410.8,119.7h9.1v9h-9.1"/>
<path class="st0" d="M3410.8,134.3h9.1v9h-9.1"/>
<path class="st0" d="M3402.2,113.8H3391v11.5h11.2V113.8z"/>
<path class="st0" d="M3391,113.8h-11.1v11.5h11.1V113.8z"/>
<path class="st0" d="M3402.2,130H3391v11.5h11.2V130z"/>
<path class="st0" d="M3391,130h-11.1v11.5h11.1V130z"/>
<path class="st0" d="M3480.4,101.5H3443v46h37.4V101.5z"/>
<path class="st0" d="M3452.2,102.3v45.2"/>
<path class="st0" d="M3461.6,102.3v45.2"/>
<path class="st0" d="M3471,102.3v45.2"/>
<path class="st0" d="M3456.6,163.7V154h10.6v9.7"/>
<path class="st0" d="M3410.8,85.5h14.2v78.2"/>
<path class="st0" d="M3311.8,87.2h-17.4v30.5"/>
<path class="st0" d="M3312.5,131.2h-9.4v10.2h9.4"/>
<path class="st0" d="M3312.5,91h-9.4v11.7h9.4"/>
<path class="st0" d="M3312.5,106.4h-9.4v11.7h9.4"/>
<path class="st0" d="M3312.5,122.4h-9.4v4.7h9.4"/>
<path class="st0" d="M3312.5,146.2h-9.4v4.7h9.4"/>
<path class="st0" d="M3480.4,112.3H3443"/>
<path class="st0" d="M3480.4,124.2H3443"/>
<path class="st0" d="M3480.4,136.2H3443"/>
<path class="st0" d="M3619.3,164.3h221.3"/>
<path class="st0" d="M3234.3,164.3h281"/>
<path class="st0" d="M2654.3,164.3h379"/>
<path class="st0" d="M3735.3,122.2v-6.4h40.2v6.4"/>
<path class="st0" d="M3649.2,122.4v-7h77.4v7"/>
<path class="st0" d="M3777.9,164.3v-41.9h-138.1"/>
<path class="st0" d="M3623.2,164.3l3.3-50.8l0.5-7.9l0.6-9.6h10l0.6,9.6l0.5,7.8l3.4,50.8"/>
<path class="st0" d="M3718.8,164.3v-15.7h-69.2v15.7"/>
<path class="st0" d="M3718.8,154.6h-69.2"/>
<path class="st0" d="M3718.8,160.2h-69.2"/>
<path class="st0" d="M3657.4,134.4h-7.7v4.1h7.7V134.4z"/>
<path class="st0" d="M3688.5,134.4h-7.8v4.1h7.8V134.4z"/>
<path class="st0" d="M3719.7,134.4h-7.8v4.1h7.8V134.4z"/>
<path class="st0" d="M3750.8,134.4h-7.7v4.1h7.7V134.4z"/>
<path class="st0" d="M3649.6,143.7h116.8"/>
<path class="st0" d="M3767.3,152.5h-9.6v11.8h9.6V152.5z"/>
<path class="st0" d="M3635.4,113.5h-5.3"/>
<path class="st0" d="M3630.3,105.6h4.9"/>
<path class="st0" d="M2013.5,37.2c0,0,8.6,0,8.7,0c4.2,0,7.5-3.4,7.5-7.6s-3.4-7.6-7.5-7.6c-1.1,0-2.1,0.2-3.1,0.7
	c-0.4-4.1-3.9-7.3-8.1-7.3c-4.5,0-8.2,3.7-8.2,8.2c0,0.9,0.1,1.7,0.4,2.5h-1l0,0c-2.9,0.1-5.2,2.6-5.2,5.5s2.3,5.4,5.2,5.5l0,0
	c0,0,4.5,0,4.6,0"/>
<path class="st0" d="M2004.6,14.2c-1.2-1-2.7-1.7-4.4-1.7c-3.7,0-6.6,3-6.6,6.7c0,2.5,1.4,4.7,3.4,5.8"/>
<path class="st0" d="M2000,4v5"/>
<path class="st0" d="M1984.7,19.2h5"/>
<path class="st0" d="M1989.2,8.2l3.5,3.6"/>
<path class="st0" d="M2010.8,8.2l-3.5,3.6"/>
<path class="st0" d="M1992.8,26.4l-3.5,3.6"/>
<path class="st0" d="M2003.5,40.9l-2.4,2.5"/>
<path class="st0" d="M2012.2,40.9l-2.4,2.5"/>
<path class="st0" d="M2022,40.9l-2.4,2.5"/>
<path class="st0" d="M2014.7,44.7l-2.4,2.5"/>
<path class="st0" d="M2005.9,44.7l-2.4,2.5"/>
<path class="st1" d="M1164.3,165.6c-8.7-1.2-15.3-8.6-15.3-17.6c0-9.8,8-17.8,17.8-17.8s17.8,8,17.8,17.8c0,9-6.7,16.4-15.3,17.6
	H1164.3z"/>
<path class="st0" d="M1166.8,160.1c-5.3,0-9.6-4.3-9.6-9.6"/>
<path class="st0" d="M1167.3,153.6c4.8,0,8.7-3.9,8.7-8.7"/>
<path class="st0" d="M1166.8,147.1c-3.4,0-6.2-2.8-6.2-6.2"/>
<path class="st0" d="M1166.8,137.4v37.7"/>
<path class="st0" d="M1331.9,195.3H0.8"/>
<path class="st1" d="M43.6,149.6c-9.2-1.3-16.3-9.2-16.3-18.7c0-10.4,8.5-18.9,18.9-18.9s18.9,8.5,18.9,18.9
	c0,9.5-7.1,17.4-16.3,18.7H43.6z"/>
<path class="st0" d="M46.3,143.8c-5.6,0-10.2-4.6-10.2-10.2"/>
<path class="st0" d="M46.8,136.9c5.1,0,9.2-4.1,9.2-9.2"/>
<path class="st0" d="M46.3,130c-3.6,0-6.6-2.9-6.6-6.6"/>
<path class="st0" d="M46.3,119.8v43.5"/>
<path class="st0" d="M1178.1,175.2H1129"/>
<path class="st0" d="M65.5,163.3H31.4"/>
<path class="st0" d="M1996.6,174.6v-10.2h-83.4V175"/>
<path class="st0" d="M1940.6,164.4V175"/>
<path class="st0" d="M1968.1,164.4V175"/>
<path class="st0" d="M2080.3,174.6v-10.2h-83.7V175"/>
<path class="st0" d="M2024.3,164.4V175"/>
<path class="st0" d="M2051.8,164.4V175"/>
<path class="st0" d="M2108,174.7v-10.2h-83.7v10.6"/>
<path class="st0" d="M1983.6,175.8c-23,0-47,0-69.7-0.1"/>
<path class="st0" d="M1927.9,175.6v10.6"/>
<path class="st0" d="M1955.4,176.6v9.6"/>
<path class="st0" d="M2067.6,185.9v-10.2h-83.7v10.6"/>
<path class="st0" d="M2011.6,175.6v10.6"/>
<path class="st0" d="M2039.1,175.6v10.6"/>
<path class="st0" d="M2123.3,185.8v-10.2h-96.8"/>
<path class="st0" d="M2095.3,185.9v-10.2h-83.7v10.6"/>
<path class="st0" d="M1996.9,194.8v-8.4h-83.7v8.7"/>
<path class="st0" d="M1940.9,186.4v8.7"/>
<path class="st0" d="M1968.4,186.4v8.7"/>
<path class="st0" d="M2080.6,194.8v-8.4h-83.7v8.7"/>
<path class="st0" d="M2024.6,186.4v8.9"/>
<path class="st0" d="M2052.1,186.4v8.7"/>
<path class="st0" d="M2123.3,194.8v-8.4h-83.8"/>
<path class="st0" d="M2108.3,194.9v-8.4h-83.7v8.7"/>
<path class="st0" d="M1983.9,195.4c-23.3,0-47.6,0-70.6-0.1"/>
<path class="st0" d="M2067.9,195.4h-83.7"/>
<path class="st0" d="M2011.9,197.7"/>
<path class="st0" d="M2039.4,197.7"/>
<path class="st0" d="M2123.1,195.4h-96.4"/>
<path class="st0" d="M2123.3,174.6v-10.2h-96.2"/>
<path class="st0" d="M1913.2,170.6v16.1"/>
</svg>
