<?xml version="1.0" encoding="utf-8"?>
<svg width="10px" height="6px" viewBox="0 0 10 6" version="1.1" xmlns:xlink="http://www.w3.org/1999/xlink" xmlns="http://www.w3.org/2000/svg">
  <desc>Created with Lunacy</desc>
  <path d="M9.1479 0.147817C9.05401 0.0532133 8.92622 0 8.7929 0C8.65958 0 8.53178 0.0532133 8.4379 0.147817L4.9979 3.5959L1.5579 0.157812C1.46574 0.0637997 1.33959 0.0108217 1.2079 0.0108217C1.07621 0.0108217 0.950063 0.0637997 0.857899 0.157812L0.147899 0.867417C0.0532428 0.961249 0 1.08898 0 1.22222C0 1.35546 0.0532428 1.48319 0.147899 1.57702L4.2779 5.71473C4.41962 5.85353 4.60948 5.9323 4.8079 5.9346L5.1879 5.9346C5.38674 5.93443 5.57738 5.85534 5.7179 5.71473L9.8479 1.57702C9.94255 1.48319 9.9958 1.35546 9.9958 1.22222C9.9958 1.08898 9.94255 0.961249 9.8479 0.867417L9.1479 0.147817Z" id="Path" fill="#19144D" stroke="none" />
</svg>