<?xml version="1.0" encoding="UTF-8"?>
<svg width="208px" height="126px" viewBox="0 0 208 126" version="1.1" xmlns="http://www.w3.org/2000/svg" xmlns:xlink="http://www.w3.org/1999/xlink">
    <!-- Generator: Sketch 61.2 (89653) - https://sketch.com -->
    <title>Group</title>
    <desc>Created with Sketch.</desc>
    <g id="Main-Design" stroke="none" stroke-width="1" fill="none" fill-rule="evenodd">
        <g id="Partnership" transform="translate(-97.000000, -951.000000)">
            <g id="Group" transform="translate(97.000000, 951.000000)">
                <path d="M150.162121,66.195264 C149.591211,64.6861892 149.625279,64.0864526 149.576611,62.7143962 C149.579231,58.7730565 146.464121,55.6579457 142.621614,55.6579457 L137.207748,55.6571969 C133.365616,55.6579457 130.25088,52.5432091 130.25088,48.7007024 C130.25088,44.8585701 133.36599,41.7434592 137.207748,41.7434592 L170.450961,41.7434592 C174.125751,41.7434592 177.133419,38.8930261 177.388363,35.2830015 C177.504042,33.4658223 177.370768,32.9267333 178.019921,31.2110076 C178.470659,30.0190219 179.81651,27.9772223 183.527988,27.8353371 L198.279185,27.8293472 C202.120943,27.8293472 205.237552,24.7146107 205.236803,20.872104 C205.236803,17.0299717 202.121318,13.9148608 198.279185,13.9148608 L188.681529,13.9152351 C184.970425,13.7729755 183.6242,11.7311759 183.173462,10.5395646 C182.666943,9.20344743 182.636993,8.57825392 182.6033,7.50082463 C182.616403,7.32150266 182.625388,7.14068322 182.625388,6.95761757 C182.625388,3.11548525 179.511026,0 175.668519,0 L46.9610173,0 C43.1185106,0 40.0037741,3.11511089 40.0037741,6.95761757 C40.0033997,10.7993755 43.118885,13.914112 46.9606429,13.914112 L58.2725274,13.914112 C62.1146597,13.914112 65.2297706,17.0295973 65.2286475,20.8713553 C65.2286475,24.7146107 62.1146597,27.8289728 58.272153,27.8285985 L34.7858417,27.8285985 C30.9440837,27.8289728 27.8285985,30.9437093 27.8285985,34.786216 C27.8293472,38.6283484 30.9440837,41.7430849 34.7858417,41.7434592 L55.6568226,41.7430849 C59.4997036,41.7430849 62.6151889,44.8581958 62.6151889,48.7003281 C62.6151889,52.5428348 59.4997036,55.6579457 55.6568226,55.6579457 L6.95686884,55.6579457 C3.11473652,55.6575713 0,58.7730565 0,62.6148145 C0,66.4573212 3.11473652,69.5724321 6.95761757,69.5716833 L46.9610173,69.5724321 C50.803524,69.5724321 53.9178861,72.6871686 53.9182605,76.5296753 C53.9178861,80.3714332 50.803524,83.4865441 46.9610173,83.4861697 L48.5067802,83.4865441 C44.6646478,83.4865441 41.5495369,86.6009063 41.5499113,90.443413 C41.5495369,94.286294 44.6657709,97.4010305 48.5067802,97.4010305 L51.3156585,97.4010305 C55.1570421,97.4010305 58.272153,100.515393 58.272153,104.358274 C58.272153,108.200406 55.1577908,111.315143 51.3156585,111.315143 L52.1789497,111.315143 C48.336443,111.315143 45.2220808,114.429879 45.2220808,118.272386 C45.2220808,122.114892 48.3368174,125.230003 52.1789497,125.230003 L180.8872,125.230003 C184.728958,125.230003 187.844443,122.114892 187.844069,118.27276 C187.844069,114.430628 184.729333,111.315517 180.886452,111.315517 L177.40783,111.315517 C173.565698,111.315517 170.450961,108.20078 170.450961,104.358648 C170.450961,100.515767 173.565698,97.4010305 177.40783,97.4010305 L200.212793,97.4010305 C204.054176,97.4010305 207.169287,94.286294 207.169287,90.4441617 C207.169287,86.601655 204.054176,83.4872929 200.212418,83.4869185 L199.096804,83.4869185 C196.06892,83.0769862 194.908007,81.2788997 194.496203,80.1898651 C193.949252,78.7451814 193.958611,78.1315933 193.915933,76.87896 C193.925293,72.687543 190.809807,69.5724321 186.968049,69.5724321 L155.669814,69.5709346 C151.958336,69.428675 150.613983,67.386501 150.162121,66.195264 Z" id="Fill-1119" fill="#00D7FF" opacity="0.100000001"></path>
                <path d="M120.222222,86.7647059 C132.249757,86.7647059 142,77.0729875 142,65.1176471 L142,32.6470588 C142,20.6917184 132.249757,11 120.222222,11 L65.7777778,11 C53.7502432,11 44,20.6917184 44,32.6470588 L44,100.294118 C44,101.788535 45.2187804,103 46.7222222,103 C47.4415318,102.995836 48.1286687,102.703116 48.6277778,102.188235 L59.5166667,91.3647059 C62.6435598,88.3384936 66.858802,86.6820055 71.2222222,86.7647059 L120.222222,86.7647059 Z M153.208009,32 L153.208009,75.6876101 C153.208009,87.7516105 143.44692,97.5314151 131.406007,97.5314151 L66,97.5314151 C66,103.563415 70.8805444,108.453318 76.9010011,108.453318 L136.856507,108.453318 C141.210619,108.442628 145.389172,110.172289 148.466073,113.258955 L159.367075,124.180857 C159.866739,124.700418 160.55464,124.995798 161.27475,125 C162.779864,125 164,123.777524 164,122.269524 L164,42.9219025 C164,36.9322989 159.185851,32.059896 153.208009,32 Z" id="Icon-color" fill="#00D7FF" fill-rule="nonzero"></path>
                <text id="ONLINE-CHAT" font-family="AppleSDGothicNeo-ExtraBold, Apple SD Gothic Neo" font-size="20" font-weight="600" fill="#FFFFFF">
                    <tspan x="58.33" y="44">ONLINE</tspan>
                    <tspan x="68.08" y="68">CHAT</tspan>
                </text>
            </g>
        </g>
    </g>
</svg>