<?xml version="1.0" encoding="utf-8"?>
<!-- Generator: Adobe Illustrator 23.1.1, SVG Export Plug-In . SVG Version: 6.00 Build 0)  -->
<svg version="1.1" id="Layer_1" xmlns="http://www.w3.org/2000/svg" xmlns:xlink="http://www.w3.org/1999/xlink" x="0px" y="0px"
	 viewBox="0 0 48 50.3" style="enable-background:new 0 0 48 50.3;" xml:space="preserve">
<style type="text/css">
	.st0{enable-background:new    ;}
	.st1{fill:#256392;}
</style>
<title>Bitmap</title>
<desc>Created with Sketch.</desc>
<g id="Main-Design">
	<g id="Home" transform="translate(-191.000000, -775.000000)">
		<g id="Carousel---Top" transform="translate(0.000000, 661.000000)">
			<g id="Business---Slide-Copy" transform="translate(135.000000, 0.000000)" class="st0">
				<g>
					<path class="st1" d="M65.1,120.9c2.4,0,4.1,0.8,5.9,1.7c0.4,0.2,0.8,0.4,1.2,0.7c0.5,0.3,0.6,0.6,0.3,1
						c-0.2,0.4-0.5,0.5-1.1,0.3c-0.7-0.3-1.4-0.7-2.1-1.1c-1.2-0.6-2.4-1.1-3.8-1.1c-0.4,0-0.8,0-1.2,0.2c-0.5,0.2-0.8,0.6-0.7,1.1
						c0,0.8,0.1,1.6,0.3,2.4c0.6,2.3,1.9,4.2,3.2,6.2c0.1,0.1,0.3,0.2,0.5,0.2c1.7-0.2,3.3-0.4,5-0.7c0.2,0,0.4-0.2,0.4-0.4
						c0.3-1.9,0.4-3.8,0.8-5.6c0.7-3.3,1.3-6.6,3.4-9.4c0.6-0.9,1.4-1.5,2.6-1.6c0.7-0.1,1.2,0.1,1.8,0.5c1.1,0.7,1.8,1.7,2.3,2.8
						c0.6,1.4,1.1,2.8,1.6,4.2c0.2,0.5,0,0.9-0.5,1c-0.5,0.1-0.8-0.1-1-0.6c-0.4-1.2-0.8-2.5-1.4-3.7c-0.4-0.8-0.9-1.5-1.5-2.2
						c-0.7-0.8-1.6-0.8-2.3,0c-0.5,0.6-1,1.3-1.4,1.9c-1,1.9-1.5,4-2,6.1c-0.1,0.3,0,0.5,0.3,0.7c1.3,0.9,2.5,1.9,3.8,2.9
						c0.3,0.3,0.5,0.2,0.8,0c2.3-2,4.8-3.7,7.5-5.2c1.7-0.9,3.3-1.8,5.2-2.2c1-0.2,2-0.3,3,0.1c1,0.4,1.7,1.4,1.8,2.4
						c0.1,1.6-0.3,3.1-1,4.5c-0.4,0.9-0.9,1.8-1.4,2.8c-0.2,0.4-0.5,0.6-0.9,0.5c-0.5-0.1-0.7-0.6-0.4-1.2c0.4-0.8,0.9-1.6,1.2-2.5
						c0.5-1.2,1-2.5,0.9-3.9c-0.1-0.9-0.5-1.4-1.4-1.5c-1.2-0.1-2.3,0.2-3.4,0.7c-1.7,0.8-3.3,1.8-5,2.6c-0.3,0.1-0.3,0.3-0.3,0.6
						c0.2,1.6,0.5,3.2,0.6,4.8c0,0.4,0.2,0.5,0.5,0.5c3.1,0.2,6.2,0.8,9.2,1.6c2,0.6,4.1,1.2,5.8,2.6c0.8,0.6,1.5,1.4,1.6,2.5
						c0.1,0.7-0.1,1.3-0.4,1.8c-0.7,1.1-1.7,1.8-2.8,2.3c-1.4,0.6-2.8,1.1-4.3,1.6c-0.5,0.2-0.9,0-1-0.4c-0.1-0.5,0.1-0.8,0.6-1
						c1.2-0.4,2.5-0.8,3.7-1.3c0.7-0.3,1.4-0.8,2.1-1.3c1.1-0.9,1-1.9-0.2-2.8c-1.2-0.9-2.5-1.5-3.9-1.9c-1.2-0.4-2.5-0.7-3.8-1
						c-0.3-0.1-0.6,0-0.8,0.3c-0.9,1.3-1.9,2.5-2.9,3.7c-0.3,0.3-0.3,0.5,0,0.8c1.9,2.3,3.7,4.6,5.1,7.2c0.8,1.6,1.6,3.2,2.2,4.8
						c0.5,1.2,0.6,2.5,0.1,3.7c-0.4,1.1-1.3,1.6-2.4,1.7c-1.5,0.1-2.9-0.2-4.3-0.8c-1.1-0.4-2.1-1-3.1-1.5c-0.5-0.3-0.6-0.6-0.4-1.1
						c0.2-0.4,0.6-0.5,1.1-0.3c1.1,0.5,2.2,1.1,3.3,1.6c1,0.4,2,0.6,3.1,0.6c0.8-0.1,1.3-0.6,1.3-1.4c0.1-1.2-0.2-2.4-0.8-3.5
						c-0.8-1.6-1.7-3.2-2.6-4.8c-0.2-0.3-0.3-0.4-0.7-0.3c-1.6,0.2-3.2,0.5-4.8,0.6c-0.4,0-0.5,0.2-0.5,0.5c-0.3,3.5-0.9,7-2,10.4
						c-0.5,1.6-1.1,3.1-2.2,4.5c-0.6,0.7-1.2,1.3-2.2,1.5c-1.1,0.3-2.1-0.1-2.9-0.9c-1.2-1.1-1.8-2.5-2.4-3.9
						c-0.3-0.8-0.5-1.6-0.8-2.4c-0.2-0.7-0.1-1.1,0.4-1.2c0.5-0.2,0.9,0.1,1.1,0.8c0.4,1.6,1,3.1,1.8,4.5c0.2,0.3,0.4,0.7,0.7,0.9
						c1,1.2,2.1,1.1,3-0.1c0.9-1.2,1.5-2.5,1.9-4c0.4-1.2,0.7-2.4,1-3.6c0.1-0.4,0-0.6-0.3-0.9c-1.3-0.9-2.5-1.9-3.7-2.8
						c-0.3-0.3-0.5-0.2-0.8,0c-2.3,1.9-4.8,3.7-7.4,5.2c-1.8,1-3.6,1.9-5.5,2.3c-0.8,0.2-1.6,0.2-2.4,0c-1.1-0.2-2-1.5-2.1-2.7
						c-0.1-2.2,0.8-4.2,1.7-6.1c0.2-0.4,0.4-0.8,0.6-1.1c0.3-0.5,0.7-0.6,1.1-0.4c0.4,0.2,0.4,0.6,0.2,1.1c-0.5,1.2-1.1,2.3-1.6,3.5
						c-0.4,0.9-0.6,1.9-0.5,2.9c0,0.8,0.5,1.3,1.3,1.4c1.4,0.2,2.7-0.3,3.9-0.9c1.6-0.7,3-1.6,4.5-2.4c0.3-0.2,0.4-0.3,0.3-0.7
						c-0.2-1.6-0.5-3.2-0.6-4.8c0-0.4-0.2-0.5-0.5-0.5c-3.1-0.2-6.2-0.8-9.2-1.6c-2-0.6-4.1-1.2-5.8-2.6c-0.7-0.6-1.3-1.3-1.6-2.2
						c-0.2-1.1,0.1-2.1,0.9-2.8c0.7-0.6,1.4-1.2,2.3-1.6c1.4-0.6,2.9-1.1,4.4-1.6c0.6-0.2,1.1,0.3,0.9,0.9c-0.1,0.2-0.4,0.4-0.6,0.5
						c-1.2,0.5-2.4,0.8-3.6,1.4c-0.8,0.4-1.6,0.9-2.2,1.5c-0.8,0.7-0.8,1.6,0,2.3c0.6,0.6,1.3,1,2.1,1.4c1.9,1,3.9,1.4,5.9,1.9
						c0.3,0.1,0.6,0,0.8-0.3c0.9-1.2,1.8-2.5,2.8-3.7c0.3-0.4,0.3-0.6,0-1c-2-2.3-3.7-4.8-5.2-7.4c-1-1.7-1.8-3.4-2.2-5.4
						c-0.2-1-0.3-2.1,0.3-3C63.1,121.3,64,120.9,65.1,120.9z M85.8,138.8C85.8,138.8,85.8,138.8,85.8,138.8c0-0.7,0-1.4,0-2.1
						c0-0.2-0.1-0.5-0.3-0.6c-0.9-1-1.9-1.9-2.9-2.8c-0.2-0.2-0.5-0.3-0.7-0.3c-1.3,0-2.6,0-3.9,0c-0.2,0-0.5,0.1-0.7,0.3
						c-1,0.9-1.9,1.8-2.8,2.8c-0.2,0.2-0.3,0.5-0.3,0.7c0,1.3,0,2.6,0,3.9c0,0.2,0.1,0.5,0.3,0.7c0.9,1,1.9,1.9,2.8,2.8
						c0.2,0.1,0.4,0.2,0.6,0.3c1.3,0,2.6,0,4,0c0.2,0,0.5-0.1,0.7-0.3c1-0.9,1.9-1.9,2.9-2.9c0.1-0.1,0.2-0.4,0.2-0.5
						C85.8,140.1,85.8,139.4,85.8,138.8z M89,139.9c-1.5,1.1-2.2,2.4-1.7,4.3c1.4-0.2,2.9-0.4,4.4-0.6c0-0.1,0.1-0.1,0.1-0.2
						C90.8,142.3,89.9,141.1,89,139.9z M78.8,147.7c-1.1-1.4-2.4-2.2-4.3-1.7c0.2,1.5,0.4,2.9,0.6,4.4c0.1,0,0.1,0,0.2,0
						C76.4,149.5,77.6,148.6,78.8,147.7z M68.2,143.5c0,0.1,0.1,0.1,0.1,0.2c1.5,0.2,3,0.4,4.5,0.6c-0.1-0.8-0.1-1.4-0.1-2
						c0-0.2,0-0.5-0.1-0.6c-0.5-0.6-1-1.1-1.6-1.7C70.1,141.1,69.2,142.3,68.2,143.5z M85.5,131.5c-0.2-1.5-0.4-2.9-0.6-4.6
						c-1.3,1-2.5,1.9-3.7,2.8C82.3,131.1,83.6,131.9,85.5,131.5z M91.7,133.9c0-0.1-0.1-0.1-0.1-0.2c-1.5-0.2-3-0.4-4.5-0.6
						c0.1,0.8,0.1,1.5,0.2,2.1c0,0.2,0,0.4,0.1,0.5c0.5,0.6,1,1.1,1.6,1.7C89.9,136.3,90.8,135.1,91.7,133.9z M81.2,147.7
						c1.2,1,2.4,1.9,3.7,2.9c0.2-1.7,0.4-3.1,0.6-4.7c-0.7,0-1.4,0.1-2,0.1c-0.2,0-0.5,0-0.6,0.1C82.3,146.6,81.8,147.1,81.2,147.7z
						 M68.1,133.9c1,1.3,1.9,2.5,2.8,3.7c1.5-1.1,2.2-2.4,1.7-4.3C71.2,133.4,69.8,133.6,68.1,133.9z M78.8,129.8
						c-1.2-1-2.4-1.9-3.7-2.9c-0.2,1.6-0.4,3.1-0.6,4.7c0.7,0,1.4-0.1,2-0.1c0.2,0,0.5,0,0.6-0.1C77.7,130.9,78.2,130.4,78.8,129.8z
						 M87.3,139.3c0.7-0.5,0.7-0.7,0-1.1C87.3,138.5,87.3,138.9,87.3,139.3z M79.4,146c0.6,0.7,0.8,0.7,1.1,0
						C80.2,146,79.8,146,79.4,146z M72.6,139.3c0-0.4,0-0.8,0-1.1C72,138.6,72,138.8,72.6,139.3z M79.4,131.4c0.4,0,0.7,0,1.1,0
						C80,130.8,79.9,130.8,79.4,131.4z M74.4,133.8c0.3-0.2,0.5-0.4,0.8-0.7C74.4,133,74.3,133.1,74.4,133.8z M84.7,133.1
						c0.3,0.3,0.5,0.5,0.8,0.8C85.7,133.1,85.6,133,84.7,133.1z M74.4,143.6c0,0-0.1,0-0.1,0c0,0.2,0,0.5,0.1,0.7
						c0.1,0.1,0.4,0.1,0.7,0.1C74.9,144.1,74.7,143.8,74.4,143.6z M84.8,144.3c0.9,0.1,1-0.1,0.8-0.7
						C85.3,143.8,85.1,144,84.8,144.3z"/>
				</g>
			</g>
		</g>
	</g>
</g>
</svg>
