<?xml version="1.0" encoding="utf-8"?>
<!-- Generator: Adobe Illustrator 23.1.1, SVG Export Plug-In . SVG Version: 6.00 Build 0)  -->
<svg version="1.1" id="Layer_1" xmlns="http://www.w3.org/2000/svg" xmlns:xlink="http://www.w3.org/1999/xlink" x="0px" y="0px"
	 viewBox="0 0 872.9 603.7" style="enable-background:new 0 0 872.9 603.7;" xml:space="preserve">
<style type="text/css">
	.st0{fill:#C8EAFD;}
	.st1{fill:#05BBF1;}
	.st2{fill:#023B7D;}
	.st3{fill-rule:evenodd;clip-rule:evenodd;fill:#05BBF0;}
	.st4{fill-rule:evenodd;clip-rule:evenodd;fill:#CAECFF;}
	.st5{fill-rule:evenodd;clip-rule:evenodd;fill:#023B7D;}
	.st6{fill-rule:evenodd;clip-rule:evenodd;fill:#A6BCBD;}
	.st7{fill:#05BBF0;}
	.st8{fill-rule:evenodd;clip-rule:evenodd;fill:#D2EAFD;}
	.st9{fill-rule:evenodd;clip-rule:evenodd;fill:#0995DA;}
	.st10{fill:#EAEAEA;}
	.st11{fill-rule:evenodd;clip-rule:evenodd;fill:#00BDF3;}
	.st12{fill-rule:evenodd;clip-rule:evenodd;fill:#003B7D;}
	.st13{fill-rule:evenodd;clip-rule:evenodd;fill:#E7EDF3;}
</style>
<g id="_02A-6-IFTA-And-Fuel-Tax-03" transform="translate(-762.616 3307.812)">
	<g id="Group_52704">
		<g id="Group_52691">
			<path id="Path_117912" class="st0" d="M932.4-2980.4l-44.5,25.6c-0.9,0.4-1.6,1.3-1.6,2.3c0,1,0.8,2.2,2.3,3l74.1,43
				c2.7,1.6,6.9,1.8,9.3,0.4l44.5-25.6c0.9-0.4,1.6-1.3,1.6-2.3c0-1.1-0.8-2.2-2.3-3l-74.1-43C939-2981.6,934.8-2981.8,932.4-2980.4
				z"/>
			<path id="Path_117913" class="st1" d="M972.1-2903.7v5.8c-2.4,1.4-6.5,1.2-9.3-0.4l-74.1-43c-1.5-0.9-2.3-1.9-2.3-3
				c0-0.9,0-5.8,0-5.8c0,1,0.8,2.2,2.3,3l74.1,43C965.6-2902.5,969.7-2902.3,972.1-2903.7z"/>
			<path id="Path_117914" class="st2" d="M1018.1-2925.8c-0.1,1-0.7,1.9-1.6,2.4l-44.5,25.6v-5.8l44.5-25.6c0.9-0.4,1.6-1.3,1.6-2.3
				C1018.1-2931.6,1018.1-2926.9,1018.1-2925.8z"/>
			<path id="Path_117915" class="st2" d="M1018.1-2932v0.5c-0.1,1-0.7,1.9-1.6,2.3l-44.5,25.6c-2.4,1.4-6.5,1.2-9.3-0.4l-74.1-43
				c-1.5-0.9-2.3-1.9-2.3-3c0-0.1,0-0.2,0-0.4c0-1.2,0-2.1,0-2.1c0,1,0.8,2.2,2.3,3l74.1,43c2.7,1.6,6.9,1.8,9.3,0.4l44.5-25.6
				c0.9-0.4,1.5-1.2,1.6-2.2C1018.1-2933.2,1018.1-2932.5,1018.1-2932z"/>
			<g id="Group_52655">
				<path id="Path_117916" class="st1" d="M936.4-2977.4l-18.8,10.8l5.3,3.1l18.8-10.8L936.4-2977.4z"/>
				<path id="Path_117917" class="st2" d="M923.1-2969.1l-0.5,0.3l4.1,2.4l0.5-0.3L923.1-2969.1z"/>
				<path id="Path_117918" class="st2" d="M932.2-2974.2l0.5-0.3l4.1,2.4l-0.5,0.3L932.2-2974.2z"/>
				<path id="Path_117919" class="st2" d="M927.9-2971.9l-0.5,0.3l4.1,2.4l0.5-0.3L927.9-2971.9z"/>
			</g>
			<g id="Group_52660">
				<g id="Group_52656">
					<path id="Path_117920" class="st1" d="M930-2941.1l-4.8,2.8c-1.2,0.6-2.6,0.6-3.7,0l-0.7-0.4c-0.5-0.2-0.7-0.6-0.8-1.1
						c0.1-0.5,0.3-0.9,0.8-1.1l4.8-2.8c1.2-0.6,2.6-0.6,3.7,0l0.7,0.4c0.5,0.2,0.7,0.6,0.8,1.1
						C930.7-2941.7,930.4-2941.3,930-2941.1z"/>
					<path id="Path_117921" class="st2" d="M920.7-2938.7l0.7,0.4c1.2,0.6,2.6,0.6,3.7,0l4.8-2.8c0.5-0.2,0.7-0.6,0.8-1.1
						c0,0,0,1.8,0,2.2c-0.1,0.5-0.3,0.9-0.8,1.1l-4.8,2.8c-1.2,0.6-2.6,0.6-3.7,0l-0.7-0.4c-0.5-0.2-0.7-0.6-0.8-1.1
						c0-0.4,0-2.2,0-2.2C920-2939.3,920.3-2938.9,920.7-2938.7z"/>
				</g>
				<g id="Group_52657">
					<path id="Path_117922" class="st1" d="M941.6-2947.7l-4.8,2.8c-1.2,0.6-2.6,0.6-3.7,0l-0.7-0.4c-0.5-0.2-0.7-0.6-0.8-1.1
						c0.1-0.5,0.3-0.9,0.8-1.1l4.8-2.8c1.2-0.6,2.6-0.6,3.7,0l0.7,0.4c0.5,0.2,0.7,0.6,0.8,1.1
						C942.3-2948.3,942-2947.9,941.6-2947.7z"/>
					<path id="Path_117923" class="st2" d="M932.4-2945.3l0.7,0.4c1.2,0.6,2.6,0.6,3.7,0l4.8-2.8c0.5-0.2,0.7-0.6,0.8-1.1
						c0,0,0,1.8,0,2.2c-0.1,0.5-0.3,0.9-0.8,1.1l-4.8,2.8c-1.2,0.6-2.6,0.6-3.7,0l-0.7-0.4c-0.5-0.2-0.7-0.6-0.8-1.1
						c0-0.4,0-2.2,0-2.2C931.6-2945.9,931.9-2945.5,932.4-2945.3z"/>
				</g>
				<g id="Group_52658">
					<path id="Path_117924" class="st1" d="M953.2-2954.4l-4.8,2.8c-1.2,0.6-2.6,0.6-3.7,0l-0.7-0.4c-0.5-0.2-0.7-0.6-0.8-1.1
						c0.1-0.5,0.3-0.9,0.8-1.1l4.8-2.8c1.2-0.6,2.6-0.6,3.7,0l0.7,0.4c0.5,0.2,0.7,0.6,0.8,1.1
						C953.9-2955.1,953.6-2954.6,953.2-2954.4z"/>
					<path id="Path_117925" class="st2" d="M944-2952l0.7,0.4c1.2,0.6,2.6,0.6,3.7,0l4.8-2.8c0.5-0.2,0.7-0.6,0.8-1.1
						c0,0,0,1.8,0,2.2c-0.1,0.5-0.3,0.9-0.8,1.1l-4.8,2.8c-1.2,0.6-2.6,0.6-3.7,0l-0.7-0.4c-0.5-0.2-0.7-0.6-0.8-1.1
						c0-0.4,0-2.2,0-2.2C943.2-2952.6,943.5-2952.2,944-2952z"/>
				</g>
				<g id="Group_52659">
					<path id="Path_117926" class="st1" d="M964.8-2961.1l-4.8,2.8c-1.2,0.6-2.6,0.6-3.7,0l-0.7-0.4c-0.5-0.2-0.7-0.6-0.8-1.1
						c0.1-0.5,0.3-0.9,0.8-1.1l4.8-2.8c1.2-0.6,2.6-0.6,3.7,0l0.7,0.4c0.5,0.2,0.7,0.6,0.8,1.1
						C965.6-2961.8,965.2-2961.3,964.8-2961.1z"/>
					<path id="Path_117927" class="st2" d="M955.6-2958.7l0.7,0.4c1.2,0.6,2.6,0.6,3.7,0l4.8-2.8c0.5-0.2,0.7-0.6,0.8-1.1
						c0,0,0,1.8,0,2.2c-0.1,0.5-0.3,0.9-0.8,1.1l-4.8,2.8c-1.2,0.6-2.6,0.6-3.7,0l-0.7-0.4c-0.5-0.2-0.7-0.6-0.8-1.1
						c0-0.4,0-2.2,0-2.2C954.8-2959.3,955.1-2958.9,955.6-2958.7z"/>
				</g>
			</g>
			<g id="Group_52689">
				<g id="Group_52667">
					<g id="Group_52662">
						<path id="Path_117928" class="st1" d="M977.6-2954.3l-8.9,5.1c-1.2,0.6-2.6,0.6-3.7,0l-3.9-2.3c-0.5-0.2-0.7-0.6-0.8-1.1
							c0.1-0.5,0.3-0.9,0.8-1.1l8.9-5.1c1.2-0.6,2.6-0.6,3.7,0l3.9,2.3c0.5,0.2,0.7,0.6,0.8,1.1
							C978.4-2954.9,978.1-2954.5,977.6-2954.3z"/>
						<g id="Group_52661">
							<path id="Path_117929" class="st2" d="M961.2-2951.5l3.9,2.3c1.2,0.6,2.6,0.6,3.7,0l8.9-5.1c0.5-0.2,0.7-0.6,0.8-1.1
								c0,0,0,2.4,0,2.8c-0.1,0.5-0.3,0.9-0.8,1.1l-8.9,5.1c-1.2,0.6-2.6,0.6-3.7,0l-3.9-2.3c-0.5-0.2-0.7-0.6-0.8-1.1
								c0-0.4,0-2.8,0-2.8C960.4-2952.1,960.7-2951.6,961.2-2951.5z"/>
						</g>
					</g>
					<g id="Group_52664">
						<path id="Path_117930" class="st1" d="M962.2-2945.4l-8.9,5.1c-1.2,0.6-2.6,0.6-3.7,0l-3.9-2.3c-0.5-0.2-0.7-0.6-0.8-1.1
							c0.1-0.5,0.3-0.9,0.8-1.1l8.9-5.1c1.2-0.6,2.6-0.6,3.7,0l3.9,2.3c0.5,0.2,0.7,0.6,0.8,1.1C963-2946,962.7-2945.6,962.2-2945.4
							z"/>
						<g id="Group_52663">
							<path id="Path_117931" class="st2" d="M945.8-2942.6l3.9,2.3c1.2,0.6,2.6,0.6,3.7,0l8.9-5.1c0.5-0.2,0.7-0.6,0.8-1.1
								c0,0,0,2.4,0,2.8c-0.1,0.5-0.3,0.9-0.8,1.1l-8.9,5.1c-1.2,0.6-2.6,0.6-3.7,0l-3.9-2.3c-0.5-0.2-0.7-0.6-0.8-1.1
								c0-0.4,0-2.8,0-2.8C945.1-2943.1,945.3-2942.8,945.8-2942.6z"/>
						</g>
					</g>
					<g id="Group_52666">
						<path id="Path_117932" class="st1" d="M946.8-2936.5l-8.9,5.1c-1.2,0.6-2.6,0.6-3.7,0l-3.9-2.3c-0.5-0.2-0.7-0.6-0.8-1.1
							c0.1-0.5,0.3-0.9,0.8-1.1l8.9-5.1c1.2-0.6,2.6-0.6,3.7,0l3.9,2.3c0.5,0.2,0.7,0.6,0.8,1.1
							C947.6-2937.2,947.3-2936.7,946.8-2936.5z"/>
						<g id="Group_52665">
							<path id="Path_117933" class="st2" d="M930.3-2933.7l3.9,2.3c1.2,0.6,2.6,0.6,3.7,0l8.9-5.1c0.5-0.2,0.7-0.6,0.8-1.1
								c0,0,0,2.4,0,2.8c-0.1,0.5-0.3,0.9-0.8,1.1l-8.9,5.1c-1.2,0.6-2.6,0.6-3.7,0l-3.9-2.3c-0.5-0.2-0.7-0.6-0.8-1.1
								c0-0.4,0-2.8,0-2.8C929.6-2934.3,929.8-2934,930.3-2933.7z"/>
						</g>
					</g>
				</g>
				<g id="Group_52674">
					<g id="Group_52669">
						<path id="Path_117934" class="st1" d="M987.9-2948.3l-8.9,5.1c-1.2,0.6-2.6,0.6-3.7,0l-3.9-2.3c-0.5-0.2-0.7-0.6-0.8-1.1
							c0.1-0.5,0.3-0.9,0.8-1.1l8.9-5.1c1.2-0.6,2.6-0.6,3.7,0l3.9,2.3c0.5,0.2,0.7,0.6,0.8,1.1
							C988.6-2948.9,988.3-2948.5,987.9-2948.3z"/>
						<g id="Group_52668">
							<path id="Path_117935" class="st2" d="M971.4-2945.6l3.9,2.3c1.2,0.6,2.6,0.6,3.7,0l8.9-5.1c0.5-0.2,0.7-0.6,0.8-1.1
								c0,0,0,2.4,0,2.8c-0.1,0.5-0.3,0.9-0.8,1.1l-8.9,5.1c-1.2,0.6-2.6,0.6-3.7,0l-3.9-2.3c-0.5-0.2-0.7-0.6-0.8-1.1
								c0-0.4,0-2.8,0-2.8C970.7-2946.2,971-2945.7,971.4-2945.6z"/>
						</g>
					</g>
					<g id="Group_52671">
						<path id="Path_117936" class="st1" d="M972.5-2939.5l-8.9,5.1c-1.2,0.6-2.6,0.6-3.7,0l-3.9-2.3c-0.5-0.2-0.7-0.6-0.8-1.1
							c0.1-0.5,0.3-0.9,0.8-1.1l8.9-5.1c1.2-0.6,2.6-0.6,3.7,0l3.9,2.3c0.5,0.2,0.7,0.6,0.8,1.1
							C973.2-2940.1,972.9-2939.7,972.5-2939.5z"/>
						<g id="Group_52670">
							<path id="Path_117937" class="st2" d="M956-2936.7l3.9,2.3c1.2,0.6,2.6,0.6,3.7,0l8.9-5.1c0.5-0.2,0.7-0.6,0.8-1.1
								c0,0,0,2.4,0,2.8c-0.1,0.5-0.3,0.9-0.8,1.1l-8.9,5.1c-1.2,0.6-2.6,0.6-3.7,0l-3.9-2.3c-0.5-0.2-0.7-0.6-0.8-1.1
								c0-0.4,0-2.8,0-2.8C955.3-2937.2,955.6-2936.8,956-2936.7z"/>
						</g>
					</g>
					<g id="Group_52673">
						<path id="Path_117938" class="st1" d="M957-2930.6l-8.9,5.1c-1.2,0.6-2.6,0.6-3.7,0l-3.9-2.3c-0.5-0.2-0.7-0.6-0.8-1.1
							c0.1-0.5,0.3-0.9,0.8-1.1l8.9-5.1c1.2-0.6,2.6-0.6,3.7,0l3.9,2.3c0.5,0.2,0.7,0.6,0.8,1.1
							C957.7-2931.2,957.5-2930.8,957-2930.6z"/>
						<g id="Group_52672">
							<path id="Path_117939" class="st2" d="M940.6-2927.7l3.9,2.3c1.2,0.6,2.6,0.6,3.7,0l8.9-5.1c0.5-0.2,0.7-0.6,0.8-1.1
								c0,0,0,2.4,0,2.8c-0.1,0.5-0.3,0.9-0.8,1.1l-8.9,5.1c-1.2,0.6-2.6,0.6-3.7,0l-3.9-2.3c-0.5-0.2-0.7-0.6-0.8-1.1
								c0-0.4,0-2.8,0-2.8C939.8-2928.4,940.1-2928,940.6-2927.7z"/>
						</g>
					</g>
				</g>
				<g id="Group_52681">
					<g id="Group_52676">
						<path id="Path_117940" class="st1" d="M998.1-2942.4l-8.9,5.1c-1.2,0.6-2.6,0.6-3.7,0l-3.9-2.3c-0.5-0.2-0.7-0.6-0.8-1.1
							c0.1-0.5,0.3-0.9,0.8-1.1l8.9-5.1c1.2-0.6,2.6-0.6,3.7,0l3.9,2.3c0.5,0.2,0.7,0.6,0.8,1.1
							C998.9-2943,998.6-2942.6,998.1-2942.4z"/>
						<g id="Group_52675">
							<path id="Path_117941" class="st2" d="M981.7-2939.6l3.9,2.3c1.2,0.6,2.6,0.6,3.7,0l8.9-5.1c0.5-0.2,0.7-0.6,0.8-1.1
								c0,0,0,2.4,0,2.8c-0.1,0.5-0.3,0.9-0.8,1.1l-8.9,5.1c-1.2,0.6-2.6,0.6-3.7,0l-3.9-2.3c-0.5-0.2-0.7-0.6-0.8-1.1
								c0-0.4,0-2.8,0-2.8C981-2940.2,981.3-2939.7,981.7-2939.6z"/>
						</g>
					</g>
					<g id="Group_52678">
						<path id="Path_117942" class="st1" d="M982.7-2933.5l-8.9,5.1c-1.2,0.6-2.6,0.6-3.7,0l-3.9-2.3c-0.5-0.2-0.7-0.6-0.8-1.1
							c0.1-0.5,0.3-0.9,0.8-1.1l8.9-5.1c1.2-0.6,2.6-0.6,3.7,0l3.9,2.3c0.5,0.2,0.7,0.6,0.8,1.1
							C983.4-2934.1,983.1-2933.7,982.7-2933.5z"/>
						<g id="Group_52677">
							<path id="Path_117943" class="st2" d="M966.2-2930.8l3.9,2.3c1.2,0.6,2.6,0.6,3.7,0l8.9-5.1c0.5-0.2,0.7-0.6,0.8-1.1
								c0,0,0,2.4,0,2.8c-0.1,0.5-0.3,0.9-0.8,1.1l-8.9,5.1c-1.2,0.6-2.6,0.6-3.7,0l-3.9-2.3c-0.5-0.2-0.7-0.6-0.8-1.1
								c0-0.4,0-2.8,0-2.8C965.5-2931.3,965.8-2930.9,966.2-2930.8z"/>
						</g>
					</g>
					<g id="Group_52680">
						<path id="Path_117944" class="st1" d="M967.3-2924.7l-8.9,5.1c-1.2,0.6-2.6,0.6-3.7,0l-3.9-2.3c-0.5-0.2-0.7-0.6-0.8-1.1
							c0.1-0.5,0.3-0.9,0.8-1.1l8.9-5.1c1.2-0.6,2.6-0.6,3.7,0l3.9,2.3c0.5,0.2,0.7,0.6,0.8,1.1
							C968-2925.3,967.7-2924.8,967.3-2924.7z"/>
						<g id="Group_52679">
							<path id="Path_117945" class="st2" d="M950.8-2921.8l3.9,2.3c1.2,0.6,2.6,0.6,3.7,0l8.9-5.1c0.5-0.2,0.7-0.6,0.8-1.1
								c0,0,0,2.4,0,2.8c-0.1,0.5-0.3,0.9-0.8,1.1l-8.9,5.1c-1.2,0.6-2.6,0.6-3.7,0l-3.9-2.3c-0.5-0.2-0.7-0.6-0.8-1.1
								c0-0.4,0-2.8,0-2.8C950.1-2922.4,950.4-2922,950.8-2921.8z"/>
						</g>
					</g>
				</g>
				<g id="Group_52688">
					<g id="Group_52683">
						<path id="Path_117946" class="st1" d="M1008.4-2936.4l-8.9,5.1c-1.2,0.6-2.6,0.6-3.7,0l-3.9-2.3c-0.5-0.2-0.7-0.6-0.8-1.1
							c0.1-0.5,0.3-0.9,0.8-1.1l8.9-5.1c1.2-0.6,2.6-0.6,3.7,0l3.9,2.3c0.5,0.2,0.7,0.6,0.8,1.1
							C1009.1-2937.1,1008.8-2936.7,1008.4-2936.4z"/>
						<g id="Group_52682">
							<path id="Path_117947" class="st2" d="M991.9-2933.6l3.9,2.3c1.2,0.6,2.6,0.6,3.7,0l8.9-5.1c0.5-0.2,0.7-0.6,0.8-1.1
								c0,0,0,2.4,0,2.8c-0.1,0.5-0.3,0.9-0.8,1.1l-8.9,5.1c-1.2,0.6-2.6,0.6-3.7,0l-3.9-2.3c-0.5-0.2-0.7-0.6-0.8-1.1
								c0-0.4,0-2.8,0-2.8C991.1-2934.3,991.4-2933.8,991.9-2933.6z"/>
						</g>
					</g>
					<g id="Group_52685">
						<path id="Path_117948" class="st1" d="M992.9-2927.6l-8.9,5.1c-1.2,0.6-2.6,0.6-3.7,0l-3.9-2.3c-0.5-0.2-0.7-0.6-0.8-1.1
							c0.1-0.5,0.3-0.9,0.8-1.1l8.9-5.1c1.2-0.6,2.6-0.6,3.7,0l3.9,2.3c0.5,0.2,0.7,0.6,0.8,1.1
							C993.7-2928.2,993.3-2927.8,992.9-2927.6z"/>
						<g id="Group_52684">
							<path id="Path_117949" class="st2" d="M976.5-2924.8l3.9,2.3c1.2,0.6,2.6,0.6,3.7,0l8.9-5.1c0.5-0.2,0.7-0.6,0.8-1.1
								c0,0,0,2.4,0,2.8c-0.1,0.5-0.3,0.9-0.8,1.1l-8.9,5.1c-1.2,0.6-2.6,0.6-3.7,0l-3.9-2.3c-0.5-0.2-0.7-0.6-0.8-1.1
								c0-0.4,0-2.8,0-2.8C975.7-2925.4,976-2925,976.5-2924.8z"/>
						</g>
					</g>
					<g id="Group_52687">
						<path id="Path_117950" class="st1" d="M977.5-2918.8l-8.9,5.1c-1.2,0.6-2.6,0.6-3.7,0l-3.9-2.3c-0.5-0.2-0.7-0.6-0.8-1.1
							c0.1-0.5,0.3-0.9,0.8-1.1l8.9-5.1c1.2-0.6,2.6-0.6,3.7,0l3.9,2.3c0.5,0.2,0.7,0.6,0.8,1.1
							C978.2-2919.4,977.9-2918.9,977.5-2918.8z"/>
						<g id="Group_52686">
							<path id="Path_117951" class="st2" d="M961-2915.9l3.9,2.3c1.2,0.6,2.6,0.6,3.7,0l8.9-5.1c0.5-0.2,0.7-0.6,0.8-1.1
								c0,0,0,2.4,0,2.8c-0.1,0.5-0.3,0.9-0.8,1.1l-8.9,5.1c-1.2,0.6-2.6,0.6-3.7,0l-3.9-2.3c-0.5-0.2-0.7-0.6-0.8-1.1
								c0-0.4,0-2.8,0-2.8C960.3-2916.5,960.6-2916.1,961-2915.9z"/>
						</g>
					</g>
				</g>
			</g>
			<g id="Group_52690">
				<path id="Path_117952" class="st1" d="M945.4-2971.4l-42.7,24.5l9.3,5.4l42.7-24.5L945.4-2971.4z"/>
				<path id="Path_117953" class="st2" d="M954.7-2966l-42.7,24.5l-0.6-0.3l42.7-24.5L954.7-2966z"/>
				<path id="Path_117954" class="st2" d="M945.4-2971.4l-42.7,24.5l-0.8-0.5l43.5-25l10.1,5.8l-0.8,0.5L945.4-2971.4z"/>
			</g>
		</g>
		<g id="cash">
			<g id="Group_38038">
				<path id="Path_67798" class="st3" d="M1114.2-2891.6l0.1,6.6v0.6l0.1,0.6l0.2,0.6l0.2,0.6l0.2,0.6l0.3,0.6l0.3,0.6l0.4,0.6
					l0.5,0.6l0.5,0.6l0.5,0.5l0.6,0.5l0.7,0.5l0.7,0.5l0.8,0.5l0.9,0.5l0.9,0.5l0.9,0.5l0.9,0.4l0.9,0.4l1,0.4l1,0.3l1,0.3l1,0.2
					l1.1,0.2l1.1,0.2l1.1,0.2l1.1,0.2l1.1,0.1l1.1,0.1l1.1,0.1h1.1h1.1l1.1-0.1l1.1-0.1l1.1-0.1l1.1-0.2l1.1-0.2l1.1-0.2l1.1-0.2
					l1-0.2l1-0.3l1-0.3l1-0.4l0.9-0.4l0.9-0.4l0.9-0.5l0.9-0.5l0.9-0.5l0.8-0.5l0.7-0.5l0.7-0.5l0.6-0.5l0.5-0.5l0.5-0.6l0.5-0.6
					l0.4-0.6l0.3-0.6l0.3-0.6l0.2-0.6l0.2-0.6l0.2-0.6l0.1-0.6v-0.6l-0.1-6.6v0.6l-0.1,0.6l-0.2,0.6l-0.2,0.6l-0.2,0.6l-0.3,0.6
					l-0.3,0.6l-0.4,0.6l-0.5,0.6l-0.5,0.6l-0.5,0.5l-0.6,0.5l-0.7,0.5l-0.7,0.5l-0.8,0.5l-0.9,0.5l-0.9,0.5l-0.9,0.5l-0.9,0.4
					l-0.9,0.4l-1,0.4l-1,0.3l-1,0.3l-1,0.2l-1.1,0.2l-1.1,0.2l-1.1,0.2l-1.1,0.2l-1.1,0.1l-1.1,0.1l-1.1,0.1h-1.1h-1.1l-1.1-0.1
					l-1.1-0.1l-1.1-0.1l-1.1-0.2l-1.1-0.2l-1.1-0.2l-1.1-0.2l-1-0.2l-1-0.3l-1-0.3l-1-0.4l-0.9-0.4l-0.9-0.4l-0.9-0.5l-0.9-0.5
					l-0.9-0.5l-0.8-0.5l-0.7-0.5l-0.7-0.5l-0.6-0.5l-0.5-0.5l-0.5-0.6l-0.5-0.6l-0.4-0.6l-0.3-0.6l-0.3-0.6l-0.2-0.6l-0.2-0.6
					l-0.2-0.6l-0.1-0.6V-2891.6z"/>
				<path id="Path_67799" class="st3" d="M1121-2882.1c9.1,5.2,23.8,5.1,32.9-0.2c9.1-5.4,9-13.9-0.1-19s-23.8-5.1-32.9,0.2
					C1111.8-2895.8,1111.9-2887.3,1121-2882.1z M1151.5-2899.9c3.9,2.3,5.8,5.2,5.9,8.1s-1.9,5.9-5.8,8.1c-3.9,2.2-9,3.4-14.1,3.4
					c-5.1,0-10.2-1-14.1-3.3c-3.9-2.3-5.8-5.2-5.9-8.1c0-2.9,1.9-5.9,5.8-8.1c3.8-2.2,9-3.4,14.1-3.4
					C1142.6-2903.2,1147.6-2902.1,1151.5-2899.9z"/>
				<path id="Path_67800" class="st3" d="M1121-2882.1c9.1,5.2,23.8,5.1,32.9-0.2c9.1-5.4,9-13.9-0.1-19s-23.8-5.1-32.9,0.2
					C1111.8-2895.8,1111.9-2887.3,1121-2882.1z"/>
				<path id="Path_67801" class="st3" d="M1151.5-2899.9v3l-0.8-0.4l-0.8-0.4l-0.8-0.4l-0.9-0.3l-0.9-0.3l-0.9-0.3l-0.9-0.2
					l-0.9-0.2l-0.9-0.2l-0.9-0.2l-0.9-0.2l-0.9-0.2l-0.9-0.1l-0.9-0.1l-0.9-0.1h-0.9v-3h0.9l0.9,0.1l0.9,0.1l0.9,0.1l0.9,0.2
					l0.9,0.2l0.9,0.2l0.9,0.2l0.9,0.2l0.9,0.2l0.9,0.3l0.9,0.3l0.9,0.3l0.8,0.4l0.8,0.4L1151.5-2899.9z"/>
				<path id="Path_67802" class="st3" d="M1137.4-2903.3v3h-0.9l-0.9,0.1l-0.9,0.1l-0.9,0.1l-0.9,0.2l-0.9,0.2l-0.9,0.2l-0.9,0.2
					l-0.9,0.2l-0.9,0.2l-0.9,0.3l-0.9,0.3l-0.8,0.3l-0.8,0.4l-0.8,0.4l-0.8,0.4v-3l0.8-0.4l0.8-0.4l0.8-0.4l0.8-0.3l0.9-0.3l0.9-0.3
					l0.9-0.2l0.9-0.2l0.9-0.2l0.9-0.2l0.9-0.2l0.9-0.2l0.9-0.1l0.9-0.1l0.9-0.1H1137.4z"/>
				<path id="Path_67803" class="st3" d="M1123.3-2899.8v3l-0.7,0.5l-0.7,0.5l-0.6,0.5l-0.5,0.5l-0.5,0.5l-0.5,0.5l-0.5,0.5
					l-0.4,0.5l-0.3,0.5l-0.3,0.5l-0.2,0.5l-0.2,0.5l-0.2,0.5l-0.1,0.5l-0.1,0.5v0.5v-3v-0.5l0.1-0.5l0.1-0.5l0.2-0.5l0.2-0.5
					l0.2-0.5l0.3-0.5l0.3-0.5l0.4-0.5l0.5-0.5l0.5-0.5l0.5-0.5l0.5-0.5l0.6-0.5l0.7-0.5L1123.3-2899.8z"/>
				<path id="Path_67804" class="st3" d="M1157.4-2891.8v3v-0.5l-0.1-0.5l-0.1-0.5l-0.2-0.5l-0.2-0.5l-0.2-0.5l-0.3-0.5l-0.3-0.5
					l-0.4-0.5l-0.5-0.5l-0.5-0.5l-0.5-0.5l-0.5-0.5l-0.6-0.5l-0.6-0.5l-0.7-0.5v-3l0.7,0.4l0.6,0.5l0.6,0.5l0.5,0.5l0.5,0.5l0.5,0.5
					l0.5,0.5l0.4,0.5l0.3,0.5l0.3,0.5l0.2,0.5l0.2,0.5l0.2,0.5l0.1,0.5l0.1,0.5V-2891.8z"/>
				<path id="Path_67805" class="st4" d="M1151.5-2899c-3.9-2.3-9-3.3-14.1-3.3c-5.1,0-10.2,1.2-14.1,3.4c-3.9,2.3-5.8,5.2-5.8,8.1
					c0,2.9,1.9,5.9,5.9,8.1c3.9,2.2,9,3.3,14.1,3.3c5.1,0,10.2-1.2,14.1-3.4c3.9-2.3,5.8-5.2,5.8-8.1
					C1157.3-2893.8,1155.4-2896.8,1151.5-2899z"/>
				<path id="Path_67806" class="st5" d="M1150.5-2898.1v0.9l-2.1,1.2v-0.9L1150.5-2898.1z"/>
				<path id="Path_67807" class="st5" d="M1149.4-2887.9l-3.4-1.9v-0.9l3.4,1.9l0.7-0.4l0.4-0.2l0.4-0.2l0.3-0.2l0.3-0.2l0.3-0.2
					l0.2-0.2l0.2-0.2l0.2-0.2l0.2-0.2l0.1-0.2l0.1-0.2l0.1-0.2v-0.2v0.9v0.2l-0.1,0.2l-0.1,0.2l-0.1,0.2l-0.2,0.2l-0.2,0.2l-0.2,0.2
					l-0.2,0.2l-0.3,0.2l-0.3,0.2l-0.3,0.2l-0.4,0.2l-0.4,0.2L1149.4-2887.9z"/>
				<path id="Path_67808" class="st5" d="M1145.4-2894.2l-5.9,3.4v-0.9l5.9-3.4l0.3,0.2l0.3,0.2l0.3,0.2l0.2,0.2l0.2,0.2l0.2,0.2
					l0.2,0.2l0.2,0.1l0.2,0.1l0.1,0.1l0.1,0.1l0.1,0.1l0.1,0.1l0.1,0.1l0.1,0.1l0.1,0.1v0.1v0.2v0.9v-0.2v-0.1l-0.1-0.1l-0.1-0.1
					l-0.1-0.1l-0.1-0.1l-0.1-0.1l-0.1-0.1l-0.1-0.1l-0.2-0.1l-0.2-0.1l-0.2-0.2l-0.2-0.2l-0.2-0.2l-0.2-0.2l-0.3-0.2l-0.3-0.2
					L1145.4-2894.2z"/>
				<path id="Path_67809" class="st5" d="M1126.5-2883.1l-2.2-1.2v-0.9l2.2,1.2l1.9-1.1l0.5,0.3l0.5,0.3l0.5,0.3l0.5,0.2l0.5,0.2
					l0.5,0.2l0.5,0.2l0.5,0.2l0.5,0.2l0.5,0.2l0.5,0.1l0.5,0.1l0.5,0.1h0.5h0.5h0.5l0.5-0.1l0.5-0.1l0.5-0.2l0.5-0.2l0.5-0.2
					l0.5-0.2l0.5-0.3l0.5-0.3l0.5-0.2l0.4-0.2l0.4-0.2l0.3-0.2l0.3-0.2l0.2-0.2l0.2-0.2l0.2-0.2l0.2-0.2l0.1-0.2l0.1-0.2l0.1-0.2
					v0.9l-0.1,0.2l-0.1,0.2l-0.1,0.2l-0.2,0.2l-0.2,0.2l-0.2,0.2l-0.2,0.2l-0.3,0.2l-0.3,0.2l-0.4,0.2l-0.4,0.2l-0.5,0.2l-0.5,0.3
					l-0.5,0.3l-0.5,0.2l-0.5,0.2l-0.5,0.2l-0.5,0.2l-0.5,0.1l-0.5,0.1h-0.5h-0.5h-0.5l-0.5-0.1l-0.5-0.1l-0.5-0.1l-0.5-0.2l-0.5-0.2
					l-0.5-0.2l-0.5-0.2l-0.5-0.2l-0.5-0.2l-0.5-0.2l-0.5-0.3l-0.5-0.3l-0.5-0.3L1126.5-2883.1z"/>
				<path id="Path_67810" class="st5" d="M1122.7-2888l-0.2-0.2l-0.2-0.2l-0.2-0.3l-0.1-0.2l-0.1-0.3v-0.9l0.1,0.3l0.1,0.3l0.2,0.2
					l0.2,0.2l0.2,0.2l0.3,0.2l0.3,0.3l0.4,0.3l0.4,0.3l0.5,0.3l0.5,0.4l0.5,0.4l0.6,0.4v0.9l-0.6-0.4l-0.5-0.4l-0.5-0.3l-0.5-0.3
					l-0.4-0.3l-0.4-0.3l-0.3-0.3L1122.7-2888z"/>
				<path id="Path_67811" class="st5" d="M1128.5-2891.9v0.9l0,0l0,0h-0.1h-0.1h-0.1h-0.1h-0.1h-0.1l-0.3,0.2l-0.3,0.2l-0.2,0.2
					l-0.2,0.2l-0.2,0.2l-0.1,0.2l-0.1,0.2v-0.9l0.1-0.2l0.1-0.2l0.2-0.2l0.2-0.2l0.2-0.2l0.3-0.2l0.3-0.2h0.1h0.1h0.1h0.1H1128.5
					L1128.5-2891.9L1128.5-2891.9L1128.5-2891.9z"/>
				<path id="Path_67812" class="st5" d="M1134.9-2894.6v0.2v-0.9v-0.2l0.1-0.2l0.1-0.2l0.2-0.2l0.2-0.2l0.2-0.2l0.2-0.2l0.2-0.2
					l0.3-0.2l0.4-0.2l0.4-0.2l0.4-0.2l0.4-0.2l0.4-0.1l0.4-0.1h0.4h0.4l0.4,0.1l0.4,0.1l0.4,0.1l0.4,0.2l0.4,0.2l0.4,0.2l0.4,0.2
					l0.4,0.2l0.7,0.4v0.9l-0.7-0.4l-0.4-0.2l-0.4-0.2l-0.4-0.2l-0.4-0.2l-0.4-0.2l-0.4-0.1l-0.4-0.1l-0.4-0.1h-0.4h-0.4l-0.4,0.1
					l-0.4,0.1l-0.4,0.2l-0.4,0.2l-0.4,0.2l-0.4,0.2l-0.3,0.2l-0.2,0.2l-0.2,0.2l-0.2,0.2l-0.2,0.2l-0.2,0.2l-0.1,0.2L1134.9-2894.6z
					"/>
				<path id="Path_67813" class="st5" d="M1136.7-2889.1l-5.4,3.1v-0.9l5.4-3.1l0.5,0.3l0.4,0.2l0.4,0.2l0.3,0.2l0.2,0.2l0.2,0.2
					l0.2,0.2l0.1,0.2l0.1,0.2v0.2v0.9v-0.2l-0.1-0.2l-0.1-0.2l-0.2-0.2l-0.2-0.2l-0.2-0.2l-0.3-0.2l-0.4-0.2l-0.4-0.2L1136.7-2889.1
					z"/>
				<path id="Path_67814" class="st5" d="M1134.6-2891.3v0.9l-0.5-0.4l-0.5-0.4l-0.5-0.3l-0.5-0.3l-0.4-0.3l-0.4-0.3l-0.4-0.3
					l-0.3-0.3l-0.3-0.3l-0.2-0.3l-0.2-0.3l-0.2-0.3l-0.1-0.3l-0.1-0.3v-0.3v-0.9v0.3l0.1,0.3l0.1,0.3l0.2,0.3l0.2,0.3l0.2,0.3
					l0.3,0.3l0.3,0.3l0.4,0.3l0.4,0.3l0.4,0.3l0.5,0.3l0.5,0.3l0.5,0.3L1134.6-2891.3z"/>
				<path id="Path_67815" class="st6" d="M1129.2-2888.2l5.5-3.1c-1.2-0.8-2.5-1.6-3.6-2.6c-0.7-0.5-1.1-1.4-0.9-2.3
					c0.2-0.8,1-1.6,2.5-2.6c1.3-0.8,2.8-1.4,4.4-1.7c1.3-0.2,2.7-0.2,4,0.2c1.6,0.5,3.2,1.1,4.7,1.9l0.6,0.4l2.1-1.2l2.2,1.2
					l-2.1,1.2c1,0.5,1.9,1.2,2.8,1.9c0.6,0.5,1.1,1.2,1.4,1.9c0.2,0.6,0.2,1.3-0.2,1.9c-0.6,0.9-1.4,1.5-2.3,1.9l-0.7,0.4l-3.4-1.9
					c0.6-0.3,1.2-0.8,1.8-1.2c0.3-0.2,0.4-0.6,0.3-1c-0.2-0.3-0.3-0.6-0.6-0.9s-1-0.7-1.9-1.3l-5.9,3.4c1.2,0.8,2.2,1.5,2.8,2
					c0.5,0.5,1,1,1.4,1.6c0.2,0.6,0.2,1.2-0.2,1.8c-0.6,0.9-1.5,1.6-2.4,2c-1.3,0.8-2.8,1.3-4.4,1.5c-1.4,0.2-2.8,0-4.1-0.5
					c-1.5-0.5-3-1.2-4.3-2l-1.9,1.1l-2.2-1.2l1.9-1.1c-1.2-0.8-2.4-1.6-3.5-2.6c-0.6-0.5-0.9-1.4-0.5-2.2c0.3-0.8,1.3-1.6,3-2.6
					l3.3,1.9c-0.2,0.1-0.2,0.2-0.4,0.2c-0.9,0.5-1.4,1.1-1.3,1.5s0.6,0.9,1.6,1.5L1129.2-2888.2L1129.2-2888.2z M1137.5-2893
					l5.9-3.4l-0.6-0.4c-0.9-0.6-2-0.9-3.2-1.1c-1.1-0.1-2.2,0.2-3.1,0.9c-0.9,0.5-1.3,0.9-1.5,1.4c-0.1,0.5,0.1,0.9,0.4,1.2
					C1136-2893.9,1136.7-2893.5,1137.5-2893L1137.5-2893z M1131.3-2886.9l0.5,0.3c0.6,0.4,1.3,0.7,1.9,0.9c0.5,0.2,1.2,0.3,1.7,0.2
					c0.7-0.1,1.4-0.3,2.1-0.7c1.1-0.6,1.5-1.2,1.3-1.9c-0.2-0.6-1-1.2-2.3-2L1131.3-2886.9z"/>
				<path id="Path_67816" class="st5" d="M1121-2882.1c9.1,5.2,23.8,5.1,32.9-0.2c9.1-5.4,9-13.9-0.1-19s-23.8-5.1-32.9,0.2
					C1111.8-2895.8,1111.9-2887.3,1121-2882.1z M1151.5-2899.9c3.9,2.3,5.8,5.2,5.9,8.1s-1.9,5.9-5.8,8.1c-3.9,2.2-9,3.4-14.1,3.4
					c-5.1,0-10.2-1-14.1-3.3c-3.9-2.3-5.8-5.2-5.9-8.1c0-2.9,1.9-5.9,5.8-8.1c3.8-2.2,9-3.4,14.1-3.4
					C1142.6-2903.2,1147.6-2902.1,1151.5-2899.9z"/>
			</g>
			<g id="Group_38039">
				<path id="Path_67817" class="st3" d="M1114.1-2899.9l0.1,6.6v0.6l0.1,0.6l0.2,0.6l0.2,0.6l0.2,0.6l0.3,0.6l0.3,0.6l0.4,0.6
					l0.5,0.6l0.5,0.6l0.5,0.5l0.6,0.5l0.7,0.5l0.7,0.5l0.8,0.5l0.9,0.5l0.9,0.5l0.9,0.5l0.9,0.4l0.9,0.4l1,0.4l1,0.3l1,0.3l1,0.2
					l1.1,0.2l1.1,0.2l1.1,0.2l1.1,0.2l1.1,0.1l1.1,0.1l1.1,0.1h1.1h1.1l1.1-0.1l1.1-0.1l1.1-0.1l1.1-0.2l1.1-0.2l1.1-0.2l1.1-0.2
					l1-0.2l1-0.3l1-0.3l1-0.4l0.9-0.4l0.9-0.4l0.9-0.5l0.9-0.5l0.9-0.5l0.8-0.5l0.7-0.5l0.7-0.5l0.6-0.5l0.5-0.5l0.5-0.6l0.5-0.6
					l0.4-0.6l0.3-0.6l0.3-0.6l0.2-0.6l0.2-0.6l0.2-0.6l0.1-0.6v-0.6l-0.1-6.6v0.6l-0.1,0.6l-0.2,0.6l-0.2,0.6l-0.2,0.6l-0.3,0.6
					l-0.3,0.6l-0.4,0.6l-0.5,0.6l-0.5,0.6l-0.5,0.5l-0.6,0.5l-0.7,0.5l-0.7,0.5l-0.8,0.5l-0.9,0.5l-0.9,0.5l-0.9,0.5l-0.9,0.4
					l-0.9,0.4l-1,0.4l-1,0.3l-1,0.3l-1,0.2l-1.1,0.2l-1.1,0.2l-1.1,0.2l-1.1,0.2l-1.1,0.1l-1.1,0.1l-1.1,0.1h-1.1h-1.1l-1.1-0.1
					l-1.1-0.1l-1.1-0.1l-1.1-0.2l-1.1-0.2l-1.1-0.2l-1.1-0.2l-1-0.2l-1-0.3l-1-0.3l-1-0.4l-0.9-0.4l-0.9-0.4l-0.9-0.5l-0.9-0.5
					l-0.9-0.5l-0.8-0.5l-0.7-0.5l-0.7-0.5l-0.6-0.5l-0.5-0.5l-0.5-0.6l-0.5-0.6l-0.4-0.6l-0.3-0.6l-0.3-0.6l-0.2-0.6l-0.2-0.6
					l-0.2-0.6l-0.1-0.6V-2899.9z"/>
				<path id="Path_67818" class="st3" d="M1121-2890.4c9.1,5.1,23.8,5.1,32.9-0.2c9.1-5.3,9-13.9-0.1-19c-9.1-5.1-23.8-5.1-32.9,0.2
					C1111.8-2904.2,1111.8-2895.7,1121-2890.4z M1151.4-2908.3c3.9,2.3,5.8,5.2,5.9,8.1c0,2.9-1.9,5.9-5.8,8.1
					c-3.9,2.2-9,3.4-14.1,3.4c-5.1,0-10.2-1-14.1-3.3c-3.9-2.3-5.8-5.2-5.9-8.1c0-2.9,1.9-5.9,5.8-8.1c3.9-2.2,9-3.4,14.1-3.4
					C1142.5-2911.6,1147.5-2910.5,1151.4-2908.3z"/>
				<path id="Path_67819" class="st3" d="M1121-2890.4c9.1,5.1,23.8,5.1,32.9-0.2c9.1-5.3,9-13.9-0.1-19c-9.1-5.1-23.8-5.1-32.9,0.2
					C1111.8-2904.2,1111.8-2895.7,1121-2890.4z"/>
				<path id="Path_67820" class="st3" d="M1151.4-2908.3v3l-0.8-0.4l-0.8-0.4l-0.8-0.4l-0.9-0.3l-0.9-0.3l-0.9-0.3l-0.9-0.2
					l-0.9-0.2l-0.9-0.2l-0.9-0.2l-0.9-0.2l-0.9-0.2l-0.9-0.1l-0.9-0.1l-0.9-0.1h-0.9v-3h0.9l0.9,0.1l0.9,0.1l0.9,0.1l0.9,0.2
					l0.9,0.2l0.9,0.2l0.9,0.2l0.9,0.2l0.9,0.2l0.9,0.3l0.9,0.3l0.9,0.3l0.8,0.4l0.8,0.4L1151.4-2908.3z"/>
				<path id="Path_67821" class="st3" d="M1137.3-2911.6v3h-0.9l-0.9,0.1l-0.9,0.1l-0.9,0.1l-0.9,0.2l-0.9,0.2l-0.9,0.2l-0.9,0.2
					l-0.9,0.2l-0.9,0.2l-0.9,0.3l-0.9,0.3l-0.8,0.3l-0.8,0.4l-0.8,0.4l-0.8,0.4v-3l0.8-0.4l0.8-0.4l0.8-0.4l0.8-0.3l0.9-0.3l0.9-0.3
					l0.9-0.2l0.9-0.2l0.9-0.2l0.9-0.2l0.9-0.2l0.9-0.2l0.9-0.1l0.9-0.1l0.9-0.1H1137.3z"/>
				<path id="Path_67822" class="st3" d="M1123.2-2908.2v3l-0.7,0.4l-0.7,0.5l-0.6,0.5l-0.5,0.5l-0.5,0.5l-0.5,0.5l-0.5,0.5
					l-0.4,0.5l-0.3,0.5l-0.3,0.5l-0.2,0.5l-0.2,0.5l-0.2,0.5l-0.1,0.5l-0.1,0.5v0.5v-3v-0.5l0.1-0.5l0.1-0.5l0.2-0.5l0.2-0.5
					l0.2-0.5l0.3-0.5l0.3-0.5l0.4-0.5l0.5-0.5l0.5-0.5l0.5-0.5l0.5-0.5l0.6-0.5l0.7-0.5L1123.2-2908.2z"/>
				<path id="Path_67823" class="st3" d="M1157.3-2900.2v3v-0.5l-0.1-0.5l-0.1-0.5l-0.2-0.5l-0.2-0.5l-0.2-0.5l-0.3-0.5l-0.3-0.5
					l-0.4-0.5l-0.5-0.5l-0.5-0.5l-0.5-0.5l-0.5-0.5l-0.6-0.5l-0.6-0.5l-0.7-0.4v-3l0.7,0.5l0.6,0.5l0.6,0.5l0.5,0.5l0.5,0.5l0.5,0.5
					l0.5,0.5l0.4,0.5l0.3,0.5l0.3,0.5l0.2,0.5l0.2,0.5l0.2,0.5l0.1,0.5l0.1,0.5V-2900.2z"/>
				<path id="Path_67824" class="st4" d="M1151.4-2907.4c-3.9-2.3-9-3.3-14.1-3.3c-5.1,0-10.2,1.2-14.1,3.4
					c-3.9,2.3-5.8,5.2-5.8,8.1c0,2.9,1.9,5.9,5.9,8.1c3.9,2.2,9,3.3,14.1,3.3c5.1,0,10.2-1.2,14.1-3.4c3.9-2.3,5.8-5.2,5.8-8.1
					C1157.3-2902.2,1155.4-2905.1,1151.4-2907.4z"/>
				<path id="Path_67825" class="st5" d="M1150.4-2906.5v0.9l-2.1,1.2v-0.9L1150.4-2906.5z"/>
				<path id="Path_67826" class="st5" d="M1149.3-2896.3l-3.4-1.9v-0.9l3.4,1.9l0.7-0.4l0.4-0.2l0.4-0.2l0.3-0.2l0.3-0.2l0.3-0.2
					l0.2-0.2l0.2-0.2l0.2-0.2l0.2-0.2l0.1-0.2l0.1-0.2l0.1-0.2v-0.2v0.9v0.2l-0.1,0.2l-0.1,0.2l-0.1,0.2l-0.2,0.2l-0.2,0.2l-0.2,0.2
					l-0.2,0.2l-0.3,0.2l-0.3,0.2l-0.3,0.2l-0.4,0.2l-0.4,0.2L1149.3-2896.3z"/>
				<path id="Path_67827" class="st5" d="M1145.4-2902.6l-5.9,3.4v-0.9l5.9-3.4l0.3,0.2l0.3,0.2l0.3,0.2l0.2,0.2l0.2,0.2l0.2,0.2
					l0.2,0.2l0.2,0.1l0.2,0.1l0.1,0.1l0.1,0.1l0.1,0.1l0.1,0.1l0.1,0.1l0.1,0.1l0.1,0.1v0.1v0.2v0.9v-0.2v-0.1l-0.1-0.1l-0.1-0.1
					l-0.1-0.1l-0.1-0.1l-0.1-0.1l-0.1-0.1l-0.1-0.1l-0.2-0.1l-0.2-0.1l-0.2-0.2l-0.2-0.2l-0.2-0.2l-0.2-0.2l-0.3-0.2l-0.3-0.2
					L1145.4-2902.6z"/>
				<path id="Path_67828" class="st5" d="M1126.5-2891.5l-2.2-1.2v-0.9l2.2,1.2l1.9-1.1l0.5,0.3l0.5,0.3l0.5,0.3l0.5,0.2l0.5,0.2
					l0.5,0.2l0.5,0.2l0.5,0.2l0.5,0.2l0.5,0.2l0.5,0.1l0.5,0.1l0.5,0.1h0.5h0.5h0.5l0.5-0.1l0.5-0.1l0.5-0.2l0.5-0.2l0.5-0.2
					l0.5-0.2l0.5-0.3l0.5-0.3l0.5-0.2l0.4-0.2l0.4-0.2l0.3-0.2l0.3-0.2l0.2-0.2l0.2-0.2l0.2-0.2l0.2-0.2l0.1-0.2l0.1-0.2l0.1-0.2
					v0.9l-0.1,0.2l-0.1,0.2l-0.1,0.2l-0.2,0.2l-0.2,0.2l-0.2,0.2l-0.2,0.2l-0.3,0.2l-0.3,0.2l-0.4,0.2l-0.4,0.2l-0.5,0.2l-0.5,0.3
					l-0.5,0.3l-0.5,0.2l-0.5,0.2l-0.5,0.2l-0.5,0.2l-0.5,0.1l-0.5,0.1h-0.5h-0.5h-0.5l-0.5-0.1l-0.5-0.1l-0.5-0.1l-0.5-0.2l-0.5-0.2
					l-0.5-0.2l-0.5-0.2l-0.5-0.2l-0.5-0.2l-0.5-0.2l-0.5-0.3l-0.5-0.3l-0.5-0.3L1126.5-2891.5z"/>
				<path id="Path_67829" class="st5" d="M1122.6-2896.3l-0.2-0.2l-0.2-0.2l-0.2-0.2l-0.1-0.3l-0.1-0.3v-0.9l0.1,0.3l0.1,0.3
					l0.2,0.2l0.2,0.2l0.2,0.2l0.3,0.3l0.3,0.3l0.4,0.3l0.4,0.3l0.5,0.3l0.5,0.3l0.5,0.4l0.6,0.4v0.9l-0.6-0.4l-0.5-0.4l-0.5-0.3
					l-0.5-0.3l-0.4-0.3l-0.4-0.3l-0.3-0.3L1122.6-2896.3z"/>
				<path id="Path_67830" class="st5" d="M1128.4-2900.2v0.9l0,0l0,0h-0.1h-0.1h-0.1h-0.1h-0.1h-0.1l-0.3,0.2l-0.3,0.2l-0.2,0.2
					l-0.2,0.2l-0.2,0.2l-0.1,0.2l-0.1,0.2v-0.9l0.1-0.2l0.1-0.2l0.2-0.2l0.2-0.2l0.2-0.2l0.3-0.2l0.3-0.2h0.1h0.1h0.1h0.1
					L1128.4-2900.2L1128.4-2900.2L1128.4-2900.2L1128.4-2900.2z"/>
				<path id="Path_67831" class="st5" d="M1134.9-2903v0.2v-0.9v-0.2l0.1-0.2l0.1-0.2l0.2-0.2l0.2-0.2l0.2-0.2l0.2-0.2l0.2-0.2
					l0.3-0.2l0.4-0.2l0.4-0.2l0.4-0.2l0.4-0.2l0.4-0.1l0.4-0.1h0.4h0.4l0.4,0.1l0.4,0.1l0.4,0.1l0.4,0.2l0.4,0.2l0.4,0.2l0.4,0.2
					l0.4,0.2l0.7,0.4v0.9l-0.7-0.4l-0.4-0.2l-0.4-0.2l-0.4-0.2l-0.4-0.2l-0.4-0.2l-0.4-0.1l-0.4-0.1l-0.4-0.1h-0.4h-0.4l-0.4,0.1
					l-0.4,0.1l-0.4,0.2l-0.4,0.2l-0.4,0.2l-0.4,0.2l-0.3,0.2l-0.2,0.2l-0.2,0.2l-0.2,0.2l-0.2,0.2l-0.2,0.2l-0.1,0.2L1134.9-2903z"
					/>
				<path id="Path_67832" class="st5" d="M1136.6-2897.4l-5.4,3.1v-0.9l5.4-3.1l0.5,0.3l0.4,0.2l0.4,0.2l0.3,0.2l0.2,0.2l0.2,0.2
					l0.2,0.2l0.1,0.2l0.1,0.2v0.2v0.9v-0.2l-0.1-0.2l-0.1-0.2l-0.2-0.2l-0.2-0.2l-0.2-0.2l-0.3-0.2l-0.4-0.2l-0.4-0.2L1136.6-2897.4
					z"/>
				<path id="Path_67833" class="st5" d="M1134.5-2899.6v0.9l-0.5-0.4l-0.5-0.4l-0.5-0.3l-0.5-0.3l-0.4-0.3l-0.4-0.3l-0.4-0.3
					l-0.3-0.3l-0.3-0.3l-0.2-0.3l-0.2-0.3l-0.2-0.3l-0.1-0.3l-0.1-0.3v-0.3v-0.9v0.3l0.1,0.3l0.1,0.3l0.2,0.3l0.2,0.3l0.2,0.3
					l0.3,0.3l0.3,0.3l0.4,0.3l0.4,0.3l0.4,0.3l0.5,0.3l0.5,0.3l0.5,0.4L1134.5-2899.6z"/>
				<path id="Path_67834" class="st6" d="M1129.2-2896.5l5.5-3.1c-1.2-0.8-2.5-1.6-3.6-2.6c-0.7-0.5-1.1-1.4-0.9-2.3
					c0.2-0.9,1-1.6,2.5-2.6c1.3-0.8,2.8-1.4,4.4-1.7c1.3-0.2,2.7-0.2,4,0.2c1.6,0.5,3.2,1.1,4.7,1.9l0.6,0.4l2.1-1.2l2.2,1.2
					l-2.1,1.2c1,0.5,1.9,1.2,2.8,1.9c0.6,0.5,1.1,1.2,1.4,1.9c0.2,0.6,0.2,1.3-0.2,1.9c-0.6,0.9-1.4,1.5-2.3,1.9l-0.7,0.4l-3.4-1.9
					c0.6-0.3,1.2-0.8,1.8-1.2c0.3-0.2,0.4-0.6,0.3-0.9c-0.2-0.3-0.3-0.6-0.6-0.9c-0.3-0.2-1-0.7-1.9-1.3l-5.9,3.4
					c1.2,0.8,2.2,1.5,2.8,2c0.5,0.5,1,1,1.4,1.6c0.2,0.6,0.2,1.2-0.2,1.8c-0.6,0.9-1.5,1.6-2.4,2c-1.3,0.8-2.8,1.3-4.4,1.5
					c-1.4,0.2-2.8,0-4.1-0.5c-1.5-0.5-3-1.2-4.3-2l-1.9,1.1l-2.2-1.2l1.9-1.1c-1.2-0.8-2.4-1.6-3.5-2.6c-0.6-0.5-0.9-1.4-0.5-2.2
					c0.3-0.8,1.3-1.6,3-2.6l3.3,1.9c-0.2,0.1-0.2,0.2-0.4,0.2c-0.9,0.5-1.4,1.1-1.3,1.5c0.1,0.4,0.6,0.9,1.6,1.5L1129.2-2896.5
					L1129.2-2896.5z M1137.4-2901.3l5.9-3.4l-0.6-0.4c-0.9-0.6-2-0.9-3.2-1.1c-1.1-0.1-2.2,0.2-3.1,0.9c-0.9,0.5-1.3,0.9-1.5,1.4
					c-0.1,0.5,0.1,0.9,0.4,1.2C1136-2902.3,1136.7-2901.8,1137.4-2901.3L1137.4-2901.3z M1131.3-2895.3l0.5,0.3
					c0.6,0.4,1.3,0.7,1.9,0.9c0.5,0.2,1.2,0.3,1.7,0.2c0.7-0.1,1.4-0.3,2.1-0.7c1.1-0.6,1.5-1.2,1.3-1.9c-0.2-0.6-1-1.2-2.3-2
					L1131.3-2895.3z"/>
				<path id="Path_67835" class="st5" d="M1121-2890.4c9.1,5.1,23.8,5.1,32.9-0.2c9.1-5.3,9-13.9-0.1-19c-9.1-5.1-23.8-5.1-32.9,0.2
					C1111.8-2904.2,1111.8-2895.7,1121-2890.4z M1151.4-2908.3c3.9,2.3,5.8,5.2,5.9,8.1c0,2.9-1.9,5.9-5.8,8.1
					c-3.9,2.2-9,3.4-14.1,3.4c-5.1,0-10.2-1-14.1-3.3c-3.9-2.3-5.8-5.2-5.9-8.1c0-2.9,1.9-5.9,5.8-8.1c3.9-2.2,9-3.4,14.1-3.4
					C1142.5-2911.6,1147.5-2910.5,1151.4-2908.3z"/>
			</g>
			<g id="Group_38040">
				<path id="Path_67836" class="st3" d="M1114-2908.3l0.1,6.6v0.6l0.1,0.6l0.2,0.6l0.2,0.6l0.2,0.6l0.3,0.6l0.3,0.6l0.4,0.6
					l0.5,0.6l0.5,0.6l0.5,0.5l0.6,0.5l0.7,0.5l0.7,0.5l0.8,0.5l0.9,0.5l0.9,0.5l0.9,0.5l0.9,0.4l0.9,0.4l1,0.4l1,0.3l1,0.3l1,0.2
					l1.1,0.2l1.1,0.2l1.1,0.2l1.1,0.2l1.1,0.1l1.1,0.1l1.1,0.1h1.1h1.1l1.1-0.1l1.1-0.1l1.1-0.1l1.1-0.2l1.1-0.2l1.1-0.2l1.1-0.2
					l1-0.2l1-0.3l1-0.3l1-0.4l0.9-0.4l0.9-0.4l0.9-0.5l0.9-0.5l0.9-0.5l0.8-0.5l0.7-0.5l0.7-0.5l0.6-0.5l0.5-0.5l0.5-0.6l0.5-0.6
					l0.4-0.6l0.3-0.6l0.3-0.6l0.2-0.6l0.2-0.6l0.2-0.6l0.1-0.6v-0.6l-0.1-6.6v0.6l-0.1,0.6l-0.2,0.6l-0.2,0.6l-0.2,0.6l-0.3,0.6
					l-0.3,0.6l-0.4,0.6l-0.5,0.6l-0.5,0.6l-0.5,0.5l-0.6,0.5l-0.7,0.5l-0.7,0.5l-0.8,0.5l-0.9,0.5l-0.9,0.5l-0.9,0.5l-0.9,0.4
					l-0.9,0.4l-1,0.4l-1,0.3l-1,0.3l-1,0.2l-1.1,0.2l-1.1,0.2l-1.1,0.2l-1.1,0.2l-1.1,0.1l-1.1,0.1l-1.1,0.1h-1.1h-1.1l-1.1-0.1
					l-1.1-0.1l-1.1-0.1l-1.1-0.2l-1.1-0.2l-1.1-0.2l-1.1-0.2l-1-0.2l-1-0.3l-1-0.3l-1-0.4l-0.9-0.4l-0.9-0.4l-0.9-0.5l-0.9-0.5
					l-0.9-0.5l-0.8-0.5l-0.7-0.5l-0.7-0.5l-0.6-0.5l-0.5-0.5l-0.5-0.6l-0.5-0.6l-0.4-0.6l-0.3-0.6l-0.3-0.6l-0.2-0.6l-0.2-0.6
					l-0.2-0.6l-0.1-0.6V-2908.3z"/>
				<path id="Path_67837" class="st3" d="M1120.9-2898.8c9.1,5.1,23.8,5.1,32.9-0.2c9.1-5.3,9-13.9-0.1-19s-23.8-5.1-32.9,0.2
					C1111.7-2912.6,1111.8-2904.1,1120.9-2898.8z M1151.4-2916.7c3.9,2.3,5.8,5.2,5.9,8.1c0,2.9-1.9,5.9-5.8,8.1
					c-3.8,2.2-9,3.4-14.1,3.4c-5.1,0-10.2-1-14.1-3.3c-3.9-2.3-5.8-5.2-5.9-8.1c-0.1-2.9,1.9-5.9,5.8-8.1c3.9-2.2,9-3.4,14.1-3.4
					C1142.4-2919.9,1147.5-2918.9,1151.4-2916.7z"/>
				<path id="Path_67838" class="st3" d="M1120.9-2898.8c9.1,5.1,23.8,5.1,32.9-0.2c9.1-5.3,9-13.9-0.1-19s-23.8-5.1-32.9,0.2
					C1111.7-2912.6,1111.8-2904.1,1120.9-2898.8z"/>
				<path id="Path_67839" class="st3" d="M1151.4-2916.7v3l-0.8-0.4l-0.8-0.4l-0.8-0.4l-0.9-0.3l-0.9-0.3l-0.9-0.3l-0.9-0.2
					l-0.9-0.2l-0.9-0.2l-0.9-0.2l-0.9-0.2l-0.9-0.2l-0.9-0.1l-0.9-0.1l-0.9-0.1h-0.9v-3h0.9l0.9,0.1l0.9,0.1l0.9,0.1l0.9,0.2
					l0.9,0.2l0.9,0.2l0.9,0.2l0.9,0.2l0.9,0.2l0.9,0.3l0.9,0.3l0.9,0.3l0.8,0.4l0.8,0.4L1151.4-2916.7z"/>
				<path id="Path_67840" class="st3" d="M1137.3-2919.9v3h-0.9h-0.9l-0.9,0.1l-0.9,0.1l-0.9,0.2l-0.9,0.2l-0.9,0.2l-0.9,0.2
					l-0.9,0.2l-0.9,0.2l-0.9,0.3l-0.9,0.3l-0.8,0.3l-0.8,0.4l-0.8,0.4l-0.8,0.4v-3l0.8-0.4l0.8-0.4l0.8-0.4l0.8-0.3l0.9-0.3l0.9-0.3
					l0.9-0.2l0.9-0.2l0.9-0.2l0.9-0.2l0.9-0.2l0.9-0.2l0.9-0.1l0.9-0.1l0.9-0.1L1137.3-2919.9z"/>
				<path id="Path_67841" class="st3" d="M1123.2-2916.5v3l-0.7,0.5l-0.7,0.5l-0.6,0.5l-0.5,0.5l-0.5,0.5l-0.5,0.5l-0.5,0.5
					l-0.4,0.5l-0.3,0.5l-0.3,0.5l-0.2,0.5l-0.2,0.5l-0.2,0.5l-0.1,0.5l-0.1,0.5v0.5v-3v-0.5l0.1-0.5l0.1-0.5l0.2-0.5l0.2-0.5
					l0.2-0.5l0.3-0.5l0.3-0.5l0.4-0.5l0.5-0.5l0.5-0.5l0.5-0.5l0.5-0.5l0.6-0.5l0.7-0.5L1123.2-2916.5z"/>
				<path id="Path_67842" class="st3" d="M1157.3-2908.6v3v-0.5l-0.1-0.5l-0.1-0.5l-0.2-0.5l-0.2-0.5l-0.2-0.5l-0.3-0.5l-0.3-0.5
					l-0.4-0.5l-0.5-0.5l-0.5-0.5l-0.5-0.5l-0.5-0.5l-0.6-0.5l-0.6-0.5l-0.7-0.5v-3l0.7,0.4l0.6,0.5l0.6,0.5l0.5,0.5l0.5,0.5l0.5,0.5
					l0.5,0.5l0.4,0.5l0.3,0.5l0.3,0.5l0.2,0.5l0.2,0.5l0.2,0.5l0.1,0.5l0.1,0.5V-2908.6z"/>
				<path id="Path_67843" class="st4" d="M1151.4-2915.7c-3.9-2.3-9-3.3-14.1-3.3c-5.1,0-10.2,1.2-14.1,3.4
					c-3.9,2.3-5.8,5.2-5.8,8.1c0.1,2.9,1.9,5.9,5.9,8.1c3.9,2.2,9,3.3,14.1,3.3c5.1,0,10.2-1.2,14.1-3.4c3.9-2.3,5.8-5.2,5.8-8.1
					C1157.3-2910.5,1155.3-2913.5,1151.4-2915.7z"/>
				<path id="Path_67844" class="st5" d="M1150.4-2914.9v0.9l-2.1,1.2v-0.9L1150.4-2914.9z"/>
				<path id="Path_67845" class="st5" d="M1149.3-2904.6l-3.4-1.9v-0.9l3.4,1.9l0.7-0.4l0.4-0.2l0.4-0.2l0.3-0.2l0.3-0.2l0.3-0.2
					l0.2-0.2l0.2-0.2l0.2-0.2l0.2-0.2l0.1-0.2l0.1-0.2l0.1-0.2v-0.2v0.9v0.2l-0.1,0.2l-0.1,0.2l-0.1,0.2l-0.2,0.2l-0.2,0.2l-0.2,0.2
					l-0.2,0.2l-0.3,0.2l-0.3,0.2l-0.3,0.2l-0.4,0.2l-0.4,0.2L1149.3-2904.6z"/>
				<path id="Path_67846" class="st5" d="M1145.4-2910.9l-5.9,3.4v-0.9l5.9-3.4l0.3,0.2l0.3,0.2l0.3,0.2l0.2,0.2l0.2,0.2l0.2,0.2
					l0.2,0.2l0.2,0.1l0.2,0.1l0.1,0.1l0.1,0.1l0.1,0.1l0.1,0.1l0.1,0.1l0.1,0.1l0.1,0.1v0.1v0.2v0.9v-0.1v-0.1l-0.1-0.1l-0.1-0.1
					l-0.1-0.1l-0.1-0.1l-0.1-0.1l-0.1-0.1l-0.1-0.1l-0.2-0.1l-0.2-0.1l-0.2-0.2l-0.2-0.2l-0.2-0.2l-0.2-0.2l-0.3-0.2l-0.3-0.2
					L1145.4-2910.9z"/>
				<path id="Path_67847" class="st5" d="M1126.4-2899.9l-2.2-1.2v-0.9l2.2,1.2l1.9-1.1l0.5,0.3l0.5,0.3l0.5,0.3l0.5,0.2l0.5,0.2
					l0.5,0.2l0.5,0.2l0.5,0.2l0.5,0.2l0.5,0.2l0.5,0.1l0.5,0.1l0.5,0.1h0.5h0.5h0.5l0.5-0.1l0.5-0.1l0.5-0.2l0.5-0.2l0.5-0.2
					l0.5-0.2l0.5-0.3l0.5-0.3l0.5-0.2l0.4-0.2l0.4-0.2l0.3-0.2l0.3-0.2l0.2-0.2l0.2-0.2l0.2-0.2l0.2-0.2l0.1-0.2l0.1-0.2l0.1-0.2
					v0.9l-0.1,0.2l-0.1,0.2l-0.1,0.2l-0.2,0.2l-0.2,0.2l-0.2,0.2l-0.2,0.2l-0.3,0.2l-0.3,0.2l-0.4,0.2l-0.4,0.2l-0.5,0.2l-0.5,0.3
					l-0.5,0.3l-0.5,0.2l-0.5,0.2l-0.5,0.2l-0.5,0.2l-0.5,0.1l-0.5,0.1h-0.5h-0.5h-0.5l-0.5-0.1l-0.5-0.1l-0.5-0.1l-0.5-0.2l-0.5-0.2
					l-0.5-0.2l-0.5-0.2l-0.5-0.2l-0.5-0.2l-0.5-0.2l-0.5-0.3l-0.5-0.3l-0.5-0.3L1126.4-2899.9z"/>
				<path id="Path_67848" class="st5" d="M1122.6-2904.7l-0.2-0.2l-0.2-0.2l-0.2-0.2l-0.1-0.3l-0.1-0.3v-0.9l0.1,0.3l0.1,0.3
					l0.2,0.2l0.2,0.2l0.2,0.2l0.3,0.3l0.3,0.3l0.4,0.3l0.4,0.3l0.5,0.3l0.5,0.3l0.5,0.4l0.6,0.4v0.9l-0.6-0.4l-0.5-0.4l-0.5-0.4
					l-0.5-0.3l-0.4-0.3l-0.4-0.3l-0.3-0.3L1122.6-2904.7z"/>
				<path id="Path_67849" class="st5" d="M1128.3-2908.6v0.9l0,0l0,0h-0.1h-0.1h-0.1h-0.1h-0.1h-0.1l-0.3,0.2l-0.3,0.2l-0.2,0.2
					l-0.2,0.2l-0.2,0.2l-0.1,0.2l-0.1,0.2v-0.9l0.1-0.2l0.1-0.2l0.2-0.2l0.2-0.2l0.2-0.2l0.3-0.2l0.3-0.2h0.1h0.1h0.1h0.1
					L1128.3-2908.6L1128.3-2908.6L1128.3-2908.6L1128.3-2908.6z"/>
				<path id="Path_67850" class="st5" d="M1134.8-2911.4v0.2v-0.9v-0.2l0.1-0.2l0.1-0.2l0.2-0.2l0.2-0.2l0.2-0.2l0.2-0.2l0.2-0.2
					l0.3-0.2l0.4-0.2l0.4-0.2l0.4-0.2l0.4-0.2l0.4-0.1l0.4-0.1h0.4h0.4l0.4,0.1l0.4,0.1l0.4,0.1l0.4,0.2l0.4,0.2l0.4,0.2l0.4,0.2
					l0.4,0.2l0.7,0.4v0.9l-0.7-0.4l-0.4-0.2l-0.4-0.2l-0.4-0.2l-0.4-0.2l-0.4-0.2l-0.4-0.1l-0.4-0.1l-0.4-0.1h-0.4h-0.4l-0.4,0.1
					l-0.4,0.1l-0.4,0.2l-0.4,0.2l-0.4,0.2l-0.4,0.2l-0.3,0.2l-0.2,0.2l-0.2,0.2l-0.2,0.2l-0.2,0.2l-0.2,0.2l-0.1,0.2L1134.8-2911.4z
					"/>
				<path id="Path_67851" class="st5" d="M1136.6-2905.8l-5.4,3.1v-0.9l5.4-3.1l0.5,0.2l0.4,0.2l0.4,0.2l0.3,0.2l0.2,0.2l0.2,0.2
					l0.2,0.2l0.1,0.2l0.1,0.2v0.2v0.9v-0.2l-0.1-0.2l-0.1-0.2l-0.2-0.2l-0.2-0.2l-0.2-0.2l-0.3-0.2l-0.4-0.2l-0.4-0.2L1136.6-2905.8
					z"/>
				<path id="Path_67852" class="st5" d="M1134.5-2908v0.9l-0.5-0.4l-0.5-0.4l-0.5-0.3l-0.5-0.3l-0.4-0.3l-0.4-0.3l-0.4-0.3
					l-0.3-0.3l-0.3-0.3l-0.2-0.3l-0.2-0.3l-0.2-0.3l-0.1-0.3l-0.1-0.3v-0.3v-0.9v0.3l0.1,0.3l0.1,0.3l0.2,0.3l0.2,0.3l0.2,0.3
					l0.3,0.3l0.3,0.3l0.4,0.3l0.4,0.3l0.4,0.3l0.5,0.3l0.5,0.3l0.5,0.4L1134.5-2908z"/>
				<path id="Path_67853" class="st6" d="M1129.2-2904.8l5.5-3.1c-1.2-0.8-2.5-1.6-3.6-2.6c-0.7-0.5-1.1-1.4-0.9-2.3
					c0.2-0.9,1-1.6,2.5-2.6c1.3-0.8,2.8-1.4,4.4-1.7c1.3-0.2,2.7-0.2,4,0.2c1.6,0.5,3.2,1.1,4.7,1.9l0.6,0.4l2.1-1.2l2.2,1.2
					l-2.1,1.2c1,0.5,1.9,1.2,2.8,1.9c0.6,0.5,1.1,1.2,1.4,1.9c0.2,0.6,0.2,1.3-0.2,1.9c-0.6,0.9-1.4,1.5-2.3,1.9l-0.7,0.4l-3.4-1.9
					c0.6-0.3,1.2-0.8,1.8-1.2c0.3-0.2,0.4-0.6,0.3-1c-0.2-0.3-0.3-0.6-0.6-0.9c-0.3-0.2-1-0.7-1.9-1.3l-5.9,3.4
					c1.2,0.9,2.2,1.5,2.8,2c0.5,0.5,1,1,1.4,1.6c0.2,0.6,0.2,1.2-0.2,1.8c-0.6,0.9-1.5,1.6-2.4,2c-1.3,0.8-2.8,1.3-4.4,1.5
					c-1.4,0.2-2.8,0-4.1-0.5c-1.5-0.5-3-1.2-4.3-2l-1.9,1.1l-2.2-1.2l1.9-1.1c-1.2-0.8-2.4-1.6-3.5-2.6c-0.6-0.5-0.9-1.4-0.5-2.2
					c0.3-0.8,1.3-1.6,3-2.6l3.3,1.9c-0.2,0.1-0.2,0.2-0.4,0.2c-0.9,0.5-1.4,1.1-1.3,1.5c0.1,0.4,0.6,0.9,1.6,1.5L1129.2-2904.8
					L1129.2-2904.8z M1137.3-2909.7l5.9-3.4l-0.6-0.4c-0.9-0.6-2-0.9-3.2-1.1c-1.1-0.1-2.2,0.2-3.1,0.9c-0.9,0.5-1.3,0.9-1.5,1.4
					c-0.1,0.5,0.1,0.9,0.4,1.2C1135.9-2910.7,1136.6-2910.2,1137.3-2909.7L1137.3-2909.7z M1131.3-2903.6l0.5,0.3
					c0.6,0.4,1.3,0.7,1.9,0.9c0.5,0.2,1.2,0.3,1.7,0.2c0.7-0.1,1.4-0.3,2.1-0.7c1.1-0.6,1.5-1.2,1.3-1.9c-0.2-0.6-1-1.2-2.3-2
					L1131.3-2903.6z"/>
				<path id="Path_67854" class="st5" d="M1120.9-2898.8c9.1,5.1,23.8,5.1,32.9-0.2c9.1-5.3,9-13.9-0.1-19s-23.8-5.1-32.9,0.2
					C1111.7-2912.6,1111.8-2904.1,1120.9-2898.8z M1151.4-2916.7c3.9,2.3,5.8,5.2,5.9,8.1c0,2.9-1.9,5.9-5.8,8.1
					c-3.8,2.2-9,3.4-14.1,3.4c-5.1,0-10.2-1-14.1-3.3c-3.9-2.3-5.8-5.2-5.9-8.1c-0.1-2.9,1.9-5.9,5.8-8.1c3.9-2.2,9-3.4,14.1-3.4
					C1142.4-2919.9,1147.5-2918.9,1151.4-2916.7z"/>
			</g>
			<g id="Group_38041">
				<path id="Path_67855" class="st3" d="M1114-2916.7l0.1,6.6v0.6l0.1,0.6l0.2,0.6l0.2,0.6l0.2,0.6l0.3,0.6l0.3,0.6l0.4,0.6
					l0.5,0.6l0.5,0.6l0.5,0.5l0.6,0.5l0.7,0.5l0.7,0.5l0.8,0.5l0.9,0.5l0.9,0.5l0.9,0.5l0.9,0.4l0.9,0.4l1,0.4l1,0.3l1,0.3l1,0.2
					l1.1,0.2l1.1,0.2l1.1,0.2l1.1,0.2l1.1,0.1l1.1,0.1l1.1,0.1h1.1h1.1l1.1-0.1l1.1-0.1l1.1-0.1l1.1-0.2l1.1-0.2l1.1-0.2l1.1-0.2
					l1-0.2l1-0.3l1-0.3l1-0.4l0.9-0.4l0.9-0.4l0.9-0.5l0.9-0.5l0.9-0.5l0.8-0.5l0.7-0.5l0.7-0.5l0.6-0.5l0.5-0.5l0.5-0.6l0.5-0.6
					l0.4-0.6l0.3-0.6l0.3-0.6l0.2-0.6l0.2-0.6l0.2-0.6l0.1-0.6v-0.6l-0.1-6.6v0.6l-0.1,0.6l-0.2,0.6l-0.2,0.6l-0.2,0.6l-0.3,0.6
					l-0.3,0.6l-0.4,0.6l-0.5,0.6l-0.5,0.6l-0.5,0.5l-0.6,0.5l-0.7,0.5l-0.7,0.5l-0.8,0.5l-0.9,0.5l-0.9,0.5l-0.9,0.5l-0.9,0.4
					l-0.9,0.4l-1,0.4l-1,0.3l-1,0.3l-1,0.2l-1.1,0.2l-1.1,0.2l-1.1,0.2l-1.1,0.2l-1.1,0.1l-1.1,0.1l-1.1,0.1h-1.1h-1.1l-1.1-0.1
					l-1.1-0.1l-1.1-0.1l-1.1-0.2l-1.1-0.2l-1.1-0.2l-1.1-0.2l-1-0.2l-1-0.3l-1-0.3l-1-0.4l-0.9-0.4l-0.9-0.4l-0.9-0.5l-0.9-0.5
					l-0.9-0.5l-0.8-0.5l-0.7-0.5l-0.7-0.5l-0.6-0.5l-0.5-0.5l-0.5-0.6l-0.5-0.6l-0.4-0.6l-0.3-0.6l-0.3-0.6l-0.2-0.6l-0.2-0.6
					l-0.2-0.6l-0.1-0.6V-2916.7z"/>
				<path id="Path_67856" class="st3" d="M1120.8-2907.2c9.1,5.1,23.8,5.1,32.9-0.2c9.1-5.3,9-13.9-0.1-19
					c-9.1-5.1-23.8-5.1-32.9,0.2C1111.6-2921,1111.7-2912.4,1120.8-2907.2z M1151.3-2925c3.9,2.3,5.8,5.2,5.9,8.1
					c0,2.9-1.9,5.9-5.8,8.1s-9,3.4-14.1,3.4s-10.2-1-14.1-3.3c-3.9-2.3-5.8-5.2-5.9-8.1c-0.1-2.9,1.9-5.9,5.8-8.1
					c3.8-2.2,9-3.4,14.1-3.4C1142.4-2928.3,1147.5-2927.2,1151.3-2925L1151.3-2925z"/>
				<path id="Path_67857" class="st3" d="M1120.8-2907.2c9.1,5.1,23.8,5.1,32.9-0.2c9.1-5.3,9-13.9-0.1-19
					c-9.1-5.1-23.8-5.1-32.9,0.2C1111.6-2921,1111.7-2912.4,1120.8-2907.2z"/>
				<path id="Path_67858" class="st3" d="M1151.3-2925v3l-0.8-0.4l-0.8-0.4l-0.8-0.4l-0.9-0.3l-0.9-0.3l-0.9-0.3l-0.9-0.2l-0.9-0.2
					l-0.9-0.2l-0.9-0.2l-0.9-0.2l-0.9-0.2l-0.9-0.1l-0.9-0.1l-0.9-0.1h-0.9v-3h0.9l0.9,0.1l0.9,0.1l0.9,0.1l0.9,0.2l0.9,0.2l0.9,0.2
					l0.9,0.2l0.9,0.2l0.9,0.2l0.9,0.3l0.9,0.3l0.9,0.3l0.8,0.4l0.8,0.4L1151.3-2925z"/>
				<path id="Path_67859" class="st3" d="M1137.3-2928.4v3h-0.9l-0.9,0.1l-0.9,0.1l-0.9,0.1l-0.9,0.2l-0.9,0.2l-0.9,0.2l-0.9,0.2
					l-0.9,0.2l-0.9,0.2l-0.9,0.3l-0.9,0.3l-0.8,0.3l-0.8,0.4l-0.8,0.4l-0.8,0.4v-3l0.8-0.4l0.8-0.4l0.8-0.4l0.8-0.3l0.9-0.3l0.9-0.3
					l0.9-0.2l0.9-0.2l0.9-0.2l0.9-0.2l0.9-0.2l0.9-0.2l0.9-0.1l0.9-0.1l0.9-0.1L1137.3-2928.4z"/>
				<path id="Path_67860" class="st3" d="M1123.2-2924.8v3l-0.7,0.4l-0.7,0.5l-0.6,0.5l-0.5,0.5l-0.5,0.5l-0.5,0.5l-0.5,0.5
					l-0.4,0.5l-0.3,0.5l-0.3,0.5l-0.2,0.5l-0.2,0.5l-0.2,0.5l-0.1,0.5l-0.1,0.5v0.5v-3v-0.5l0.1-0.5l0.1-0.5l0.2-0.5l0.2-0.5
					l0.2-0.5l0.3-0.5l0.3-0.5l0.4-0.5l0.5-0.5l0.5-0.5l0.5-0.5l0.5-0.5l0.6-0.5l0.7-0.5L1123.2-2924.8z"/>
				<path id="Path_67861" class="st3" d="M1157.3-2916.9v3v-0.5l-0.1-0.5l-0.1-0.5l-0.2-0.5l-0.2-0.5l-0.2-0.5l-0.3-0.5l-0.3-0.5
					l-0.4-0.5l-0.5-0.5l-0.5-0.5l-0.5-0.5l-0.5-0.5l-0.6-0.5l-0.6-0.5l-0.7-0.4v-3l0.7,0.5l0.6,0.5l0.6,0.5l0.5,0.5l0.5,0.5l0.5,0.5
					l0.5,0.5l0.4,0.5l0.3,0.5l0.3,0.5l0.2,0.5l0.2,0.5l0.2,0.5l0.1,0.5l0.1,0.5V-2916.9z"/>
				<path id="Path_67862" class="st4" d="M1151.3-2924.1c-3.9-2.3-9-3.3-14.1-3.3c-5.1,0-10.2,1.2-14.1,3.4
					c-3.9,2.3-5.8,5.2-5.8,8.1c0,2.9,1.9,5.9,5.9,8.1c3.9,2.2,9,3.3,14.1,3.3s10.2-1.2,14.1-3.4c3.9-2.3,5.8-5.2,5.8-8.1
					C1157.3-2918.9,1155.2-2921.9,1151.3-2924.1z"/>
				<path id="Path_67863" class="st5" d="M1150.3-2923.2v0.9l-2.1,1.2v-0.9L1150.3-2923.2z"/>
				<path id="Path_67864" class="st5" d="M1149.2-2912.9l-3.4-1.9v-0.9l3.4,1.9l0.7-0.4l0.4-0.2l0.4-0.2l0.3-0.2l0.3-0.2l0.3-0.2
					l0.2-0.2l0.2-0.2l0.2-0.2l0.2-0.2l0.1-0.2l0.1-0.2l0.1-0.2v-0.2v0.9v0.2l-0.1,0.2l-0.1,0.2l-0.1,0.2l-0.2,0.2l-0.2,0.2l-0.2,0.2
					l-0.2,0.2l-0.3,0.2l-0.3,0.2l-0.3,0.2l-0.4,0.2l-0.4,0.2L1149.2-2912.9z"/>
				<path id="Path_67865" class="st5" d="M1145.3-2919.2l-5.9,3.4v-0.9l5.9-3.4l0.3,0.2l0.3,0.2l0.3,0.2l0.2,0.2l0.2,0.2l0.2,0.2
					l0.2,0.2l0.2,0.1l0.2,0.1l0.1,0.1l0.1,0.1l0.1,0.1l0.1,0.1l0.1,0.1l0.1,0.1l0.1,0.1v0.1v0.2v0.9v-0.2v-0.1l-0.1-0.1l-0.1-0.1
					l-0.1-0.1l-0.1-0.1l-0.1-0.1l-0.1-0.1l-0.1-0.1l-0.2-0.1l-0.2-0.1l-0.2-0.2l-0.2-0.2l-0.2-0.2l-0.2-0.2l-0.3-0.2l-0.3-0.2
					L1145.3-2919.2z"/>
				<path id="Path_67866" class="st5" d="M1126.4-2908.2l-2.2-1.2v-0.9l2.2,1.2l1.9-1.1l0.5,0.3l0.5,0.3l0.5,0.3l0.5,0.2l0.5,0.2
					l0.5,0.2l0.5,0.2l0.5,0.2l0.5,0.2l0.5,0.2l0.5,0.1l0.5,0.1l0.5,0.1h0.5h0.5h0.5l0.5-0.1l0.5-0.1l0.5-0.2l0.5-0.2l0.5-0.2
					l0.5-0.2l0.5-0.3l0.5-0.3l0.5-0.2l0.4-0.2l0.4-0.2l0.3-0.2l0.3-0.2l0.2-0.2l0.2-0.2l0.2-0.2l0.2-0.2l0.1-0.2l0.1-0.2l0.1-0.2
					v0.9l-0.1,0.2l-0.1,0.2l-0.1,0.2l-0.2,0.2l-0.2,0.2l-0.2,0.2l-0.2,0.2l-0.3,0.2l-0.3,0.2l-0.4,0.2l-0.4,0.2l-0.5,0.2l-0.5,0.3
					l-0.5,0.3l-0.5,0.2l-0.5,0.2l-0.5,0.2l-0.5,0.2l-0.5,0.1l-0.5,0.1h-0.5h-0.5h-0.5l-0.5-0.1l-0.5-0.1l-0.5-0.1l-0.5-0.2l-0.5-0.2
					l-0.5-0.2l-0.5-0.2l-0.5-0.2l-0.5-0.2l-0.5-0.2l-0.5-0.3l-0.5-0.3l-0.5-0.3L1126.4-2908.2z"/>
				<path id="Path_67867" class="st5" d="M1122.5-2913.1l-0.2-0.2l-0.2-0.2l-0.2-0.2l-0.1-0.3l-0.1-0.3v-0.9l0.1,0.3l0.1,0.3
					l0.2,0.3l0.2,0.2l0.2,0.2l0.3,0.3l0.3,0.3l0.4,0.3l0.4,0.3l0.5,0.3l0.5,0.4l0.5,0.4l0.6,0.4v0.9l-0.6-0.4l-0.5-0.4l-0.5-0.3
					l-0.5-0.3l-0.4-0.3l-0.4-0.3l-0.3-0.3L1122.5-2913.1z"/>
				<path id="Path_67868" class="st5" d="M1128.3-2917v0.9l0,0l0,0h-0.1h-0.1h-0.1h-0.1h-0.1h-0.1l-0.3,0.2l-0.3,0.2l-0.2,0.2
					l-0.2,0.2l-0.2,0.2l-0.1,0.2l-0.1,0.2v-0.9l0.1-0.2l0.1-0.2l0.2-0.2l0.2-0.2l0.2-0.2l0.3-0.2l0.3-0.2h0.1h0.1h0.1h0.1
					L1128.3-2917L1128.3-2917L1128.3-2917L1128.3-2917z"/>
				<path id="Path_67869" class="st5" d="M1134.8-2919.7v0.2v-0.9v-0.2l0.1-0.2l0.1-0.2l0.2-0.2l0.2-0.2l0.2-0.2l0.2-0.2l0.2-0.2
					l0.3-0.2l0.4-0.2l0.4-0.2l0.4-0.2l0.4-0.2l0.4-0.1l0.4-0.1h0.4h0.4l0.4,0.1l0.4,0.1l0.4,0.1l0.4,0.2l0.4,0.2l0.4,0.2l0.4,0.2
					l0.4,0.2l0.7,0.4v0.9l-0.7-0.4l-0.4-0.2l-0.4-0.2l-0.4-0.2l-0.4-0.2l-0.4-0.2l-0.4-0.1l-0.4-0.1l-0.4-0.1h-0.4h-0.4l-0.4,0.1
					l-0.4,0.1l-0.4,0.2l-0.4,0.2l-0.4,0.2l-0.4,0.2l-0.3,0.2l-0.2,0.2l-0.2,0.2l-0.2,0.2l-0.2,0.2l-0.2,0.2l-0.1,0.2L1134.8-2919.7z
					"/>
				<path id="Path_67870" class="st5" d="M1136.6-2914.2l-5.4,3.1v-0.9l5.4-3.1l0.5,0.2l0.4,0.2l0.4,0.2l0.3,0.2l0.2,0.2l0.2,0.2
					l0.2,0.2l0.1,0.2l0.1,0.2v0.2v0.9v-0.2l-0.1-0.2l-0.1-0.2l-0.2-0.2l-0.2-0.2l-0.2-0.2l-0.3-0.2l-0.4-0.2l-0.4-0.2L1136.6-2914.2
					z"/>
				<path id="Path_67871" class="st5" d="M1134.5-2916.4v0.9l-0.5-0.4l-0.5-0.4l-0.5-0.3l-0.5-0.3l-0.4-0.3l-0.4-0.3l-0.4-0.3
					l-0.3-0.3l-0.3-0.3l-0.2-0.3l-0.2-0.3l-0.2-0.3l-0.1-0.3l-0.1-0.3v-0.3v-0.9v0.3l0.1,0.3l0.1,0.3l0.2,0.3l0.2,0.3l0.2,0.3
					l0.3,0.3l0.3,0.3l0.4,0.3l0.4,0.3l0.4,0.3l0.5,0.3l0.5,0.3l0.5,0.4L1134.5-2916.4z"/>
				<path id="Path_67872" class="st3" d="M1129.1-2913.2l5.5-3.1c-1.2-0.8-2.5-1.6-3.6-2.6c-0.7-0.5-1.1-1.4-0.9-2.3
					c0.2-0.9,1-1.6,2.5-2.6c1.3-0.8,2.8-1.4,4.4-1.7c1.3-0.2,2.7-0.2,4,0.2c1.6,0.5,3.2,1.1,4.7,1.9l0.6,0.4l2.1-1.2l2.2,1.2
					l-2.1,1.2c1,0.5,1.9,1.2,2.8,1.9c0.6,0.5,1.1,1.2,1.4,1.9c0.2,0.6,0.2,1.4-0.2,1.9c-0.6,0.9-1.4,1.5-2.3,1.9l-0.7,0.4l-3.4-1.9
					c0.6-0.3,1.2-0.8,1.8-1.2c0.3-0.2,0.4-0.6,0.3-1c-0.2-0.3-0.3-0.6-0.6-0.9c-0.3-0.2-1-0.7-1.9-1.3l-5.9,3.4
					c1.2,0.8,2.2,1.5,2.8,2c0.5,0.5,1,1,1.4,1.6c0.2,0.6,0.2,1.2-0.2,1.8c-0.6,0.9-1.5,1.6-2.4,2c-1.3,0.8-2.8,1.3-4.4,1.5
					c-1.4,0.2-2.8,0-4.1-0.5c-1.5-0.5-3-1.2-4.3-2l-1.9,1.1l-2.2-1.2l1.9-1.1c-1.2-0.8-2.4-1.6-3.5-2.6c-0.6-0.5-0.9-1.4-0.5-2.2
					c0.3-0.8,1.3-1.6,3-2.6l3.3,1.9c-0.2,0.1-0.2,0.2-0.4,0.2c-0.9,0.5-1.4,1.1-1.3,1.5c0.1,0.4,0.6,0.9,1.6,1.5L1129.1-2913.2
					L1129.1-2913.2z M1137.3-2918.1l5.9-3.4l-0.6-0.4c-0.9-0.6-2-1-3.2-1.1c-1.1-0.1-2.2,0.2-3.1,0.9c-0.9,0.5-1.3,0.9-1.5,1.4
					c-0.1,0.5,0.1,0.9,0.4,1.2C1135.9-2919.1,1136.6-2918.5,1137.3-2918.1L1137.3-2918.1z M1131.2-2912l0.5,0.3
					c0.6,0.4,1.3,0.7,1.9,0.9c0.5,0.2,1.2,0.3,1.7,0.2c0.7-0.1,1.4-0.3,2.1-0.7c1.1-0.6,1.5-1.2,1.3-1.9c-0.2-0.6-1-1.2-2.3-2
					L1131.2-2912z"/>
				<path id="Path_67873" class="st3" d="M1120.8-2907.2c9.1,5.1,23.8,5.1,32.9-0.2c9.1-5.3,9-13.9-0.1-19
					c-9.1-5.1-23.8-5.1-32.9,0.2C1111.6-2921,1111.7-2912.4,1120.8-2907.2z M1151.3-2925c3.9,2.3,5.8,5.2,5.9,8.1
					c0,2.9-1.9,5.9-5.8,8.1s-9,3.4-14.1,3.4s-10.2-1-14.1-3.3c-3.9-2.3-5.8-5.2-5.9-8.1c-0.1-2.9,1.9-5.9,5.8-8.1
					c3.8-2.2,9-3.4,14.1-3.4C1142.4-2928.3,1147.5-2927.2,1151.3-2925L1151.3-2925z"/>
			</g>
			<g id="Group_38042">
				<path id="Path_67874" class="st3" d="M1069.8-2876.1l0.1,6.6v0.6l0.1,0.6l0.2,0.6l0.2,0.6l0.2,0.6l0.3,0.6l0.3,0.6l0.4,0.6
					l0.5,0.6l0.5,0.6l0.5,0.5l0.6,0.5l0.7,0.5l0.7,0.5l0.8,0.5l0.9,0.5l0.9,0.5l0.9,0.5l0.9,0.4l0.9,0.4l1,0.4l1,0.3l1,0.3l1,0.2
					l1.1,0.2l1.1,0.2l1.1,0.2l1.1,0.2l1.1,0.1l1.1,0.1l1.1,0.1h1.1h1.1l1.1-0.1l1.1-0.1l1.1-0.1l1.1-0.2l1.1-0.2l1.1-0.2l1.1-0.2
					l1-0.2l1-0.3l1-0.3l1-0.4l0.9-0.4l0.9-0.4l0.9-0.5l0.9-0.5l0.9-0.5l0.8-0.5l0.7-0.5l0.7-0.5l0.6-0.5l0.5-0.5l0.5-0.6l0.5-0.6
					l0.4-0.6l0.3-0.6l0.3-0.6l0.2-0.6l0.2-0.6l0.2-0.6l0.1-0.6v-0.6l-0.1-6.6v0.6l-0.1,0.6l-0.2,0.6l-0.2,0.6l-0.2,0.6l-0.3,0.6
					l-0.3,0.6l-0.4,0.6l-0.5,0.6l-0.5,0.6l-0.5,0.5l-0.6,0.5l-0.7,0.5l-0.7,0.5l-0.8,0.5l-0.9,0.5l-0.9,0.5l-0.9,0.5l-0.9,0.4
					l-0.9,0.4l-1,0.4l-1,0.3l-1,0.3l-1,0.2l-1.1,0.2l-1.1,0.2l-1.1,0.2l-1.1,0.2l-1.1,0.1l-1.1,0.1l-1.1,0.1h-1.1h-1.1l-1.1-0.1
					l-1.1-0.1l-1.1-0.1l-1.1-0.2l-1.1-0.2l-1.1-0.2l-1.1-0.2l-1-0.2l-1-0.3l-1-0.3l-1-0.4l-0.9-0.4l-0.9-0.4l-0.9-0.5l-0.9-0.5
					l-0.9-0.5l-0.8-0.5l-0.7-0.5l-0.7-0.5l-0.6-0.5l-0.5-0.5l-0.5-0.6l-0.5-0.6l-0.4-0.6l-0.3-0.6l-0.3-0.6l-0.2-0.6l-0.2-0.6
					l-0.2-0.6l-0.1-0.6V-2876.1z"/>
				<path id="Path_67875" class="st3" d="M1076.7-2866.7c9.1,5.1,23.8,5.1,32.9-0.2s9-13.9-0.1-19s-23.8-5.1-32.9,0.2
					C1067.5-2880.4,1067.6-2871.9,1076.7-2866.7z M1107.1-2884.5c3.9,2.3,5.8,5.2,5.9,8.1c0.1,2.9-1.9,5.9-5.8,8.1
					c-3.8,2.2-9,3.4-14.1,3.4c-5.1,0-10.2-1-14.1-3.3c-3.9-2.3-5.8-5.2-5.9-8.1c0-2.9,1.9-5.9,5.8-8.1c3.8-2.2,9-3.4,14.1-3.4
					S1103.2-2886.8,1107.1-2884.5L1107.1-2884.5z"/>
				
					<ellipse id="Ellipse_2847" transform="matrix(1 -6.073317e-03 6.073317e-03 1 17.4893 6.5858)" class="st7" cx="1093.1" cy="-2876.4" rx="23.3" ry="13.5"/>
				<path id="Path_67876" class="st3" d="M1107.1-2884.5v3l-0.8-0.4l-0.8-0.4l-0.8-0.4l-0.9-0.3l-0.9-0.3l-0.9-0.3l-0.9-0.2
					l-0.9-0.2l-0.9-0.2l-0.9-0.2l-0.9-0.2l-0.9-0.2l-0.9-0.1l-0.9-0.1h-0.9h-0.9v-3h0.9l0.9,0.1l0.9,0.1l0.9,0.1l0.9,0.2l0.9,0.2
					l0.9,0.2l0.9,0.2l0.9,0.2l0.9,0.2l0.9,0.3l0.9,0.3l0.9,0.3l0.8,0.4l0.8,0.4L1107.1-2884.5z"/>
				<path id="Path_67877" class="st3" d="M1093-2887.8v3h-0.9h-0.9l-0.9,0.1l-0.9,0.1l-0.9,0.2l-0.9,0.2l-0.9,0.2l-0.9,0.2l-0.9,0.2
					l-0.9,0.2l-0.9,0.3l-0.9,0.3l-0.9,0.3l-0.8,0.4l-0.8,0.4l-0.8,0.4v-3l0.8-0.4l0.8-0.4l0.8-0.4l0.9-0.3l0.9-0.3l0.9-0.3l0.9-0.2
					l0.9-0.2l0.9-0.2l0.9-0.2l0.9-0.2l0.9-0.2l0.9-0.1l0.9-0.1l0.9-0.1L1093-2887.8z"/>
				<path id="Path_67878" class="st3" d="M1078.9-2884.4v3l-0.7,0.5l-0.6,0.5l-0.6,0.5l-0.5,0.5l-0.5,0.5l-0.5,0.5l-0.5,0.5
					l-0.4,0.5l-0.3,0.5l-0.3,0.5l-0.2,0.5l-0.2,0.5l-0.2,0.5l-0.1,0.5l-0.1,0.5v0.5v-3v-0.5l0.1-0.5l0.1-0.5l0.2-0.5l0.2-0.5
					l0.2-0.5l0.3-0.5l0.3-0.5l0.4-0.5l0.5-0.5l0.5-0.5l0.5-0.5l0.5-0.5l0.6-0.5l0.6-0.5L1078.9-2884.4z"/>
				<path id="Path_67879" class="st3" d="M1113-2876.4v3v-0.5l-0.1-0.5l-0.1-0.5l-0.2-0.5l-0.2-0.5l-0.2-0.5l-0.3-0.5l-0.3-0.5
					l-0.4-0.5l-0.5-0.5l-0.5-0.5l-0.5-0.5l-0.5-0.5l-0.6-0.5l-0.6-0.5l-0.7-0.5v-3l0.7,0.5l0.6,0.5l0.6,0.5l0.5,0.5l0.5,0.5l0.5,0.5
					l0.5,0.5l0.4,0.5l0.3,0.5l0.3,0.5l0.2,0.5l0.2,0.5l0.2,0.5l0.1,0.5l0.1,0.5V-2876.4z"/>
				<path id="Path_67880" class="st4" d="M1107.1-2883.6c-3.9-2.3-9-3.3-14.1-3.3s-10.2,1.2-14.1,3.4c-3.9,2.3-5.8,5.2-5.8,8.1
					c0,2.9,1.9,5.9,5.9,8.1c3.9,2.2,9,3.3,14.1,3.3c5.1,0,10.2-1.2,14.1-3.4c3.9-2.3,5.8-5.2,5.8-8.1
					C1113-2878.4,1111-2881.4,1107.1-2883.6z"/>
				<path id="Path_67881" class="st5" d="M1106.2-2882.7v0.9l-2.1,1.2v-0.9L1106.2-2882.7z"/>
				<path id="Path_67882" class="st5" d="M1105.1-2872.4l-3.4-1.9v-0.9l3.4,1.9l0.7-0.4l0.4-0.2l0.4-0.2l0.3-0.2l0.3-0.2l0.2-0.2
					l0.2-0.2l0.2-0.2l0.2-0.2l0.2-0.2l0.1-0.2l0.1-0.2l0.1-0.2v-0.2v0.9v0.2l-0.1,0.2l-0.1,0.2l-0.1,0.2l-0.2,0.2l-0.2,0.2l-0.2,0.2
					l-0.2,0.2l-0.2,0.2l-0.3,0.2l-0.3,0.2l-0.4,0.2l-0.4,0.2L1105.1-2872.4z"/>
				<path id="Path_67883" class="st5" d="M1101.2-2878.8l-5.9,3.4v-0.9l5.9-3.4l0.3,0.2l0.3,0.2l0.3,0.2l0.2,0.2l0.2,0.2l0.2,0.2
					l0.2,0.2l0.2,0.1l0.2,0.1l0.1,0.1l0.1,0.1l0.1,0.1l0.1,0.1l0.1,0.1l0.1,0.1l0.1,0.1v0.1v0.2v0.9v-0.1v-0.1l-0.1-0.1l-0.1-0.1
					l-0.1-0.1l-0.1-0.1l-0.1-0.1l-0.1-0.1l-0.1-0.1l-0.2-0.1l-0.2-0.1l-0.2-0.2l-0.2-0.2l-0.2-0.2l-0.2-0.2l-0.3-0.2l-0.3-0.2
					L1101.2-2878.8z"/>
				<path id="Path_67884" class="st5" d="M1082.2-2867.7l-2.2-1.2v-0.9l2.2,1.2l1.9-1.1l0.5,0.3l0.5,0.3l0.5,0.3l0.5,0.2l0.5,0.2
					l0.5,0.2l0.5,0.2l0.5,0.2l0.5,0.2l0.5,0.2l0.5,0.1l0.5,0.1l0.5,0.1h0.5h0.5h0.5l0.5-0.1l0.5-0.1l0.5-0.2l0.5-0.2l0.5-0.2
					l0.5-0.2l0.5-0.3l0.5-0.3l0.5-0.2l0.4-0.2l0.4-0.2l0.3-0.2l0.3-0.2l0.2-0.2l0.2-0.2l0.2-0.2l0.2-0.2l0.1-0.2l0.1-0.2l0.1-0.2
					v0.9l-0.1,0.2l-0.1,0.2l-0.1,0.2l-0.2,0.2l-0.2,0.2l-0.2,0.2l-0.2,0.2l-0.3,0.2l-0.3,0.2l-0.4,0.2l-0.4,0.2l-0.5,0.2l-0.5,0.3
					l-0.5,0.3l-0.5,0.2l-0.5,0.2l-0.5,0.2l-0.5,0.2l-0.5,0.1l-0.5,0.1h-0.5h-0.5h-0.5l-0.5-0.1l-0.5-0.1l-0.5-0.1l-0.5-0.2l-0.5-0.2
					l-0.5-0.2l-0.5-0.2l-0.5-0.2l-0.5-0.2l-0.5-0.2l-0.5-0.3l-0.5-0.3l-0.5-0.3L1082.2-2867.7z"/>
				<path id="Path_67885" class="st5" d="M1078.3-2872.6l-0.2-0.2l-0.2-0.2l-0.2-0.2l-0.1-0.3l-0.1-0.3v-0.9l0.1,0.3l0.1,0.3
					l0.2,0.3l0.2,0.2l0.2,0.2l0.3,0.2l0.3,0.3l0.4,0.3l0.4,0.3l0.5,0.3l0.5,0.3l0.5,0.4l0.6,0.4v0.9l-0.6-0.4l-0.5-0.4l-0.5-0.4
					l-0.5-0.3l-0.4-0.3l-0.4-0.3l-0.3-0.3L1078.3-2872.6z"/>
				<path id="Path_67886" class="st5" d="M1084.1-2876.4v0.9l0,0h-0.1h-0.1h-0.1h-0.1h-0.1h-0.1h-0.1l-0.3,0.2l-0.3,0.2l-0.2,0.2
					l-0.2,0.2l-0.2,0.2l-0.1,0.2l-0.1,0.2v-0.9l0.1-0.2l0.1-0.2l0.2-0.2l0.2-0.2l0.2-0.2l0.3-0.2l0.3-0.2h0.1h0.1h0.1h0.1h0.1
					L1084.1-2876.4L1084.1-2876.4L1084.1-2876.4z"/>
				<path id="Path_67887" class="st5" d="M1090.6-2879.2v0.2v-0.9v-0.2l0.1-0.2l0.1-0.2l0.2-0.2l0.2-0.2l0.2-0.2l0.2-0.2l0.2-0.2
					l0.3-0.2l0.4-0.2l0.4-0.2l0.4-0.2l0.4-0.2l0.4-0.1l0.4-0.1h0.4h0.4l0.4,0.1l0.4,0.1l0.4,0.1l0.4,0.2l0.4,0.2l0.4,0.2l0.4,0.2
					l0.4,0.2l0.6,0.4v0.9l-0.6-0.4l-0.4-0.2l-0.4-0.2l-0.4-0.2l-0.4-0.2l-0.4-0.2l-0.4-0.1l-0.4-0.1l-0.4-0.1h-0.4h-0.4l-0.4,0.1
					l-0.4,0.1l-0.4,0.2l-0.4,0.2l-0.4,0.2l-0.4,0.2l-0.3,0.2l-0.2,0.2l-0.2,0.2l-0.2,0.2l-0.2,0.2l-0.2,0.2l-0.1,0.2L1090.6-2879.2z
					"/>
				<path id="Path_67888" class="st5" d="M1092.4-2873.6l-5.4,3.1v-0.9l5.4-3.1l0.5,0.3l0.4,0.2l0.4,0.2l0.3,0.2l0.2,0.2l0.2,0.2
					l0.2,0.2l0.1,0.2l0.1,0.2v0.2v0.9v-0.2l-0.1-0.2l-0.1-0.2l-0.2-0.2l-0.2-0.2l-0.2-0.2l-0.3-0.2l-0.4-0.2l-0.4-0.2L1092.4-2873.6
					z"/>
				<path id="Path_67889" class="st5" d="M1090.3-2875.9v0.9l-0.5-0.4l-0.5-0.4l-0.5-0.3l-0.5-0.3l-0.5-0.3l-0.4-0.3l-0.4-0.3
					l-0.3-0.3l-0.3-0.3l-0.2-0.3l-0.2-0.3l-0.2-0.3l-0.1-0.3l-0.1-0.3v-0.3v-0.9v0.3l0.1,0.3l0.1,0.3l0.2,0.3l0.2,0.3l0.2,0.3
					l0.2,0.3l0.3,0.3l0.4,0.3l0.4,0.3l0.4,0.3l0.5,0.3l0.5,0.3l0.5,0.4L1090.3-2875.9z"/>
				<path id="Path_67890" class="st3" d="M1084.8-2872.8l5.5-3.1c-1.2-0.8-2.5-1.6-3.6-2.6c-0.7-0.5-1.1-1.4-0.9-2.3
					c0.2-0.8,1-1.6,2.5-2.6c1.3-0.8,2.8-1.4,4.4-1.7c1.3-0.2,2.7-0.2,4,0.2c1.6,0.5,3.2,1.1,4.7,1.9l0.6,0.4l2.1-1.2l2.2,1.2
					l-2.1,1.2c1,0.5,1.9,1.2,2.8,1.9c0.6,0.5,1.1,1.2,1.4,1.9c0.2,0.6,0.2,1.3-0.2,1.9c-0.6,0.9-1.4,1.5-2.3,1.9l-0.7,0.4l-3.4-1.9
					c0.6-0.3,1.2-0.8,1.8-1.2c0.3-0.2,0.4-0.6,0.3-1c-0.2-0.3-0.4-0.6-0.6-0.9c-0.3-0.2-1-0.7-1.9-1.3l-5.9,3.4
					c1.2,0.8,2.2,1.5,2.8,2c0.5,0.5,1,1,1.3,1.6c0.2,0.6,0.2,1.2-0.2,1.8c-0.6,0.9-1.5,1.6-2.4,2c-1.3,0.8-2.8,1.3-4.4,1.5
					c-1.4,0.2-2.8,0-4.1-0.5c-1.5-0.5-3-1.2-4.3-2l-1.9,1.1l-2.2-1.2l1.9-1.1c-1.2-0.8-2.4-1.6-3.5-2.6c-0.6-0.5-0.9-1.4-0.5-2.2
					c0.3-0.8,1.3-1.6,3-2.6l3.3,1.9c-0.2,0.1-0.2,0.2-0.4,0.2c-0.9,0.5-1.4,1.1-1.3,1.5s0.6,0.9,1.6,1.5L1084.8-2872.8
					L1084.8-2872.8z M1093.1-2877.6l5.9-3.4l-0.6-0.4c-0.9-0.6-2-0.9-3.2-1.1c-1.1-0.1-2.2,0.2-3.1,0.9c-0.9,0.5-1.3,0.9-1.5,1.4
					c-0.1,0.5,0.1,0.9,0.4,1.2C1091.7-2878.5,1092.4-2878,1093.1-2877.6L1093.1-2877.6z M1087-2871.5l0.5,0.3
					c0.6,0.4,1.3,0.7,1.9,0.9c0.5,0.2,1.2,0.3,1.7,0.2c0.7-0.1,1.4-0.3,2.1-0.7c1.1-0.6,1.5-1.2,1.2-1.9c-0.2-0.6-1-1.2-2.3-2
					L1087-2871.5z"/>
				<path id="Path_67891" class="st8" d="M1076.7-2866.7c9.1,5.1,23.8,5.1,32.9-0.2s9-13.9-0.1-19s-23.8-5.1-32.9,0.2
					C1067.5-2880.4,1067.6-2871.9,1076.7-2866.7z M1107.1-2884.5c3.9,2.3,5.8,5.2,5.9,8.1c0.1,2.9-1.9,5.9-5.8,8.1
					c-3.8,2.2-9,3.4-14.1,3.4c-5.1,0-10.2-1-14.1-3.3c-3.9-2.3-5.8-5.2-5.9-8.1c0-2.9,1.9-5.9,5.8-8.1c3.8-2.2,9-3.4,14.1-3.4
					S1103.2-2886.8,1107.1-2884.5L1107.1-2884.5z"/>
			</g>
			<g id="Group_38043">
				<path id="Path_67892" class="st3" d="M1072.1-2886.8l0.1,6.6v0.6l0.1,0.6l0.2,0.6l0.2,0.6l0.2,0.6l0.3,0.6l0.3,0.6l0.4,0.6
					l0.5,0.6l0.5,0.6l0.5,0.5l0.6,0.5l0.7,0.5l0.7,0.5l0.8,0.5l0.9,0.5l0.9,0.5l0.9,0.5l0.9,0.4l0.9,0.4l1,0.4l1,0.3l1,0.3l1,0.2
					l1.1,0.2l1.1,0.2l1.1,0.2l1.1,0.2l1.1,0.1l1.1,0.1l1.1,0.1h1.1h1.1l1.1-0.1l1.1-0.1l1.1-0.1l1.1-0.2l1.1-0.2l1.1-0.2l1.1-0.2
					l1-0.2l1-0.3l1-0.3l1-0.4l0.9-0.4l0.9-0.4l0.9-0.5l0.9-0.5l0.9-0.5l0.8-0.5l0.7-0.5l0.7-0.5l0.6-0.5l0.5-0.5l0.5-0.6l0.5-0.6
					l0.4-0.6l0.3-0.6l0.3-0.6l0.2-0.6l0.2-0.6l0.2-0.6l0.1-0.6v-0.6l-0.1-6.6v0.6l-0.1,0.6l-0.2,0.6l-0.2,0.6l-0.2,0.6l-0.3,0.6
					l-0.3,0.6l-0.4,0.6l-0.5,0.6l-0.5,0.6l-0.5,0.5l-0.6,0.5l-0.7,0.5l-0.7,0.5l-0.8,0.5l-0.9,0.5l-0.9,0.5l-0.9,0.5l-0.9,0.4
					l-0.9,0.4l-1,0.4l-1,0.3l-1,0.3l-1,0.2l-1.1,0.2l-1.1,0.2l-1.1,0.2l-1.1,0.2l-1.1,0.1l-1.1,0.1l-1.1,0.1h-1.1h-1.1l-1.1-0.1
					l-1.1-0.1l-1.1-0.1l-1.1-0.2l-1.1-0.2l-1.1-0.2l-1.1-0.2l-1-0.2l-1-0.3l-1-0.3l-1-0.4l-0.9-0.4l-0.9-0.4l-0.9-0.5l-0.9-0.5
					l-0.9-0.5l-0.8-0.5l-0.7-0.5l-0.7-0.5l-0.6-0.5l-0.5-0.5l-0.5-0.6l-0.5-0.6l-0.4-0.6l-0.3-0.6l-0.3-0.6l-0.2-0.6l-0.2-0.6
					l-0.2-0.6l-0.1-0.6V-2886.8z"/>
				<path id="Path_67893" class="st3" d="M1078.9-2877.3c9.1,5.1,23.8,5.1,32.9-0.2c9.1-5.3,9-13.9-0.1-19
					c-9.1-5.1-23.8-5.1-32.9,0.2C1069.7-2891,1069.8-2882.4,1078.9-2877.3L1078.9-2877.3z M1109.4-2895c3.9,2.3,5.8,5.2,5.9,8.1
					c0,2.9-1.9,5.9-5.8,8.1c-3.9,2.2-9,3.4-14.1,3.4c-5.1,0-10.2-1-14.1-3.3c-3.9-2.3-5.8-5.2-5.9-8.1c-0.1-2.9,1.9-5.9,5.8-8.1
					s9-3.4,14.1-3.4S1105.5-2897.3,1109.4-2895z"/>
				<path id="Path_67894" class="st3" d="M1078.9-2877.3c9.1,5.1,23.8,5.1,32.9-0.2c9.1-5.3,9-13.9-0.1-19
					c-9.1-5.1-23.8-5.1-32.9,0.2C1069.7-2891,1069.8-2882.4,1078.9-2877.3z"/>
				<path id="Path_67895" class="st3" d="M1109.4-2895v3l-0.8-0.4l-0.8-0.4l-0.8-0.4l-0.9-0.3l-0.9-0.3l-0.9-0.3l-0.9-0.2l-0.9-0.2
					l-0.9-0.2l-0.9-0.2l-0.9-0.2l-0.9-0.2l-0.9-0.1l-0.9-0.1l-0.9-0.1h-0.9v-3h0.9l0.9,0.1l0.9,0.1l0.9,0.1l0.9,0.2l0.9,0.2l0.9,0.2
					l0.9,0.2l0.9,0.2l0.9,0.2l0.9,0.3l0.9,0.3l0.9,0.3l0.8,0.4l0.8,0.4L1109.4-2895z"/>
				<path id="Path_67896" class="st3" d="M1095.3-2898.3v3h-0.9l-0.9,0.1l-0.9,0.1l-0.9,0.1l-0.9,0.2l-0.9,0.2l-0.9,0.2l-0.9,0.2
					l-0.9,0.2l-0.9,0.2l-0.9,0.3l-0.9,0.3l-0.9,0.3l-0.8,0.4l-0.8,0.4l-0.8,0.4v-3l0.8-0.4l0.8-0.4l0.8-0.4l0.9-0.3l0.9-0.3l0.9-0.3
					l0.9-0.2l0.9-0.2l0.9-0.2l0.9-0.2l0.9-0.2l0.9-0.2l0.9-0.1l0.9-0.1l0.9-0.1H1095.3z"/>
				<path id="Path_67897" class="st3" d="M1081.2-2894.9v3l-0.7,0.4l-0.6,0.5l-0.6,0.5l-0.5,0.5l-0.5,0.5l-0.5,0.5l-0.5,0.5
					l-0.4,0.5l-0.3,0.5l-0.3,0.5l-0.2,0.5l-0.2,0.5l-0.2,0.5l-0.1,0.5l-0.1,0.5v0.5v-3v-0.5l0.1-0.5l0.1-0.5l0.2-0.5l0.2-0.5
					l0.2-0.5l0.3-0.5l0.3-0.5l0.4-0.5l0.5-0.5l0.5-0.5l0.5-0.5l0.5-0.5l0.6-0.5l0.6-0.5L1081.2-2894.9z"/>
				<path id="Path_67898" class="st3" d="M1115.3-2887v3v-0.5l-0.1-0.5l-0.1-0.5l-0.2-0.5l-0.2-0.5l-0.2-0.5l-0.3-0.5l-0.3-0.5
					l-0.4-0.5l-0.5-0.5l-0.5-0.5l-0.5-0.5l-0.5-0.5l-0.6-0.5l-0.6-0.5l-0.7-0.4v-3l0.7,0.4l0.6,0.5l0.6,0.5l0.5,0.5l0.5,0.5l0.5,0.5
					l0.5,0.5l0.4,0.5l0.3,0.5l0.3,0.5l0.2,0.5l0.2,0.5l0.2,0.5l0.1,0.5l0.1,0.5V-2887z"/>
				<path id="Path_67899" class="st4" d="M1109.4-2894.1c-3.9-2.3-9-3.3-14.1-3.3s-10.2,1.2-14.1,3.4c-3.9,2.3-5.8,5.2-5.8,8.1
					c0.1,2.9,1.9,5.9,5.9,8.1c3.9,2.2,9,3.3,14.1,3.3c5.1,0,10.2-1.2,14.1-3.4c3.9-2.3,5.8-5.2,5.8-8.1
					C1115.2-2888.9,1113.3-2891.9,1109.4-2894.1z"/>
				<path id="Path_67900" class="st5" d="M1108.4-2893.2v0.9l-2.1,1.2v-0.9L1108.4-2893.2z"/>
				<path id="Path_67901" class="st5" d="M1107.3-2883l-3.4-1.9v-0.9l3.4,1.9l0.7-0.4l0.4-0.2l0.4-0.2l0.3-0.2l0.3-0.2l0.2-0.2
					l0.2-0.2l0.2-0.2l0.2-0.2l0.2-0.2l0.1-0.2l0.1-0.2l0.1-0.2v-0.2v0.9v0.2l-0.1,0.2l-0.1,0.2l-0.1,0.2l-0.2,0.2l-0.2,0.2l-0.2,0.2
					l-0.2,0.2l-0.2,0.2l-0.3,0.2l-0.3,0.2l-0.4,0.2l-0.4,0.2L1107.3-2883z"/>
				<path id="Path_67902" class="st5" d="M1103.5-2889.3l-5.9,3.4v-0.9l5.9-3.4l0.3,0.2l0.3,0.2l0.3,0.2l0.2,0.2l0.2,0.2l0.2,0.2
					l0.2,0.2l0.2,0.1l0.2,0.1l0.1,0.1l0.1,0.1l0.1,0.1l0.1,0.1l0.1,0.1l0.1,0.1l0.1,0.1v0.1v0.1v0.9v-0.2v-0.1l-0.1-0.1l-0.1-0.1
					l-0.1-0.1l-0.1-0.1l-0.1-0.1l-0.1-0.1l-0.1-0.1l-0.2-0.1l-0.2-0.1l-0.2-0.2l-0.2-0.2l-0.2-0.2l-0.2-0.2l-0.3-0.2l-0.3-0.2
					L1103.5-2889.3z"/>
				<path id="Path_67903" class="st5" d="M1084.5-2878.2l-2.2-1.2v-0.9l2.2,1.2l1.9-1.1l0.5,0.3l0.5,0.3l0.5,0.3l0.5,0.2l0.5,0.2
					l0.5,0.2l0.5,0.2l0.5,0.2l0.5,0.2l0.5,0.2l0.5,0.1l0.5,0.1l0.5,0.1h0.5h0.5h0.5l0.5-0.1l0.5-0.1l0.5-0.2l0.5-0.2l0.5-0.2
					l0.5-0.2l0.5-0.3l0.5-0.3l0.5-0.2l0.4-0.2l0.4-0.2l0.3-0.2l0.3-0.2l0.2-0.2l0.2-0.2l0.2-0.2l0.2-0.2l0.1-0.2l0.1-0.2l0.1-0.2
					v0.9l-0.1,0.2l-0.1,0.2l-0.1,0.2l-0.2,0.2l-0.2,0.2l-0.2,0.2l-0.2,0.2l-0.3,0.2l-0.3,0.2l-0.4,0.2l-0.4,0.2l-0.5,0.2l-0.5,0.3
					l-0.5,0.3l-0.5,0.2l-0.5,0.2l-0.5,0.2l-0.5,0.2l-0.5,0.1l-0.5,0.1h-0.5h-0.5h-0.5l-0.5-0.1l-0.5-0.1l-0.5-0.1l-0.5-0.2l-0.5-0.2
					l-0.5-0.2l-0.5-0.2l-0.5-0.2l-0.5-0.2l-0.5-0.2l-0.5-0.3l-0.5-0.3l-0.5-0.3L1084.5-2878.2z"/>
				<path id="Path_67904" class="st5" d="M1080.6-2883.1l-0.2-0.2l-0.2-0.2l-0.2-0.2l-0.1-0.3l-0.1-0.3v-0.9l0.1,0.3l0.1,0.3
					l0.2,0.2l0.2,0.2l0.2,0.2l0.3,0.3l0.3,0.3l0.4,0.3l0.4,0.3l0.5,0.3l0.5,0.4l0.5,0.4l0.6,0.4v0.9l-0.6-0.4l-0.5-0.4l-0.5-0.3
					l-0.5-0.3l-0.4-0.3l-0.4-0.3l-0.3-0.3L1080.6-2883.1z"/>
				<path id="Path_67905" class="st5" d="M1086.3-2887.1v0.9l0,0h-0.1h-0.1h-0.1h-0.1h-0.1h-0.1h-0.1l-0.3,0.2l-0.3,0.2l-0.2,0.2
					l-0.2,0.2l-0.2,0.2l-0.1,0.2l-0.1,0.2v-0.9l0.1-0.2l0.1-0.2l0.2-0.2l0.2-0.2l0.2-0.2l0.3-0.2l0.3-0.2h0.1h0.1h0.1h0.1h0.1
					L1086.3-2887.1L1086.3-2887.1L1086.3-2887.1z"/>
				<path id="Path_67906" class="st5" d="M1092.9-2889.8v0.2v-0.9v-0.2l0.1-0.2l0.1-0.2l0.2-0.2l0.2-0.2l0.2-0.2l0.2-0.2l0.2-0.2
					l0.3-0.2l0.4-0.2l0.4-0.2l0.4-0.2l0.4-0.2l0.4-0.1l0.4-0.1h0.4h0.4l0.4,0.1l0.4,0.1l0.4,0.1l0.4,0.2l0.4,0.2l0.4,0.2l0.4,0.2
					l0.4,0.2l0.6,0.4v0.9l-0.6-0.4l-0.4-0.2l-0.4-0.2l-0.4-0.2l-0.4-0.2l-0.4-0.2l-0.4-0.1l-0.4-0.1l-0.4-0.1h-0.4h-0.4l-0.4,0.1
					l-0.4,0.1l-0.4,0.2l-0.4,0.2l-0.4,0.2l-0.4,0.2l-0.3,0.2l-0.2,0.2l-0.2,0.2l-0.2,0.2l-0.2,0.2l-0.2,0.2l-0.1,0.2L1092.9-2889.8z
					"/>
				<path id="Path_67907" class="st5" d="M1094.6-2884.2l-5.4,3.1v-0.9l5.4-3.1l0.5,0.3l0.4,0.2l0.4,0.2l0.3,0.2l0.2,0.2l0.2,0.2
					l0.2,0.2l0.1,0.2l0.1,0.2v0.2v0.9v-0.2l-0.1-0.2l-0.1-0.2l-0.2-0.2l-0.2-0.2l-0.2-0.2l-0.3-0.2l-0.4-0.2l-0.4-0.2L1094.6-2884.2
					z"/>
				<path id="Path_67908" class="st5" d="M1092.5-2886.5v0.9l-0.5-0.4l-0.5-0.4l-0.5-0.3l-0.5-0.3l-0.4-0.3l-0.4-0.3l-0.4-0.3
					l-0.3-0.3l-0.3-0.3l-0.2-0.3l-0.2-0.3l-0.2-0.3l-0.1-0.3l-0.1-0.3v-0.3v-0.9v0.3l0.1,0.3l0.1,0.3l0.2,0.3l0.2,0.3l0.2,0.3
					l0.2,0.3l0.3,0.3l0.4,0.3l0.4,0.3l0.4,0.3l0.5,0.3l0.5,0.3l0.5,0.4L1092.5-2886.5z"/>
				<path id="Path_67909" class="st3" d="M1087.1-2883.3l5.5-3.1c-1.2-0.8-2.5-1.6-3.6-2.6c-0.7-0.5-1.1-1.4-0.9-2.3
					c0.2-0.9,1-1.6,2.5-2.6c1.3-0.8,2.8-1.4,4.4-1.7c1.3-0.2,2.7-0.2,4,0.2c1.6,0.5,3.2,1.1,4.7,1.9l0.6,0.4l2.1-1.2l2.2,1.2
					l-2.1,1.2c1,0.5,1.9,1.2,2.8,1.9c0.6,0.5,1.1,1.2,1.4,1.9c0.2,0.6,0.2,1.3-0.2,1.9c-0.6,0.9-1.4,1.5-2.3,1.9l-0.7,0.4l-3.4-1.9
					c0.6-0.3,1.2-0.8,1.8-1.2c0.3-0.2,0.4-0.6,0.3-0.9c-0.2-0.3-0.4-0.6-0.6-0.9c-0.3-0.2-1-0.7-1.9-1.3l-5.9,3.4
					c1.2,0.8,2.2,1.5,2.8,2c0.5,0.5,1,1,1.3,1.6c0.2,0.6,0.2,1.2-0.2,1.8c-0.6,0.9-1.5,1.6-2.4,2c-1.3,0.9-2.8,1.3-4.4,1.5
					c-1.4,0.2-2.8,0-4.1-0.5c-1.5-0.5-3-1.2-4.3-2l-1.9,1.1l-2.2-1.2l1.9-1.1c-1.2-0.8-2.4-1.6-3.5-2.6c-0.6-0.5-0.9-1.4-0.5-2.2
					c0.3-0.8,1.3-1.6,3-2.6l3.3,1.9c-0.2,0.1-0.2,0.2-0.4,0.2c-0.9,0.5-1.4,1.1-1.3,1.5c0.1,0.4,0.6,0.9,1.6,1.5L1087.1-2883.3
					L1087.1-2883.3z M1095.4-2888.1l5.9-3.4l-0.6-0.4c-0.9-0.6-2-0.9-3.2-1.1c-1.1-0.1-2.2,0.2-3.1,0.9c-0.9,0.5-1.3,0.9-1.5,1.4
					c-0.1,0.5,0.1,0.9,0.5,1.2C1094-2889,1094.7-2888.6,1095.4-2888.1L1095.4-2888.1z M1089.3-2882l0.5,0.3c0.6,0.4,1.3,0.7,1.9,0.9
					c0.5,0.2,1.2,0.3,1.7,0.2c0.7-0.1,1.4-0.3,2.1-0.7c1.1-0.6,1.5-1.2,1.2-1.9c-0.2-0.6-1-1.2-2.3-2L1089.3-2882z"/>
				<path id="Path_67910" class="st3" d="M1078.9-2877.3c9.1,5.1,23.8,5.1,32.9-0.2c9.1-5.3,9-13.9-0.1-19
					c-9.1-5.1-23.8-5.1-32.9,0.2C1069.7-2891,1069.8-2882.4,1078.9-2877.3L1078.9-2877.3z M1109.4-2895c3.9,2.3,5.8,5.2,5.9,8.1
					c0,2.9-1.9,5.9-5.8,8.1c-3.9,2.2-9,3.4-14.1,3.4c-5.1,0-10.2-1-14.1-3.3c-3.9-2.3-5.8-5.2-5.9-8.1c-0.1-2.9,1.9-5.9,5.8-8.1
					s9-3.4,14.1-3.4S1105.5-2897.3,1109.4-2895z"/>
			</g>
			<path id="Path_67911" class="st3" d="M1118.7-2887l0.1,6.6v0.6l-0.1,0.6l-0.2,0.6l-0.2,0.6l-0.2,0.6l-0.3,0.6l-0.3,0.6l-0.4,0.6
				l-0.5,0.6l-0.5,0.6l-0.5,0.5l-0.6,0.5l-0.7,0.5l-0.7,0.5l-0.8,0.5l-0.9,0.5l-0.9,0.5l-0.9,0.5l-0.9,0.4l-0.9,0.4l-1,0.4l-1,0.3
				l-1,0.3l-1,0.2l-1.1,0.2l-1.1,0.2l-1.1,0.2l-1.1,0.2l-1.1,0.1l-1.1,0.1l-1.1,0.1h-1.1h-1.1l-1.1-0.1l-1.1-0.1l-1.1-0.1l-1.1-0.2
				l-1.1-0.2l-1.1-0.2l-1.1-0.2l-1-0.2l-1-0.3l-1-0.3l-1-0.4l-0.9-0.4l-0.9-0.4l-0.9-0.5l-0.9-0.5l-0.9-0.5l-0.8-0.5l-0.7-0.5
				l-0.7-0.5l-0.6-0.5l-0.5-0.5l-0.5-0.6l-0.5-0.6l-0.4-0.6l-0.3-0.6l-0.3-0.6l-0.2-0.6l-0.2-0.6l-0.2-0.6l-0.1-0.6v-0.6l-0.1-6.6
				v0.6l0.1,0.6l0.2,0.6l0.2,0.6l0.2,0.6l0.3,0.6l0.3,0.6l0.4,0.6l0.5,0.6l0.5,0.6l0.5,0.5l0.6,0.5l0.7,0.5l0.7,0.5l0.8,0.5l0.9,0.5
				l0.9,0.5l0.9,0.5l0.9,0.4l0.9,0.4l1,0.4l1,0.3l1,0.3l1,0.2l1.1,0.2l1.1,0.2l1.1,0.2l1.1,0.2l1.1,0.1l1.1,0.1l1.1,0.1h1.1h1.1
				l1.1-0.1l1.1-0.1l1.1-0.1l1.1-0.2l1.1-0.2l1.1-0.2l1.1-0.2l1-0.2l1-0.3l1-0.3l1-0.4l0.9-0.4l0.9-0.4l0.9-0.5l0.9-0.5l0.9-0.5
				l0.8-0.5l0.7-0.5l0.7-0.5l0.6-0.5l0.5-0.5l0.5-0.6l0.5-0.6l0.4-0.6l0.3-0.6l0.3-0.6l0.2-0.6l0.2-0.6l0.2-0.6l0.1-0.6V-2887z"/>
			<path id="Path_67912" class="st9" d="M1074.4-2874.3l-0.1-6.6l0.4,0.4l0.5,0.5l0.6,0.5l0.7,0.5l0.7,0.5l0.8,0.5l0.9,0.5l0.9,0.5
				l0.9,0.5l0.9,0.4l0.9,0.4l1,0.4l1,0.3l1,0.3l1,0.2l0.4,0.1l0.1,6.6l-0.4-0.1l-1-0.2l-1-0.3l-1-0.3l-1-0.4l-0.9-0.4l-0.9-0.4
				l-0.9-0.5l-0.9-0.5l-0.9-0.5l-0.8-0.5l-0.7-0.5l-0.7-0.5l-0.6-0.5l-0.5-0.5L1074.4-2874.3z"/>
			<path id="Path_67913" class="st3" d="M1116.5-2876.5l0.1,6.6v0.6l-0.1,0.6l-0.2,0.6l-0.2,0.6l-0.2,0.6l-0.3,0.6l-0.3,0.6
				l-0.4,0.6l-0.5,0.6l-0.5,0.6l-0.5,0.5l-0.6,0.5l-0.7,0.5l-0.7,0.5l-0.8,0.5l-0.9,0.5l-0.9,0.5l-0.9,0.5l-0.9,0.4l-0.9,0.4l-1,0.4
				l-1,0.3l-1,0.3l-1,0.2l-1.1,0.2l-1.1,0.2l-1.1,0.2l-1.1,0.2l-1.1,0.1l-1.1,0.1l-1.1,0.1h-1.1h-1.1l-1.1-0.1l-1.1-0.1l-1.1-0.1
				l-1.1-0.2l-1.1-0.2l-1.1-0.2l-1.1-0.2l-1-0.2l-1-0.3l-1-0.3l-1-0.4l-0.9-0.4l-0.9-0.4l-0.9-0.5l-0.9-0.5l-0.9-0.5l-0.8-0.5
				l-0.7-0.5l-0.7-0.5l-0.6-0.5l-0.5-0.5l-0.5-0.6l-0.5-0.6l-0.4-0.6l-0.3-0.6l-0.3-0.6l-0.2-0.6l-0.2-0.6l-0.2-0.6l-0.1-0.6v-0.6
				l-0.1-6.6v0.6l0.1,0.6l0.2,0.6l0.2,0.6l0.2,0.6l0.3,0.6l0.3,0.6l0.4,0.6l0.5,0.6l0.5,0.6l0.5,0.5l0.6,0.5l0.7,0.5l0.7,0.5
				l0.8,0.5l0.9,0.5l0.9,0.5l0.9,0.5l0.9,0.4l0.9,0.4l1,0.4l1,0.3l1,0.3l1,0.2l1.1,0.2l1.1,0.2l1.1,0.2l1.1,0.2l1.1,0.1l1.1,0.1
				l1.1,0.1h1.1h1.1l1.1-0.1l1.1-0.1l1.1-0.1l1.1-0.2l1.1-0.2l1.1-0.2l1.1-0.2l1-0.2l1-0.3l1-0.3l1-0.4l0.9-0.4l0.9-0.4l0.9-0.5
				l0.9-0.5l0.9-0.5l0.8-0.5l0.7-0.5l0.7-0.5l0.6-0.5l0.5-0.5l0.5-0.6l0.5-0.6l0.4-0.6l0.3-0.6l0.3-0.6l0.2-0.6l0.2-0.6l0.2-0.6
				l0.1-0.6V-2876.5z"/>
			<path id="Path_67914" class="st3" d="M1160.6-2916.9l0.1,6.6v0.6l-0.1,0.6l-0.2,0.6l-0.2,0.6l-0.2,0.6l-0.3,0.6l-0.3,0.6
				l-0.4,0.6l-0.5,0.6l-0.5,0.6l-0.5,0.5l-0.6,0.5l-0.7,0.5l-0.7,0.5l-0.8,0.5l-0.9,0.5l-0.9,0.5l-0.9,0.5l-0.9,0.4l-0.9,0.4l-1,0.4
				l-1,0.3l-1,0.3l-1,0.2l-1.1,0.2l-1.1,0.2l-1.1,0.2l-1.1,0.2l-1.1,0.1l-1.1,0.1l-1.1,0.1h-1.1h-1.1l-1.1-0.1l-1.1-0.1l-1.1-0.1
				l-1.1-0.2l-1.1-0.2l-1.1-0.2l-1.1-0.2l-1-0.2l-1-0.3l-1-0.3l-1-0.4l-0.9-0.4l-0.9-0.4l-0.9-0.5l-0.9-0.5l-0.9-0.5l-0.8-0.5
				l-0.7-0.5l-0.7-0.5l-0.6-0.5l-0.5-0.5l-0.5-0.6l-0.5-0.6l-0.4-0.6l-0.3-0.6l-0.3-0.6l-0.2-0.6l-0.2-0.6l-0.2-0.6l-0.1-0.6v-0.6
				l-0.1-6.6v0.6l0.1,0.6l0.2,0.6l0.2,0.6l0.2,0.6l0.3,0.6l0.3,0.6l0.4,0.6l0.5,0.6l0.5,0.6l0.5,0.5l0.6,0.5l0.7,0.5l0.7,0.5
				l0.8,0.5l0.9,0.5l0.9,0.5l0.9,0.5l0.9,0.4l0.9,0.4l1,0.4l1,0.3l1,0.3l1,0.2l1.1,0.2l1.1,0.2l1.1,0.2l1.1,0.2l1.1,0.1l1.1,0.1
				l1.1,0.1h1.1h1.1l1.1-0.1l1.1-0.1l1.1-0.1l1.1-0.2l1.1-0.2l1.1-0.2l1.1-0.2l1-0.2l1-0.3l1-0.3l1-0.4l0.9-0.4l0.9-0.4l0.9-0.5
				l0.9-0.5l0.9-0.5l0.8-0.5l0.7-0.5l0.7-0.5l0.6-0.5l0.5-0.5l0.5-0.6l0.5-0.6l0.4-0.6l0.3-0.6l0.3-0.6l0.2-0.6l0.2-0.6l0.2-0.6
				l0.1-0.6V-2916.9z"/>
			<path id="Path_67915" class="st9" d="M1116.4-2904.2l-0.1-6.6l0.4,0.4l0.5,0.5l0.6,0.5l0.7,0.5l0.7,0.5l0.8,0.5l0.9,0.5l0.9,0.5
				l0.9,0.5l0.9,0.4l0.9,0.4l1,0.4l1,0.3l1,0.3l1,0.2l0.4,0.1l0.1,6.6l-0.4-0.1l-1-0.2l-1-0.3l-1-0.3l-1-0.4l-0.9-0.4l-0.9-0.4
				l-0.9-0.5l-0.9-0.5l-0.9-0.5l-0.8-0.5l-0.7-0.5l-0.7-0.5l-0.6-0.5l-0.5-0.5L1116.4-2904.2z"/>
			<path id="Path_67916" class="st8" d="M1159.3-2905.6l-0.2,0.4l-0.5,0.6l-0.5,0.6l-0.5,0.5l-0.6,0.5l-0.7,0.5l-0.7,0.5l-0.8,0.5
				l-0.9,0.5l-0.9,0.5l-0.9,0.5l-0.9,0.4l-0.9,0.4l-1,0.4l-0.2,0.1l-0.1-6.6l0.2-0.1l1-0.4l0.9-0.4l0.9-0.4l0.9-0.5l0.9-0.5l0.9-0.5
				l0.8-0.5l0.7-0.5l0.7-0.5l0.6-0.5l0.5-0.5l0.5-0.6l0.5-0.6l0.2-0.4L1159.3-2905.6z"/>
			<path id="Path_67917" class="st3" d="M1160.6-2908.6l0.1,6.6v0.6l-0.1,0.6l-0.2,0.6l-0.2,0.6l-0.2,0.6l-0.3,0.6l-0.3,0.6
				l-0.4,0.6l-0.5,0.6l-0.5,0.6l-0.5,0.5l-0.6,0.5l-0.7,0.5l-0.7,0.5l-0.8,0.5l-0.9,0.5l-0.9,0.5l-0.9,0.5l-0.9,0.4l-0.9,0.4l-1,0.4
				l-1,0.3l-1,0.3l-1,0.2l-1.1,0.2l-1.1,0.2l-1.1,0.2l-1.1,0.2l-1.1,0.1l-1.1,0.1l-1.1,0.1h-1.1h-1.1l-1.1-0.1l-1.1-0.1l-1.1-0.1
				l-1.1-0.2l-1.1-0.2l-1.1-0.2l-1.1-0.2l-1-0.2l-1-0.3l-1-0.3l-1-0.4l-0.9-0.4l-0.9-0.4l-0.9-0.5l-0.9-0.5l-0.9-0.5l-0.8-0.5
				l-0.7-0.5l-0.7-0.5l-0.6-0.5l-0.5-0.5l-0.5-0.6l-0.5-0.6l-0.4-0.6l-0.3-0.6l-0.3-0.6l-0.2-0.6l-0.2-0.6l-0.2-0.6l-0.1-0.6v-0.6
				l-0.1-6.6v0.6l0.1,0.6l0.2,0.6l0.2,0.6l0.2,0.6l0.3,0.6l0.3,0.6l0.4,0.6l0.5,0.6l0.5,0.6l0.5,0.5l0.6,0.5l0.7,0.5l0.7,0.5
				l0.8,0.5l0.9,0.5l0.9,0.5l0.9,0.5l0.9,0.4l0.9,0.4l1,0.4l1,0.3l1,0.3l1,0.2l1.1,0.2l1.1,0.2l1.1,0.2l1.1,0.2l1.1,0.1l1.1,0.1
				l1.1,0.1h1.1h1.1l1.1-0.1l1.1-0.1l1.1-0.1l1.1-0.2l1.1-0.2l1.1-0.2l1.1-0.2l1-0.2l1-0.3l1-0.3l1-0.4l0.9-0.4l0.9-0.4l0.9-0.5
				l0.9-0.5l0.9-0.5l0.8-0.5l0.7-0.5l0.7-0.5l0.6-0.5l0.5-0.5l0.5-0.6l0.5-0.6l0.4-0.6l0.3-0.6l0.3-0.6l0.2-0.6l0.2-0.6l0.2-0.6
				l0.1-0.6V-2908.6z"/>
			<path id="Path_67918" class="st9" d="M1116.4-2896l-0.1-6.6l0.4,0.5l0.5,0.5l0.6,0.5l0.7,0.5l0.7,0.5l0.8,0.5l0.9,0.5l0.9,0.5
				l0.9,0.5l0.9,0.4l0.9,0.4l1,0.4l1,0.3l1,0.3l1,0.2l0.4,0.1l0.1,6.6l-0.4-0.1l-1-0.2l-1-0.3l-1-0.3l-1-0.4l-0.9-0.4l-0.9-0.4
				l-0.9-0.5l-0.9-0.5l-0.9-0.5l-0.8-0.5l-0.7-0.5l-0.7-0.5l-0.6-0.5l-0.5-0.5L1116.4-2896z"/>
			<path id="Path_67919" class="st8" d="M1159.3-2897.3l-0.2,0.4l-0.5,0.6l-0.5,0.6l-0.5,0.5l-0.6,0.5l-0.7,0.5l-0.7,0.5l-0.8,0.5
				l-0.9,0.5l-0.9,0.5l-0.9,0.5l-0.9,0.4l-0.9,0.4l-1,0.4l-0.2,0.1l-0.1-6.6l0.2-0.1l1-0.4l0.9-0.4l0.9-0.4l0.9-0.5l0.9-0.5l0.9-0.5
				l0.8-0.5l0.7-0.5l0.7-0.5l0.6-0.5l0.5-0.5l0.5-0.6l0.5-0.6l0.2-0.4L1159.3-2897.3z"/>
			<path id="Path_67920" class="st3" d="M1160.7-2900.2l0.1,6.6v0.6l-0.1,0.6l-0.2,0.6l-0.2,0.6l-0.2,0.6l-0.3,0.6l-0.3,0.6
				l-0.4,0.6l-0.5,0.6l-0.5,0.6l-0.5,0.5l-0.6,0.5l-0.7,0.5l-0.7,0.5l-0.8,0.5l-0.9,0.5l-0.9,0.5l-0.9,0.5l-0.9,0.4l-0.9,0.4l-1,0.4
				l-1,0.3l-1,0.3l-1,0.2l-1.1,0.2l-1.1,0.2l-1.1,0.2l-1.1,0.2l-1.1,0.1l-1.1,0.1l-1.1,0.1h-1.1h-1.1l-1.1-0.1l-1.1-0.1l-1.1-0.1
				l-1.1-0.2l-1.1-0.2l-1.1-0.2l-1.1-0.2l-1-0.2l-1-0.3l-1-0.3l-1-0.4l-0.9-0.4l-0.9-0.4l-0.9-0.5l-0.9-0.5l-0.9-0.5l-0.8-0.5
				l-0.7-0.5l-0.7-0.5l-0.6-0.5l-0.5-0.5l-0.5-0.6l-0.5-0.6l-0.4-0.6l-0.3-0.6l-0.3-0.6l-0.2-0.6l-0.2-0.6l-0.2-0.6l-0.1-0.6v-0.6
				l-0.1-6.6v0.6l0.1,0.6l0.2,0.6l0.2,0.6l0.2,0.6l0.3,0.6l0.3,0.6l0.4,0.6l0.5,0.6l0.5,0.6l0.5,0.5l0.6,0.5l0.7,0.5l0.7,0.5
				l0.8,0.5l0.9,0.5l0.9,0.5l0.9,0.5l0.9,0.4l0.9,0.4l1,0.4l1,0.3l1,0.3l1,0.2l1.1,0.2l1.1,0.2l1.1,0.2l1.1,0.2l1.1,0.1l1.1,0.1
				l1.1,0.1h1.1h1.1l1.1-0.1l1.1-0.1l1.1-0.1l1.1-0.2l1.1-0.2l1.1-0.2l1.1-0.2l1-0.2l1-0.3l1-0.3l1-0.4l0.9-0.4l0.9-0.4l0.9-0.5
				l0.9-0.5l0.9-0.5l0.8-0.5l0.7-0.5l0.7-0.5l0.6-0.5l0.5-0.5l0.5-0.6l0.5-0.6l0.4-0.6l0.3-0.6l0.3-0.6l0.2-0.6l0.2-0.6l0.2-0.6
				l0.1-0.6V-2900.2z"/>
			<path id="Path_67921" class="st9" d="M1116.5-2887.5l-0.1-6.6l0.4,0.4l0.5,0.5l0.6,0.5l0.7,0.5l0.7,0.5l0.8,0.5l0.9,0.5l0.9,0.5
				l0.9,0.5l0.9,0.4l0.9,0.4l1,0.4l1,0.3l1,0.3l1,0.2l0.4,0.1l0.1,6.6l-0.4-0.1l-1-0.2l-1-0.3l-1-0.3l-1-0.4l-0.9-0.4l-0.9-0.4
				l-0.9-0.5l-0.9-0.5l-0.9-0.5l-0.8-0.5l-0.7-0.5l-0.7-0.5l-0.6-0.5l-0.5-0.5L1116.5-2887.5z"/>
			<path id="Path_67922" class="st8" d="M1159.4-2888.9l-0.2,0.4l-0.5,0.6l-0.5,0.6l-0.5,0.5l-0.6,0.5l-0.7,0.5l-0.7,0.5l-0.8,0.5
				l-0.9,0.5l-0.9,0.5l-0.9,0.5l-0.9,0.4l-0.9,0.4l-1,0.4l-0.2,0.1l-0.1-6.6l0.2-0.1l1-0.4l0.9-0.4l0.9-0.4l0.9-0.5l0.9-0.5l0.9-0.5
				l0.8-0.5l0.7-0.5l0.7-0.5l0.6-0.5l0.5-0.5l0.5-0.6l0.5-0.6l0.2-0.4L1159.4-2888.9z"/>
			<path id="Path_67923" class="st3" d="M1160.8-2891.8l0.1,6.6v0.6l-0.1,0.6l-0.2,0.6l-0.2,0.6l-0.2,0.6l-0.3,0.6l-0.3,0.6
				l-0.4,0.6l-0.5,0.6l-0.5,0.6l-0.5,0.5l-0.6,0.5l-0.7,0.5l-0.7,0.5l-0.8,0.5l-0.9,0.5l-0.9,0.5l-0.9,0.5l-0.9,0.4l-0.9,0.4l-1,0.4
				l-1,0.3l-1,0.3l-1,0.2l-1.1,0.2l-1.1,0.2l-1.1,0.2l-1.1,0.2l-1.1,0.1l-1.1,0.1l-1.1,0.1h-1.1h-1.1l-1.1-0.1l-1.1-0.1l-1.1-0.1
				l-1.1-0.2l-1.1-0.2l-1.1-0.2l-1.1-0.2l-1-0.2l-1-0.3l-1-0.3l-1-0.4l-0.9-0.4l-0.9-0.4l-0.9-0.5l-0.9-0.5l-0.9-0.5l-0.8-0.5
				l-0.7-0.5l-0.7-0.5l-0.6-0.5l-0.5-0.5l-0.5-0.6l-0.5-0.6l-0.4-0.6l-0.3-0.6l-0.3-0.6l-0.2-0.6l-0.2-0.6l-0.2-0.6l-0.1-0.6v-0.6
				l-0.1-6.6v0.6l0.1,0.6l0.2,0.6l0.2,0.6l0.2,0.6l0.3,0.6l0.3,0.6l0.4,0.6l0.5,0.6l0.5,0.6l0.5,0.5l0.6,0.5l0.7,0.5l0.7,0.5
				l0.8,0.5l0.9,0.5l0.9,0.5l0.9,0.5l0.9,0.4l0.9,0.4l1,0.4l1,0.3l1,0.3l1,0.2l1.1,0.2l1.1,0.2l1.1,0.2l1.1,0.2l1.1,0.1l1.1,0.1
				l1.1,0.1h1.1h1.1l1.1-0.1l1.1-0.1l1.1-0.1l1.1-0.2l1.1-0.2l1.1-0.2l1.1-0.2l1-0.2l1-0.3l1-0.3l1-0.4l0.9-0.4l0.9-0.4l0.9-0.5
				l0.9-0.5l0.9-0.5l0.8-0.5l0.7-0.5l0.7-0.5l0.6-0.5l0.5-0.5l0.5-0.6l0.5-0.6l0.4-0.6l0.3-0.6l0.3-0.6l0.2-0.6l0.2-0.6l0.2-0.6
				l0.1-0.6V-2891.8z"/>
			<path id="Path_67924" class="st5" d="M1116.5-2879.1l-0.1-6.6l0.4,0.4l0.5,0.5l0.6,0.5l0.7,0.5l0.7,0.5l0.8,0.5l0.9,0.5l0.9,0.5
				l0.9,0.5l0.9,0.4l0.9,0.4l1,0.4l1,0.3l1,0.3l1,0.2l0.4,0.1l0.1,6.6l-0.4-0.1l-1-0.2l-1-0.3l-1-0.3l-1-0.4l-0.9-0.4l-0.9-0.4
				l-0.9-0.5l-0.9-0.5l-0.9-0.5l-0.8-0.5l-0.7-0.5l-0.7-0.5l-0.6-0.5l-0.5-0.5L1116.5-2879.1z"/>
			<path id="Path_67925" class="st8" d="M1159.4-2880.5l-0.2,0.4l-0.5,0.6l-0.5,0.6l-0.5,0.5l-0.6,0.5l-0.7,0.5l-0.7,0.5l-0.8,0.5
				l-0.9,0.5l-0.9,0.5l-0.9,0.5l-0.9,0.4l-0.9,0.4l-1,0.4l-0.2,0.1l-0.1-6.6l0.2-0.1l1-0.4l0.9-0.4l0.9-0.4l0.9-0.5l0.9-0.5l0.9-0.5
				l0.8-0.5l0.7-0.5l0.7-0.5l0.6-0.5l0.5-0.5l0.5-0.6l0.5-0.6l0.2-0.4L1159.4-2880.5z"/>
			<path id="Path_67926" class="st8" d="M1117.3-2875.7l-0.2,0.4l-0.5,0.6l-0.5,0.6l-0.5,0.5l-0.6,0.5l-0.7,0.5l-0.7,0.5l-0.8,0.5
				l-0.9,0.5l-0.9,0.5l-0.9,0.5l-0.9,0.4l-0.9,0.4l-1,0.4l-0.2,0.1l-0.1-6.6l0.2-0.1l1-0.4l0.9-0.4l0.9-0.4l0.9-0.5l0.9-0.5l0.9-0.5
				l0.8-0.5l0.7-0.5l0.7-0.5l0.6-0.5l0.5-0.5l0.5-0.6l0.5-0.6l0.2-0.4L1117.3-2875.7z"/>
			<g id="Group_38044">
				<path id="Path_67927" class="st3" d="M1141.5-2892l-5.7-3.3l-0.5-0.3l-0.6-0.2l-0.6-0.2l-0.6-0.2l-0.7-0.1l-0.7-0.1h-0.7
					l-0.7,0.1l-0.8,0.1l-0.8,0.2l-0.8,0.2l-0.8,0.2l-0.8,0.3l-0.9,0.4l-0.9,0.4l-0.9,0.5l-0.9,0.5l-0.9,0.5l-0.9,0.6l-0.8,0.6
					l-0.8,0.7l-0.8,0.7l-0.8,0.7l-0.8,0.8l-0.7,0.8l-0.7,0.9l-0.7,0.9l-0.7,0.9l-0.6,0.9l-0.6,0.9l-0.6,0.9l-0.5,0.9l-0.5,1l-0.5,1
					l-0.5,1l-0.5,1l-0.5,1l-0.4,1l-0.4,1l-0.3,1l-0.3,1l-0.2,1l-0.2,1l-0.2,1l-0.2,1l-0.1,1l-0.1,1v1v0.9l0.1,0.9l0.1,0.9l0.2,0.9
					l0.2,0.8l0.2,0.8l0.2,0.7l0.3,0.7l0.3,0.6l0.4,0.6l0.4,0.5l0.5,0.5l0.5,0.5l0.5,0.5l0.5,0.4l0.5,0.3l5.7,3.3l-0.5-0.3l-0.5-0.4
					l-0.5-0.5l-0.5-0.5l-0.5-0.5l-0.4-0.5l-0.4-0.6l-0.3-0.6l-0.3-0.7l-0.2-0.7l-0.2-0.8l-0.2-0.8l-0.2-0.9l-0.1-0.9l-0.1-0.9v-0.9
					v-1l0.1-1l0.1-1l0.2-1l0.2-1l0.2-1l0.2-1l0.3-1l0.3-1l0.4-1l0.4-1l0.5-1l0.5-1l0.5-1l0.5-1l0.5-1l0.5-0.9l0.6-0.9l0.6-0.9
					l0.6-0.9l0.7-0.9l0.7-0.9l0.7-0.9l0.7-0.8l0.8-0.8l0.8-0.8l0.8-0.7l0.8-0.7l0.8-0.6l0.9-0.6l0.9-0.5l0.9-0.5l0.9-0.5l0.9-0.4
					l0.9-0.4l0.8-0.3l0.8-0.2l0.8-0.2l0.8-0.2l0.8-0.1l0.7-0.1h0.7l0.7,0.1l0.7,0.1l0.6,0.2l0.6,0.2l0.6,0.2L1141.5-2892z"/>
				<path id="Path_67928" class="st3" d="M1129.9-2890.7c-9.1,5.4-16.4,18.1-16.4,28.6c0.1,10.5,7.5,14.7,16.6,9.4
					c9.1-5.4,16.4-18.1,16.4-28.6C1146.4-2891.8,1139-2896.1,1129.9-2890.7z M1130.1-2855.5c-3.9,2.3-7.4,2.6-10,1.1
					c-2.6-1.5-4.1-4.6-4.2-9.1c0-4.5,1.5-9.5,4-13.9c2.6-4.4,6-8.3,9.9-10.6c3.9-2.3,7.4-2.6,10-1.1c2.6,1.5,4.1,4.6,4.2,9.1
					c0,4.5-1.5,9.5-4,13.9C1137.5-2861.7,1134-2857.7,1130.1-2855.5z"/>
				<path id="Path_67929" class="st3" d="M1129.9-2890.7c-9.1,5.4-16.4,18.1-16.4,28.6c0.1,10.5,7.5,14.7,16.6,9.4
					c9.1-5.4,16.4-18.1,16.4-28.6C1146.4-2891.8,1139-2896.1,1129.9-2890.7z"/>
				<path id="Path_67930" class="st3" d="M1130.1-2855.5l-2.6-1.5l0.7-0.5l0.7-0.5l0.7-0.5l0.7-0.5l0.7-0.5l0.7-0.6l0.6-0.6l0.6-0.6
					l0.6-0.7l0.6-0.7l0.6-0.7l0.5-0.8l0.5-0.8l0.5-0.8l0.5-0.8l0.5-0.9l2.6,1.5l-0.5,0.9l-0.5,0.8l-0.5,0.8l-0.5,0.8l-0.5,0.8
					l-0.6,0.7l-0.6,0.7l-0.6,0.7l-0.6,0.6l-0.6,0.6l-0.7,0.6l-0.7,0.5l-0.7,0.5l-0.7,0.5l-0.7,0.5L1130.1-2855.5z"/>
				<path id="Path_67931" class="st3" d="M1140.1-2866.1l-2.6-1.5l0.5-0.9l0.5-0.9l0.4-0.9l0.4-0.9l0.4-0.9l0.3-0.9l0.3-0.9l0.3-0.9
					l0.2-0.9l0.2-0.9l0.2-0.9l0.2-0.9l0.2-0.9l0.1-0.9l0.1-0.9v-0.9l2.6,1.5v0.9l-0.1,0.9l-0.1,0.9l-0.2,0.9l-0.2,0.9l-0.2,0.9
					l-0.2,0.9l-0.2,0.9l-0.3,0.9l-0.3,0.9l-0.3,0.9l-0.4,0.9l-0.4,0.9l-0.4,0.9l-0.5,0.9L1140.1-2866.1z"/>
				<path id="Path_67932" class="st3" d="M1144.1-2879.9l-2.6-1.5v-0.9l-0.1-0.8l-0.1-0.8l-0.2-0.7l-0.2-0.7l-0.2-0.7l-0.2-0.6
					l-0.2-0.6l-0.3-0.5l-0.3-0.5l-0.3-0.5l-0.4-0.5l-0.4-0.4l-0.4-0.4l-0.5-0.3l-0.5-0.3l2.6,1.5l0.5,0.3l0.5,0.3l0.4,0.4l0.4,0.4
					l0.4,0.5l0.3,0.5l0.3,0.5l0.3,0.5l0.2,0.6l0.2,0.6l0.2,0.6l0.2,0.7l0.2,0.7l0.1,0.8l0.1,0.8V-2879.9z"/>
				<path id="Path_67933" class="st3" d="M1120.2-2854.4l-2.6-1.5l0.5,0.2l0.5,0.2l0.5,0.2l0.5,0.2l0.5,0.1l0.6,0.1h0.6h0.6l0.6-0.1
					l0.6-0.2l0.7-0.2l0.7-0.2l0.7-0.2l0.7-0.3l0.7-0.3l0.7-0.4l2.6,1.5l-0.7,0.4l-0.7,0.3l-0.7,0.3l-0.7,0.2l-0.7,0.2l-0.7,0.2
					l-0.6,0.2l-0.6,0.1h-0.6h-0.6l-0.6-0.1l-0.5-0.1l-0.5-0.2l-0.5-0.2l-0.5-0.2L1120.2-2854.4z"/>
				<path id="Path_67934" class="st4" d="M1129.3-2855.9c3.9-2.3,7.4-6.2,9.9-10.6c2.5-4.4,4-9.4,4-13.9c0-4.4-1.6-7.6-4.2-9.1
					s-6.1-1.2-10,1.1c-3.9,2.3-7.4,6.2-9.9,10.6c-2.5,4.4-4,9.4-4,13.9c0,4.4,1.6,7.6,4.2,9.1
					C1121.9-2853.4,1125.5-2853.7,1129.3-2855.9z"/>
				<path id="Path_67935" class="st5" d="M1129-2857.3l-0.9-0.5v-2.4l0.9,0.5V-2857.3z"/>
				<path id="Path_67936" class="st5" d="M1120.7-2863.3l3.4-1.9l0.9,0.5l-3.4,1.9v0.8v0.5v0.5l0.1,0.4l0.1,0.4l0.1,0.4l0.1,0.3
					l0.1,0.3l0.2,0.2l0.2,0.2l0.2,0.2l0.2,0.2l0.2,0.2l0.2,0.2l-0.9-0.5l-0.2-0.2l-0.2-0.2l-0.2-0.2l-0.2-0.2l-0.2-0.2l-0.2-0.2
					l-0.1-0.3l-0.1-0.3l-0.1-0.4l-0.1-0.4l-0.1-0.4v-0.5v-0.5V-2863.3z"/>
				<path id="Path_67937" class="st5" d="M1128.1-2863.6l-0.1-6.8l0.9,0.5l0.1,6.8l-0.4,0.2l-0.3,0.2l-0.3,0.2l-0.3,0.2l-0.2,0.2
					l-0.2,0.1l-0.2,0.1l-0.2,0.1l-0.2,0.1l-0.2,0.1h-0.2h-0.2h-0.2h-0.2h-0.2h-0.2h-0.1l-0.1-0.1l-0.9-0.5l0.1,0.1h0.1h0.2h0.2h0.2
					h0.2h0.2h0.2l0.2-0.1l0.2-0.1l0.2-0.1l0.2-0.1l0.2-0.1l0.2-0.1l0.3-0.2l0.3-0.2l0.3-0.2L1128.1-2863.6z"/>
				<path id="Path_67938" class="st5" d="M1128-2885.5l2.2-1.2l0.9,0.5l-2.2,1.2v2.1l-0.5,0.3l-0.5,0.3l-0.5,0.3l-0.5,0.3l-0.5,0.3
					l-0.5,0.3l-0.4,0.3l-0.4,0.3l-0.4,0.4l-0.4,0.4l-0.3,0.4l-0.3,0.4l-0.3,0.4l-0.3,0.5l-0.2,0.5l-0.2,0.5l-0.2,0.5l-0.2,0.5
					l-0.2,0.5l-0.2,0.5l-0.1,0.5l-0.1,0.6l-0.1,0.6v0.6v0.5v0.5l0.1,0.5l0.1,0.4l0.1,0.4l0.1,0.3l0.1,0.3l0.2,0.2l0.2,0.2l0.2,0.2
					l0.2,0.2l0.2,0.2l-0.9-0.5l-0.2-0.2l-0.2-0.2l-0.2-0.2l-0.2-0.2l-0.2-0.2l-0.1-0.3l-0.1-0.3l-0.1-0.4l-0.1-0.4l-0.1-0.5v-0.5
					v-0.5v-0.6l0.1-0.6l0.1-0.6l0.1-0.5l0.2-0.5l0.2-0.5l0.2-0.5l0.2-0.5l0.2-0.5l0.2-0.5l0.3-0.5l0.3-0.4l0.3-0.4l0.3-0.4l0.4-0.4
					l0.4-0.4l0.4-0.3l0.4-0.3l0.5-0.3l0.5-0.3l0.5-0.3l0.5-0.3l0.5-0.3l0.5-0.3V-2885.5z"/>
				<path id="Path_67939" class="st5" d="M1134.2-2886.4l0.3-0.1h0.3h0.3l0.3,0.1l0.2,0.1l0.2,0.2l0.9,0.5l-0.2-0.2l-0.2-0.1
					l-0.3-0.1h-0.3h-0.3l-0.3,0.1l-0.4,0.1l-0.4,0.2l-0.5,0.2l-0.5,0.2l-0.5,0.2l-0.5,0.2l-0.6,0.3l-0.6,0.3l-0.9-0.5l0.6-0.3
					l0.6-0.3l0.5-0.2l0.5-0.2l0.5-0.2l0.5-0.2l0.4-0.2L1134.2-2886.4z"/>
				<path id="Path_67940" class="st5" d="M1134.7-2879.4l-0.9-0.5v-0.1v-0.1v-0.1v-0.1v-0.2v-0.4v-0.3l-0.1-0.3l-0.1-0.2l-0.1-0.2
					l-0.1-0.2l-0.2-0.2l0.9,0.5l0.2,0.2l0.1,0.2l0.1,0.2l0.1,0.2l0.1,0.3v0.3v0.4v0.3v0.1V-2879.4L1134.7-2879.4z"/>
				<path id="Path_67941" class="st5" d="M1133.8-2872.4l-0.2-0.1l0.9,0.5l0.2,0.1l0.1,0.2l0.1,0.2l0.1,0.2l0.1,0.2l0.1,0.2v0.3v0.3
					v0.4v0.5l-0.1,0.5l-0.1,0.4l-0.1,0.4l-0.1,0.4l-0.2,0.4l-0.2,0.3l-0.2,0.3l-0.2,0.3l-0.2,0.3l-0.3,0.3l-0.3,0.3l-0.3,0.2
					l-0.4,0.2l-0.4,0.2l-0.4,0.2l-0.7,0.4l-0.9-0.5l0.6-0.4l0.4-0.2l0.4-0.2l0.4-0.2l0.3-0.2l0.3-0.3l0.3-0.3l0.2-0.3l0.2-0.3
					l0.2-0.3l0.2-0.3l0.2-0.4l0.1-0.4l0.1-0.4l0.1-0.4v-0.5v-0.5v-0.4v-0.3v-0.3l-0.1-0.2l-0.1-0.2l-0.1-0.2l-0.1-0.2L1133.8-2872.4
					z"/>
				<path id="Path_67942" class="st5" d="M1128.1-2873.7v-6.2l0.9,0.5v6.2l-0.5,0.2l-0.5,0.2l-0.4,0.2l-0.4,0.2l-0.3,0.1l-0.3,0.1
					h-0.3h-0.2l-0.2-0.1l-0.2-0.2l-0.9-0.5l0.2,0.1l0.2,0.1h0.2h0.3l0.3-0.1l0.3-0.1l0.4-0.2l0.4-0.2l0.5-0.2L1128.1-2873.7z"/>
				<path id="Path_67943" class="st5" d="M1131.1-2874.4l-0.9-0.5l0.6-0.3l0.5-0.3l0.5-0.2l0.5-0.2l0.5-0.2l0.5-0.2l0.5-0.2l0.4-0.2
					l0.4-0.1l0.4-0.1h0.3h0.3l0.3,0.1l0.3,0.1l0.2,0.2l0.9,0.5l-0.2-0.2l-0.3-0.1l-0.3-0.1h-0.3h-0.3l-0.4,0.1l-0.4,0.1l-0.4,0.2
					l-0.5,0.2l-0.5,0.2l-0.5,0.2l-0.5,0.2l-0.5,0.2l-0.5,0.3L1131.1-2874.4z"/>
				<path id="Path_67944" class="st3" d="M1131-2880.7v6.2c1.2-0.7,2.6-1.3,4-1.8c0.9-0.3,1.8-0.2,2.5,0.3c0.6,0.5,0.9,1.7,0.9,3.4
					c0,1.6-0.2,3.1-0.7,4.6c-0.5,1.3-1.2,2.5-2.2,3.4c-1.2,1.2-2.5,2.3-4,3.1l-0.6,0.4v2.4l-2.2,1.2v-2.4c-0.9,0.5-2,1.1-3,1.5
					c-0.7,0.3-1.6,0.4-2.3,0.3c-0.7-0.2-1.2-0.5-1.6-1.2c-0.4-0.9-0.6-1.9-0.5-3v-0.8l3.4-1.9c0,0.7,0.1,1.5,0.2,2.2
					c0.2,0.5,0.4,0.7,0.7,0.8c0.4,0.1,0.7,0,1.1-0.2c0.4-0.2,1.1-0.5,2.1-1l-0.1-6.8c-1.3,0.7-2.4,1.2-3.2,1.5
					c-0.7,0.3-1.4,0.4-2.1,0.4c-0.6-0.1-1.2-0.5-1.5-1.1c-0.4-1-0.5-2-0.5-3.1c0-1.6,0.2-3.1,0.9-4.6c0.5-1.2,1.4-2.4,2.5-3.3
					c1.2-1,2.5-1.9,3.9-2.7v-2.1l2.2-1.2v2.1c1.2-0.7,2.6-1.3,4-1.7c0.8-0.3,1.6,0,2.2,0.6c0.5,0.6,0.8,1.9,0.8,3.8l-3.3,1.9
					c0-0.2,0-0.3,0-0.5c0-1.1-0.2-1.7-0.6-1.9c-0.4-0.2-1.1,0.1-2.1,0.6L1131-2880.7L1131-2880.7z M1131.1-2871.1l0.1,6.8l0.6-0.4
					c1-0.5,1.9-1.2,2.6-2.2c0.6-0.9,0.9-2,0.9-3.1c0.1-0.7-0.1-1.4-0.5-1.9c-0.3-0.3-0.8-0.4-1.2-0.2
					C1132.7-2871.8,1131.8-2871.5,1131.1-2871.1L1131.1-2871.1z M1128.9-2879.4l-0.5,0.3c-0.6,0.4-1.2,0.8-1.8,1.2
					c-0.5,0.4-0.9,0.9-1.1,1.4c-0.3,0.7-0.4,1.4-0.4,2.2c0,1.2,0.3,1.9,0.9,2c0.6,0.1,1.6-0.2,2.9-0.9L1128.9-2879.4L1128.9-2879.4z
					"/>
				<path id="Path_67945" class="st8" d="M1129.9-2890.7c-9.1,5.4-16.4,18.1-16.4,28.6c0.1,10.5,7.5,14.7,16.6,9.4
					c9.1-5.4,16.4-18.1,16.4-28.6C1146.4-2891.8,1139-2896.1,1129.9-2890.7z M1130.1-2855.5c-3.9,2.3-7.4,2.6-10,1.1
					c-2.6-1.5-4.1-4.6-4.2-9.1c0-4.5,1.5-9.5,4-13.9c2.6-4.4,6-8.3,9.9-10.6c3.9-2.3,7.4-2.6,10-1.1c2.6,1.5,4.1,4.6,4.2,9.1
					c0,4.5-1.5,9.5-4,13.9C1137.5-2861.7,1134-2857.7,1130.1-2855.5z"/>
			</g>
			<path id="Path_67946" class="st9" d="M1108.8-2859.5l5.8,3.3l-0.2-0.5l-0.2-0.8l-0.2-0.8l-0.2-0.9l-0.1-0.9l-0.1-0.9v-0.9v-1
				l0.1-1l0.1-1l0.2-1l0.2-1l0.2-1l0.2-1l0.3-1l0.1-0.3l-5.8-3.3l-0.1,0.3l-0.3,1l-0.2,1l-0.2,1l-0.2,1l-0.2,1l-0.1,1l-0.1,1v1v0.9
				l0.1,0.9l0.1,0.9l0.2,0.9l0.2,0.9l0.2,0.8L1108.8-2859.5z"/>
			<path id="Path_67947" class="st8" d="M1131-2896.3h-0.5l-0.8,0.1l-0.8,0.2l-0.8,0.2l-0.8,0.2l-0.8,0.3l-0.9,0.4l-0.9,0.4
				l-0.9,0.5l-0.9,0.5l-0.9,0.5l-0.9,0.6l-0.8,0.6l-0.8,0.7l-0.2,0.2l5.8,3.3l0.2-0.2l0.8-0.7l0.8-0.6l0.9-0.6l0.9-0.5l0.9-0.5
				l0.9-0.5l0.9-0.4l0.9-0.4l0.8-0.3l0.8-0.2l0.8-0.2l0.8-0.2l0.8-0.1h0.5L1131-2896.3z"/>
		</g>
		<g id="Group_52702">
			<path id="Path_118047" class="st2" d="M994.5-3083c15,11.1,22.6,25.2,28.4,42.8c0.2,0.7,0.9,1.2,1.6,1.3c1.9,0.3,3.9-0.3,5.2-1.8
				c0.5-0.5,0.7-1.2,0.5-1.9c-6.2-18.7-14.6-34.3-30.7-46.1C995.6-3091.7,990.5-3086,994.5-3083z"/>
			<path id="Path_118048" class="st2" d="M950.6-3131.7c0,0-9.9-2-10.6-1.9c-1.8,0.2-3.7,2.3-4.8,5.5l-5.7,37.8
				c-0.6,5.3-0.5,8.5,1.7,9.7l19.9,11.4c0.4,0.3,0.9,0.4,1.4,0.4c1.6-0.1,9.4,2,9.4,2l12.3-39.1c1.4-4.1,0.5-8.5-1.7-9.7
				L950.6-3131.7z"/>
			<path id="Path_118049" class="st1" d="M969.8-3093.4l-1.6,3.6c0.1,0.2,9.7,10.6,14.3,21c0,0,0.2,0.9,0.8,1
				c0.2,0.2,3.7,0.5,3.7,0.5l-2.3-4.4C979.9-3082.6,970.1-3093,969.8-3093.4z"/>
			<path id="Path_118050" class="st0" d="M972.4-3113.1c-1.6-1.3-3.9-0.1-5,2.9l-2.9,7.1c-1.2,3-0.9,6.5,0.6,7.8l30.8,26.9
				c0.2,0.3,0.8,0.5,1.2,0.5c1.4,0.2,9.9,2,9.9,2l-3.2-12.5c1.2-3,0.9-6.5-0.6-7.8L972.4-3113.1z"/>
			<path id="Path_118051" class="st0" d="M989.9-3074.7c-2.7,5.8-5.5,11.7-6.9,14.2c-3.5-3-13.1-13.9-21.1-22.3
				c-1.4-1.4-2.7-2.3-3.9,0.2c-1.1,2.4-1,5.7,0.2,7c17.8,18.5,22,21.9,23.5,22.3c0.2,0.2,3.7,1,3.7,1s4.4-5.8,11.1-21.1
				c-0.9-0.8-1.8-1.6-2.7-2.4C992.6-3075.4,991.3-3075.1,989.9-3074.7z"/>
			<path id="Path_118052" class="st2" d="M971.6-3089.4c0.1,0.2,9.7,10.6,14.3,21c0,0,0.6,1.9,1.6,0.5c0.6-1,0.7-2.3,0.5-3.5
				c-4.8-11-14.4-21.4-14.8-21.9L971.6-3089.4z"/>
			<g id="Group_52700">
				<path id="Path_118053" class="st0" d="M891.7-3128.1c-2.8,1.7,5.2,13.7,6,13.3c4-1.9,21.7-5.5,40.5,2.5c0.9-0.4,1.7-1,2.3-1.7
					c2.3-3,2.4-7.7,1.2-11.1c-0.6-1.8-1.5-3.4-2.7-4.7C913.5-3138.8,892.4-3128.6,891.7-3128.1z"/>
				<path id="Path_118054" class="st0" d="M900.8-3126.8c-2.8,1.7,2.2,16.4,5,14.7c11-3.7,22.7-4,33.8-1c0.3-0.2,0.6-0.6,0.9-0.9
					c3.7-5.1,3.1-12-1.3-16.4C926.5-3133.6,912.9-3132.4,900.8-3126.8z"/>
			</g>
			<path id="Path_118055" class="st2" d="M986.8-3059.4c-3.5-3-13.1-13.9-21.1-22.3c-1.4-1.4-2.7-2.3-3.9,0.2c-1.1,2.6-1,5.7,0.2,7
				c21.7,22.7,23.2,22.5,24.2,22.4c1.5-0.2,3.3-0.5,11.7-20.1c-1-1.1-2.4-2-3.6-3.1C991.5-3068.9,988.2-3062.2,986.8-3059.4z"/>
			<path id="Path_118056" class="st0" d="M981.8-3111.1c-1.6-1.3-3.9-0.1-5,2.9l-2.9,7.1c-1.2,3-0.9,6.5,0.6,7.8l30.8,26.9
				c1.6,1.3,3.9,0.1,5-2.9l2.9-7.1c1.2-3,0.9-6.5-0.6-7.8L981.8-3111.1z"/>
			<path id="Path_118057" class="st0" d="M951.5-3131.5c-2.3-1.3-5.2,1-6.5,5.1l-5.7,37.8c-0.6,5.3-0.5,8.5,1.7,9.7l19.9,11.4
				c2.3,1.3,3.7-0.6,6.5-5.1l16.7-31.5c1.4-4.1,0.5-8.5-1.7-9.7L951.5-3131.5z"/>
			<path id="Path_118058" class="st10" d="M898.2-3123L898.2-3123L898.2-3123L898.2-3123L898.2-3123z"/>
			<path id="Path_118059" class="st10" d="M898-3123.4L898-3123.4v0.2V-3123.4z"/>
			<path id="Path_118060" class="st2" d="M897.3-3128.7c-4.5-1.5-7.4,1.2-6.3,5.8c1.4,5.1,5.2,9.2,10.1,11.1
				c4.5,1.5,7.4-1.2,6.3-5.8C906.1-3122.8,902.3-3126.8,897.3-3128.7z"/>
			<g id="Group_52701">
				<path id="Path_118061" class="st1" d="M897.3-3128.9c-4.8-1.5-7.6,1.2-6.5,6c1.5,5.2,5.2,9.4,10.4,11.4c4.8,1.5,7.6-1.2,6.5-6
					C906.2-3122.8,902.4-3127,897.3-3128.9z M905.2-3118.4c0.7,3.3-1.2,5.2-4.6,4.2c-3.5-1.3-6.2-4.3-7.2-7.9
					c-0.7-3.3,1.2-5.2,4.6-4.2C901.5-3125.1,904.1-3122.1,905.2-3118.4z"/>
			</g>
			<path id="Path_118062" class="st2" d="M900.1-3101.1c2.4,7.5,13.4,3.6,11.1-3.5c-2.2-6.5-10-11.6-10.4-12.8
				C901.2-3116.2,898-3107.3,900.1-3101.1z"/>
			<path id="Path_118063" class="st1" d="M909.1-3104.7c0.7,2.3,1.2,1.5,1,0.5c-0.9-3.5-4.3-6.3-4.3-6.3
				C907.2-3108.8,908.2-3106.8,909.1-3104.7z"/>
		</g>
		<g id="fuel">
			<path id="Path_68259" class="st11" d="M1050.6-3117.3l-1.4-0.6l-1.3-0.2l-1.1,0.1l-1,0.4l-3.1,1.7l1-0.4l1.1-0.1l1.3,0.2l1.4,0.6
				l-0.2,7.9l-0.3,0.2l-0.3,0.4l-0.3,0.5l-0.2,0.6l-0.2,0.8l-0.2,0.9l-0.2,1l-0.2,1.1l-0.2,1.1l-0.2,1.2l-0.2,1.3l-0.2,1.4l-0.2,1.4
				v1.5v1.5v1.6v1.2v1.3v1.3v1.3v1.3v1.2v1.2v1.2v1.2v1.2l-0.2,1.2l-0.2,1.2l-0.2,1.1l-0.2,1.1l-0.2,1.1l-0.2,1l-0.3,1.8l-0.4,1.6
				l-0.5,1.5l-0.5,1.4l-0.6,1.2l-0.7,1l-0.8,0.9l-0.9,0.6l3.1-1.7l0.9-0.6l0.8-0.9l0.7-1l0.6-1.2l0.5-1.4l0.5-1.5l0.4-1.6l0.3-1.8
				l0.2-1l0.2-1.1l0.2-1.1l0.2-1.1l0.2-1.2l0.2-1.2v-1.2v-1.2v-1.2v-1.2v-1.2v-1.3v-1.3v-1.3v-1.3v-1.2v-1.6v-1.5v-1.5l0.2-1.4
				l0.2-1.4l0.2-1.3l0.2-1.2l0.2-1.1l0.2-1.1l0.2-1l0.2-0.9l0.2-0.8l0.2-0.6l0.3-0.5l0.3-0.4l0.3-0.2L1050.6-3117.3L1050.6-3117.3z
				 M1043.3-3124.3l-0.2,1l-0.2,1l-0.3,1l-0.3,1l-0.3,1l-0.4,1l-0.4,1l-0.5,1l-0.5,1l-0.6,1l-0.7,1l-0.7,1l-0.8,1l-0.9,0.9l-0.9,0.9
				l-1,0.9l-0.6,0.5l-0.6,0.6l-0.5,0.6l-0.5,0.6l-0.5,0.6l-0.4,0.6l-0.4,0.8l-0.4,0.8l-0.4,0.9l-0.3,0.9l-0.3,0.9l-0.3,0.9l-0.2,1
				l-0.2,1l-0.2,1l-0.2,1l-0.2,1.5l-0.2,1.5l-0.2,1.5v1.5v1.5l0.1,1.5l0.1,1.5l0.2,1.4l0.2,1.2l0.2,1.2l0.2,1.1l0.2,1.1l0.4,1
				l0.4,0.9l0.4,0.9l0.5,0.8l0.1,0.2l0.2,0.2l0.2,0.2l0.2,0.2l0.2,0.2l0.2,0.2l0.2,0.2l0.2,0.2l1.9,1.3l1.6,0.6h1.4l1.1-0.5
				l-3.1,1.7l-1.1,0.5h-1.4l-1.6-0.6l-1.9-1.3l-0.2-0.2l-0.2-0.2l-0.2-0.2l-0.2-0.2l-0.2-0.2l-0.2-0.2l-0.2-0.2l-0.1-0.2l-0.5-0.8
				l-0.4-0.9l-0.4-0.9l-0.2-1l-0.2-1.1l-0.2-1.1l-0.2-1.2l-0.2-1.2l-0.2-1.4l-0.1-1.5l-0.1-1.5v-1.5v-1.5l0.2-1.5l0.2-1.5l0.2-1.5
				l0.2-1l0.2-1l0.2-1l0.2-1l0.3-0.9l0.3-0.9l0.3-0.9l0.4-0.9l0.4-0.8l0.4-0.8l0.4-0.8l0.5-0.6l0.5-0.6l0.5-0.6l0.5-0.6l0.6-0.5
				l1-0.9l0.9-0.9l0.9-0.9l0.8-1l0.7-1l0.7-1l0.6-1l0.5-1l0.5-1l0.4-1l0.4-1l0.3-1l0.3-1l0.3-1l0.2-1l0.2-1l-6.5-4.1l3.1-1.7
				L1043.3-3124.3z"/>
			<path id="Path_68260" class="st12" d="M1047.5-3115.6c-7.8-4-9.1,7.2-9.1,20.4c0,6.2-0.2,12.7-0.9,17.6c-1,5.7-3.2,8.9-8.6,4.4
				c-0.5-0.4-1-0.9-1.2-1.5c-1.3-2.5-2.2-5.2-2.6-8.1c-0.5-3.9-0.3-7.8,0.2-11.7c0.9-5.5,3-10.2,6.2-12.7c4.8-4,7.9-9.4,9-15.6
				l-6.5-4.1c-1,4.8-3.5,9-7.3,12c-4,3.2-6.4,9-7.6,15.5c-0.8,4.8-0.9,9.4-0.2,14.3c0.5,4.9,2.1,9.7,4.8,13.8
				c1.2,1.9,2.6,3.5,4.3,4.9c10.4,8.3,14.6,3.3,16.2-6.4c0.9-5.5,1-12.3,1-18.8c0.1-8.3,1-15.3,2.6-16.3L1047.5-3115.6z"/>
			<path id="Path_68261" class="st11" d="M1041.5-3121.5l5.1-2.9v-0.7v-0.8v-0.9v-1v-1v-1.1v-1.1v-1.1v-1.1v-1v-1l0.2-0.9l0.2-0.9
				l0.2-0.8l0.2-0.7l0.2-0.5l0.3-0.6l0.4-0.6l0.3-0.5l3-1.6l-1.2-5.8l-5.1,2.9l1.1,5.4l-1.2,0.6l-0.6,0.2l-0.5,0.5l-0.5,0.5
				l-0.4,0.6l-0.4,0.6l-0.3,0.6l-0.2,0.5l-0.2,0.7l-0.2,0.8l-0.2,0.9l-0.2,0.9v1v1v1.1v1.1v1.1v1.1v1v1v0.9v0.8L1041.5-3121.5z"/>
			<path id="Path_68262" class="st4" d="M1044.8-3144.9l5.1-2.9l-1.1-0.2l-1-0.2l-1-0.2h-0.9l-0.9,0.2l-0.9,0.2l-5.1,2.9l0.9-0.2
				l0.9-0.2h0.9l1,0.2l1,0.2L1044.8-3144.9z"/>
			<path id="Path_68263" class="st12" d="M1041.5-3121.5c-0.2-3.5-0.2-11.8,0.6-14.3c0.6-1.6,2.2-3.4,4-3.4l-1.2-5.8
				c-5.7-1.4-9-1.2-14.3,16.8L1041.5-3121.5z"/>
			<path id="Path_68264" class="st4" d="M1075.3-3074.3l-4-2.3l-48.8,27.1l4,2.3l48.3,29l1.9,1.1l1.9,1.1l-0.2,9l48.8-27.1l0.2-9
				l-1.9-1.1l-1.9-1.1L1075.3-3074.3z"/>
			<path id="Path_68265" class="st12" d="M1026.4-3047.2l-4-2.3l-0.2,9l10.2,6.1l35.5,21.3l10.2,6.1l0.2-9l-1.9-1.1l-1.9-1.1
				L1026.4-3047.2z"/>
			<path id="Path_68266" class="st4" d="M1091-3027.2l16.5-9.2l1.5-83.3l-0.1-1.6l-0.4-1.6l-0.6-1.6l-0.8-1.6l-1-1.5l-1-1.3
				l-1.2-1.1l-1.2-0.9l-35.5-21.3l-1.2-0.6l-1.2-0.3l-1.1,0.1l-1,0.4l-16.5,9.2l1-0.4l1.1-0.1l1.2,0.3l1.2,0.6l35.5,21.3l1.2,0.9
				l1.2,1.1l1,1.3l1,1.5l0.8,1.6l0.6,1.6l0.4,1.6l0.1,1.6L1091-3027.2z"/>
			<path id="Path_68267" class="st12" d="M1086.2-3121.8l-35.5-21.3c-3.5-2.2-6.5-0.5-6.5,3.7l-1.5,83.3l48.3,29l1.5-83.3
				C1092.2-3115,1089.9-3119.2,1086.2-3121.8z"/>
			<path id="Path_68268" class="st13" d="M1085.7-3113.1l-33.5-20.2l-0.5,27.4l33.5,20.2L1085.7-3113.1z"/>
			<path id="Path_68269" class="st11" d="M1085.7-3113.1l-33.5-20.2l-0.5,27.4l33.5,20.2L1085.7-3113.1z"/>
			<path id="Path_68270" class="st4" d="M1085.7-3113.1l-31.1-18.7l-0.4,24.8l31.1,18.7L1085.7-3113.1z"/>
			<path id="Path_68271" class="st12" d="M1064.3-3121.1l-5.8-3.5l0,0c-0.6-0.3-1.1-0.2-1.1,0.6l-0.2,11c0,0.8,0.4,1.5,1,1.9
				l5.8,3.5l0,0c0.6,0.3,1.1,0.2,1.1-0.6l0.2-11C1065.2-3120,1064.9-3120.7,1064.3-3121.1L1064.3-3121.1z M1059.5-3121.3l3.6,2.2
				l-0.2,8.5l-3.6-2.2L1059.5-3121.3z"/>
			<path id="Path_68272" class="st12" d="M1073.6-3115.5l-5.8-3.5l0,0c-0.6-0.3-1.1-0.2-1.1,0.6l-0.2,11c0,0.8,0.4,1.5,1,1.9
				l5.8,3.5l0,0c0.6,0.3,1.1,0.2,1.1-0.6l0.2-11C1074.5-3114.4,1074.1-3115.1,1073.6-3115.5z M1068.8-3115.9l3.6,2.2l-0.2,8.5
				l-3.6-2.2L1068.8-3115.9z"/>
			<path id="Path_68273" class="st12" d="M1082.8-3109.9l-5.8-3.5l0,0c-0.6-0.3-1.1-0.2-1.1,0.6l-0.2,11c0,0.8,0.4,1.5,1,1.9
				l5.8,3.5l0,0c0.6,0.3,1.1,0.2,1.1-0.6l0.2-11C1083.8-3108.8,1083.4-3109.5,1082.8-3109.9z M1078.2-3110.3l3.6,2.2l-0.2,8.5
				l-3.6-2.2L1078.2-3110.3z"/>
			<path id="Path_68274" class="st11" d="M1090.5-3117.1l16.5-9.2l0.2,0.3l0.8,1.6l0.6,1.6l0.4,1.6l0.1,1.6l-1.5,83.3l-16.5,9.2
				l1.5-83.3l-0.1-1.6l-0.4-1.6l-0.6-1.6l-0.8-1.6L1090.5-3117.1z"/>
			<path id="Path_68275" class="st11" d="M1078.5-3015.4l-0.2,8.5l48.8-27.1l0.2-8.5L1078.5-3015.4z"/>
		</g>
	</g>
</g>
<g id="Group_52647" transform="translate(44.275699, 36.658788)">
	<polygon id="Path_117853" class="st2" points="37.8,57 37.8,156 -15.4,156.4 -15.4,57.4 -15.4,-41.7 37.8,-42.1 	"/>
	<polygon id="Path_117854" class="st0" points="-10.9,57.3 -10.9,156.4 -12.6,156.4 -12.6,57.3 -12.6,-41.7 -10.9,-41.7 	"/>
	<polygon id="Path_117855" class="st0" points="33.3,57 33.3,-42 34.9,-42.1 34.9,57 34.9,156 33.3,156.1 	"/>
	<polygon id="Path_117856" class="st0" points="10.3,-41.9 12,-41.9 12,-30.9 10.3,-30.9 	"/>
	<polygon id="Path_117857" class="st0" points="10.3,27.8 12,27.8 12,47.4 10.3,47.4 	"/>
	<polygon id="Path_117858" class="st0" points="10.3,106.1 12.1,106.1 12.1,125.7 10.3,125.7 	"/>
	<polygon id="Path_117859" class="st0" points="10.3,67 12,66.9 12,86.5 10.3,86.5 	"/>
	<polygon id="Path_117860" class="st0" points="10.3,-11.4 12,-11.4 12,8.2 10.3,8.2 	"/>
	<polygon id="Path_117861" class="st0" points="10.3,145.3 12.1,145.3 12.1,156.2 10.3,156.2 	"/>
</g>
<g id="Group_52647_1_" transform="translate(44.275699, 36.658788)">
	<polygon id="Path_117853_1_" class="st2" points="37.8,249.9 37.8,348.9 -15.4,349.3 -15.4,250.2 -15.4,151.2 37.8,150.8 	"/>
	<polygon id="Path_117854_1_" class="st0" points="-10.9,250.2 -10.9,349.3 -12.5,349.3 -12.6,250.2 -12.6,151.2 -10.9,151.2 	"/>
	<polygon id="Path_117855_1_" class="st0" points="33.3,249.9 33.3,150.8 35,150.8 35,249.9 35,348.9 33.3,348.9 	"/>
	<polygon id="Path_117856_1_" class="st0" points="10.3,151 12.1,151 12.1,161.9 10.3,162 	"/>
	<polygon id="Path_117857_1_" class="st0" points="10.3,220.7 12.1,220.7 12.1,240.3 10.3,240.3 	"/>
	<polygon id="Path_117858_1_" class="st0" points="10.3,299 12.1,299 12.1,318.6 10.3,318.6 	"/>
	<polygon id="Path_117859_1_" class="st0" points="10.3,259.8 12.1,259.8 12.1,279.4 10.3,279.4 	"/>
	<polygon id="Path_117860_1_" class="st0" points="10.3,181.5 12.1,181.5 12.1,201.1 10.3,201.1 	"/>
	<polygon id="Path_117861_1_" class="st0" points="10.3,338.2 12.1,338.1 12.1,349.1 10.3,349.1 	"/>
</g>
<g id="Group_52647_3_" transform="translate(44.275699, 36.658788)">
	<polygon id="Path_117853_3_" class="st2" points="37.8,284.6 37.8,383.6 -15.4,384 -15.4,285 -15.4,185.9 37.8,185.5 	"/>
	<polygon id="Path_117854_3_" class="st0" points="-10.9,284.9 -10.9,384 -12.6,384 -12.6,284.9 -12.6,185.9 -10.9,185.9 	"/>
	<polygon id="Path_117855_3_" class="st0" points="33.3,284.6 33.3,185.6 34.9,185.5 34.9,284.6 34.9,383.6 33.3,383.7 	"/>
	<polygon id="Path_117856_3_" class="st0" points="10.3,185.7 12,185.7 12,196.7 10.3,196.7 	"/>
	<polygon id="Path_117857_3_" class="st0" points="10.3,255.4 12,255.4 12,275 10.3,275 	"/>
	<polygon id="Path_117858_3_" class="st0" points="10.3,333.7 12.1,333.7 12.1,353.3 10.3,353.3 	"/>
	<polygon id="Path_117859_3_" class="st0" points="10.3,294.6 12,294.5 12,314.1 10.3,314.1 	"/>
	<polygon id="Path_117860_3_" class="st0" points="10.3,216.2 12,216.2 12,235.8 10.3,235.8 	"/>
	<polygon id="Path_117861_3_" class="st0" points="10.3,372.9 12.1,372.9 12.1,383.8 10.3,383.8 	"/>
</g>
<g id="Group_52647_2_" transform="translate(44.275699, 36.658788)">
	<polygon id="Path_117853_2_" class="st2" points="37.8,477.5 37.8,576.5 -15.4,576.9 -15.4,477.8 -15.4,378.8 37.8,378.4 	"/>
	<polygon id="Path_117854_2_" class="st0" points="-10.9,477.8 -10.9,576.9 -12.5,576.9 -12.6,477.8 -12.6,378.8 -10.9,378.8 	"/>
	<polygon id="Path_117855_2_" class="st0" points="33.3,477.5 33.3,378.4 35,378.4 35,477.5 35,576.5 33.3,576.5 	"/>
	<polygon id="Path_117856_2_" class="st0" points="10.3,378.6 12.1,378.6 12.1,389.5 10.3,389.6 	"/>
	<polygon id="Path_117857_2_" class="st0" points="10.3,448.3 12.1,448.3 12.1,467.9 10.3,467.9 	"/>
	<polygon id="Path_117858_2_" class="st0" points="10.3,526.6 12.1,526.6 12.1,546.2 10.3,546.2 	"/>
	<polygon id="Path_117859_2_" class="st0" points="10.3,487.4 12.1,487.4 12.1,507 10.3,507 	"/>
	<polygon id="Path_117860_2_" class="st0" points="10.3,409.1 12.1,409.1 12.1,428.7 10.3,428.7 	"/>
	<polygon id="Path_117861_2_" class="st0" points="10.3,565.8 12.1,565.7 12.1,576.7 10.3,576.7 	"/>
</g>
</svg>
