<?xml version="1.0" encoding="utf-8"?>
<!-- Generator: Adobe Illustrator 23.1.1, SVG Export Plug-In . SVG Version: 6.00 Build 0)  -->
<svg version="1.1" id="Layer_1" xmlns="http://www.w3.org/2000/svg" xmlns:xlink="http://www.w3.org/1999/xlink" x="0px" y="0px"
	 viewBox="0 0 38.8 48" style="enable-background:new 0 0 38.8 48;" xml:space="preserve">
<style type="text/css">
	.st0{fill:#256392;}
</style>
<title>Bitmap</title>
<desc>Created with Sketch.</desc>
<g id="Main-Design">
	<g id="Home" transform="translate(-198.000000, -777.000000)">
		<g id="Carousel---Top" transform="translate(0.000000, 661.000000)">
			<g id="Carriers---Slide" transform="translate(135.000000, 0.000000)">
				<g>
					<path class="st0" d="M71.7,123c0.7-0.8,1.4-1.6,2.1-2.3c0.2-0.3,0.4-0.4,0.8-0.4c5.2,0,10.4,0,15.7,0c0.3,0,0.6,0.1,0.8,0.4
						c0.7,0.8,1.3,1.5,2.1,2.4c0-0.3,0-0.4,0-0.5c0-0.8,0-1.6,0-2.4c0-0.2,0.1-0.5,0.3-0.7c0.5-0.6,1-1.2,1.5-1.8
						c0.3-0.4,0.5-0.4,0.8-0.2c0.3,0.2,0.3,0.5,0,0.9c-0.4,0.5-0.9,1.1-1.3,1.6c-0.1,0.1-0.2,0.3-0.2,0.5c0,2.8,0,5.5,0,8.3
						c0,0,0,0.1,0,0.2c0.7,0,1.4,0,2.1,0c0.3,0,0.6,0,0.9,0c0.3,0,0.5,0.2,0.5,0.6c0,0.3-0.2,0.5-0.6,0.5c-0.9,0-1.8,0-2.7,0
						c-0.2,0-0.4,0-0.4,0.3c0,2,0,4,0,6c0,0.1,0,0.1,0,0.2c0.2,0,0.3,0,0.5,0c0.5,0,0.7,0.2,0.7,0.7c0,0.6,0,1.2,0,1.7
						c0,1.4,0,2.9,0,4.3c0,0.2,0,0.4,0.3,0.5c0.1,0,0.2,0.2,0.3,0.2c1.1,1.1,2.2,2.2,3.3,3.4c0.2,0.2,0.3,0.5,0.3,0.8
						c0,0.9,0,1.9,0,2.8c0,0.6-0.2,0.8-0.8,0.8c0,0,0,0,0,0c-1,0-1,0.1-0.8,1.1c0.5,0,1.1,0,1.6,0c0.6,0,0.8,0.2,0.8,0.8
						c0,1,0,2,0,2.9c0,0.4-0.1,0.6-0.5,0.8c-0.6,0.3-1.1,0.6-1.7,0.9c-0.3,0.1-0.4,0.3-0.4,0.6c0,0.8,0,1.6,0,2.4
						c0,1-0.7,1.6-1.6,1.6c-0.9,0-1.8,0-2.8,0c-0.9,0-1.6-0.6-1.6-1.5c0-0.3,0-0.5,0-0.8c0-0.4-0.1-0.6-0.5-0.5c0,0,0,0,0,0
						c-6.1,0-12.1,0-18.2,0c-0.2,0-0.3,0-0.5,0c0,0.4,0,0.7,0,1c0,1.2-0.6,1.8-1.8,1.8c-0.8,0-1.7,0-2.5,0c-1,0-1.6-0.6-1.6-1.6
						c0-0.8,0-1.6,0-2.3c0-0.3-0.1-0.5-0.4-0.7c-0.6-0.3-1.2-0.6-1.8-0.9c-0.3-0.1-0.4-0.3-0.4-0.7c0-1,0-2.1,0-3.1
						c0-0.5,0.2-0.7,0.7-0.7c0.5,0,1.1,0,1.6,0c0.2,0,0.4,0,0.4-0.3c0-1,0.1-0.8-0.8-0.8c-0.8,0-0.9-0.1-0.9-0.9c0-0.9,0-1.8,0-2.7
						c0-0.3,0.1-0.6,0.3-0.8c1.1-1.1,2.2-2.2,3.3-3.3c0.1-0.1,0.1-0.1,0.2-0.2c0.5-0.1,0.4-0.6,0.4-0.9c0-1.9,0-3.7,0-5.6
						c0-0.7,0.1-0.8,0.8-0.8c0.4,0,0.5-0.1,0.5-0.5c0-1.9,0-3.7,0-5.6c0-0.4-0.1-0.5-0.5-0.5c-0.8,0-1.6,0-2.4,0
						c-0.5,0-0.8-0.2-0.8-0.5c0-0.4,0.3-0.5,0.8-0.5c0.8,0,1.6,0,2.4,0c0.4,0,0.5-0.1,0.5-0.5c0-1.3,0-2.6,0-3.9c0-1.3,0-2.6,0-3.9
						c0-0.3-0.1-0.6-0.3-0.8c-0.4-0.5-0.8-1-1.2-1.6c-0.3-0.3-0.3-0.6,0-0.8c0.3-0.2,0.5-0.2,0.8,0.2c0.5,0.6,1.1,1.3,1.6,1.9
						c0.1,0.1,0.2,0.4,0.2,0.5c0,0.8,0,1.7,0,2.5C71.6,122.7,71.6,122.8,71.7,123C71.7,123,71.7,123,71.7,123z M73.8,152.8
						c5.8,0,11.5,0,17.2,0c0-0.2,0-0.3,0-0.4c0-4.8,0-9.6,0-14.4c0-0.4-0.1-0.5-0.5-0.5c-5.4,0-10.9,0-16.3,0
						c-0.4,0-0.5,0.1-0.5,0.5c0,4.4,0,8.7,0,13.1C73.8,151.7,73.8,152.2,73.8,152.8z M65.1,153.9c0,0.8,0,1.5,0,2.2
						c0,0.2,0.1,0.4,0.3,0.5c1.5,0.7,3,1.5,4.5,2.2c0.2,0.1,0.3,0.1,0.5,0.1c7.9,0,15.9,0,23.8,0c0.2,0,0.3,0,0.5-0.1
						c1.5-0.8,3.1-1.5,4.6-2.3c0.1,0,0.2-0.2,0.2-0.2c0-0.8,0-1.6,0-2.4C88,153.9,76.6,153.9,65.1,153.9z M91,130
						c-0.1,0-0.2,0-0.3,0c-5.5,0-11,0-16.6,0c-0.3,0-0.4,0.1-0.4,0.4c0,1.9,0,3.7,0,5.6c0,0.5,0,0.5,0.5,0.5c5.4,0,10.8,0,16.2,0
						c0.2,0,0.3,0,0.5,0C91,134.3,91,132.1,91,130z M90.9,126.4c0-0.1,0-0.2,0-0.2c-0.3-1.5-0.6-3-0.8-4.5c0-0.2-0.2-0.3-0.4-0.3
						c-4.8,0-9.7,0-14.5,0c-0.3,0-0.4,0.1-0.4,0.4c-0.2,0.9-0.3,1.8-0.5,2.8c-0.1,0.6-0.2,1.3-0.4,1.9
						C79.6,126.4,85.2,126.4,90.9,126.4z M95.4,150.7c1,0,2,0,3,0c0.3,0,0.4-0.1,0.3-0.3c0-0.6,0-1.3,0-1.9c0-0.2-0.1-0.3-0.2-0.4
						c-1-1-2-2-3-3c-0.1-0.1-0.3-0.2-0.5-0.2c-0.8,0-1.7,0-2.5,0c-0.3,0-0.4,0.1-0.4,0.4c0,1.7,0,3.5,0,5.2c0,0.3,0.1,0.4,0.4,0.4
						C93.4,150.6,94.4,150.7,95.4,150.7z M72.7,144.7c-1,0-1.9,0-2.8,0c-0.2,0-0.5,0.1-0.6,0.2c-1,0.9-1.9,1.9-2.9,2.9
						c-0.1,0.2-0.2,0.4-0.3,0.6c0,0.6,0,1.2,0,1.7c0,0.3,0.1,0.4,0.4,0.4c1.9,0,3.8,0,5.8,0c0.1,0,0.3,0,0.4,0
						C72.7,148.7,72.7,146.7,72.7,144.7z M73.8,128.8c5.7,0,11.5,0,17.2,0c0-0.5,0-0.9,0-1.4c-0.2,0-0.3,0-0.5,0c-1.6,0-3.3,0-4.9,0
						c-3.6,0-7.1,0-10.7,0C73.6,127.5,73.6,127.5,73.8,128.8z M70.4,137.5c0,2.1,0,4.1,0,6.1c0.8,0,1.5,0,2.3,0c0-2,0-4.1,0-6.1
						C71.9,137.5,71.2,137.5,70.4,137.5z M92.1,137.5c0,0.6,0,1.1,0,1.6c0,1.4,0,2.8,0,4.2c0,0.1,0.1,0.3,0.2,0.3c0.7,0,1.4,0,2.1,0
						c0-0.6,0-1.2,0-1.8c0-1.3,0-2.7,0-4c0-0.2,0-0.4-0.2-0.4C93.5,137.5,92.8,137.5,92.1,137.5z M93,160c0,0.5,0,1,0,1.4
						c0,0.3,0.2,0.4,0.5,0.4c0.9,0,1.9,0,2.8,0c0.2,0,0.5-0.2,0.5-0.4c0-0.8,0-1.6,0-2.5C95.6,159.6,94.5,160.4,93,160z M67.8,159
						c0,0.8,0,1.6,0,2.4c0,0.3,0.3,0.4,0.5,0.4c0.7,0,1.4,0,2.1,0c1.2,0,1.2,0,1.2-1.2c0-0.6,0-0.6-0.5-0.6
						c-0.8,0.1-1.6-0.1-2.3-0.6C68.5,159.3,68.2,159.2,67.8,159z M92.1,133.1c0,0.9,0,1.8,0,2.7c0,0.7-0.1,0.6,0.6,0.6
						c0.4,0,0.4-0.1,0.4-0.4c0-1.1,0-2.2,0-3.2c0-0.8,0-1.6,0-2.5c0-0.3-0.1-0.4-0.4-0.4c-0.1,0-0.2,0-0.3,0c-0.3,0-0.4,0.1-0.4,0.4
						C92.1,131.3,92.1,132.2,92.1,133.1z M72.7,129.9c-0.2,0-0.3,0-0.5,0c-0.6,0-0.6,0-0.6,0.6c0,1.7,0,3.4,0,5.1
						c0,1-0.2,0.9,0.9,0.8c0,0,0.1,0,0.1,0C72.7,134.3,72.7,132.1,72.7,129.9z M73.4,122.8c-0.5,0.6-1,1.1-1.5,1.7
						c-0.1,0.2-0.2,0.4-0.2,0.6c0,1,0,1.9,0,2.9c0,0.9,0,0.9,0.9,0.9c0,0,0,0,0.1-0.1C72.5,126.8,73.2,124.8,73.4,122.8z
						 M91.4,122.8c0.2,2,0.9,4,0.6,6.1c0.3,0,0.5,0,0.6,0c0.3,0,0.5-0.1,0.4-0.4c0-1.1,0-2.2,0-3.4c0-0.2,0-0.4-0.1-0.5
						C92.5,124,92,123.4,91.4,122.8z M92.1,152.9c0.2,0,0.3,0,0.4,0c1.2,0,2.5,0,3.7,0c0.8,0,0.7,0.2,0.7-0.7c0-0.3-0.1-0.4-0.4-0.4
						c-1.2,0-2.4,0-3.6,0C92,151.7,92,151.7,92.1,152.9z M72.7,152.8c0-0.3,0-0.6,0-0.8c0-0.1-0.2-0.3-0.2-0.3c-1.5,0-2.9,0-4.4,0
						c-0.1,0-0.2,0.2-0.2,0.2c0,0.3,0,0.5,0,0.8C69.4,152.8,71,152.8,72.7,152.8z"/>
					<path class="st0" d="M95.7,133.2c0-0.7,0-1.4,0-2.1c0-0.4,0.2-0.6,0.6-0.6c0.7,0,1.4,0,2.2,0c0.4,0,0.6,0.2,0.6,0.6
						c0,1.4,0,2.8,0,4.3c0,0.4-0.2,0.6-0.7,0.6c-0.7,0-1.4,0-2.1,0c-0.4,0-0.6-0.2-0.6-0.6C95.7,134.7,95.7,134,95.7,133.2z
						 M96.8,131.7c0,1.1,0,2.2,0,3.3c0.3,0,0.6,0,0.9,0c0.3,0,0.3-0.1,0.3-0.3c0-0.6,0-1.3,0-1.9C98,131.6,98,131.6,96.8,131.7z"/>
					<path class="st0" d="M69.1,133.3c0,0.7,0,1.3,0,2c0,0.5-0.2,0.7-0.7,0.7c-0.7,0-1.3,0-2,0c-0.5,0-0.7-0.2-0.7-0.6
						c0-1.4,0-2.8,0-4.2c0-0.4,0.2-0.6,0.6-0.6c0.7,0,1.4,0,2.1,0c0.5,0,0.6,0.2,0.6,0.6C69.1,131.9,69.1,132.6,69.1,133.3z
						 M68,131.6c-0.3,0-0.6,0-0.8,0c-0.3,0-0.4,0.1-0.4,0.4c0,0.6,0,1.3,0,1.9c0,1.1,0,1.1,1.1,1c0,0,0,0,0.1,0
						C68,133.8,68,132.8,68,131.6z"/>
					<path class="st0" d="M82.1,141.7c-2.3,0-4.5,0-6.8,0c-0.2,0-0.4,0-0.5-0.1c-0.1-0.1-0.2-0.3-0.2-0.5c0-0.2,0.2-0.3,0.4-0.4
						c0.1-0.1,0.3,0,0.5,0c4.5,0,8.9,0,13.4,0c0.1,0,0.2,0,0.2,0c0.4,0,0.6,0.2,0.6,0.6c0,0.3-0.2,0.5-0.6,0.5
						C86.8,141.7,84.5,141.7,82.1,141.7z"/>
					<path class="st0" d="M82.2,151.7c-2.3,0-4.6,0-6.8,0c-0.2,0-0.5-0.1-0.6-0.2c-0.2-0.2-0.1-0.7,0.3-0.8c0.2,0,0.3-0.1,0.5-0.1
						c4.5,0,8.9,0,13.4,0c0.1,0,0.2,0,0.2,0c0.4,0,0.6,0.2,0.6,0.6c0,0.3-0.2,0.5-0.6,0.5C86.8,151.7,84.5,151.7,82.2,151.7z"/>
					<path class="st0" d="M84.7,146.1c0,1.1,0,2.2,0,3.3c0,0.4-0.2,0.6-0.5,0.6c-0.3,0-0.5-0.2-0.5-0.6c0-0.1,0-0.2,0-0.2
						c0-2.1,0-4.2,0-6.2c0-0.1,0-0.2,0-0.3c0-0.3,0.2-0.5,0.5-0.5c0.3,0,0.5,0.2,0.5,0.6C84.7,143.9,84.7,145,84.7,146.1z"/>
					<path class="st0" d="M76.5,146.1c0,1.1,0,2.2,0,3.4c0,0.2-0.2,0.4-0.3,0.5c-0.1,0.1-0.4,0-0.5-0.1c-0.1-0.1-0.2-0.3-0.2-0.4
						c0-2.3,0-4.5,0-6.8c0-0.3,0.2-0.5,0.5-0.5c0.3,0,0.5,0.2,0.5,0.6C76.5,143.9,76.5,145,76.5,146.1z"/>
					<path class="st0" d="M80.6,146.1c0,1.1,0,2.2,0,3.3c0,0.4-0.3,0.8-0.7,0.6c-0.2-0.1-0.4-0.3-0.4-0.5c0-2.3,0-4.5,0-6.8
						c0-0.3,0.2-0.5,0.5-0.5c0.3,0,0.5,0.2,0.5,0.6C80.6,143.9,80.6,145,80.6,146.1C80.6,146.1,80.6,146.1,80.6,146.1z"/>
					<path class="st0" d="M88.8,146.1c0,1.1,0,2.2,0,3.2c0,0.5-0.2,0.7-0.5,0.7c-0.3,0-0.5-0.2-0.5-0.7c0-2.2,0-4.3,0-6.5
						c0-0.4,0.2-0.7,0.5-0.7c0.3,0,0.5,0.3,0.5,0.7C88.8,144,88.8,145,88.8,146.1z"/>
					<path class="st0" d="M82.2,138.6c0.7,0,1.3,0,2,0c0.4,0,0.6,0.2,0.6,0.5c0,0.3-0.2,0.6-0.6,0.6c-1.4,0-2.7,0-4.1,0
						c-0.4,0-0.6-0.2-0.6-0.5c0-0.3,0.2-0.5,0.6-0.5C80.8,138.6,81.5,138.6,82.2,138.6z"/>
					<path class="st0" d="M82.2,155.4c-0.7,0-1.3,0-2,0c-0.4,0-0.6-0.2-0.6-0.5c0-0.3,0.2-0.5,0.6-0.5c1.4,0,2.7,0,4.1,0
						c0.4,0,0.6,0.2,0.6,0.5c0,0.3-0.2,0.5-0.6,0.5C83.5,155.5,82.9,155.4,82.2,155.4z"/>
					<path class="st0" d="M82.2,123.2c-0.7,0-1.3,0-2,0c-0.3,0-0.6-0.1-0.6-0.5c0-0.3,0.2-0.6,0.6-0.6c1.4,0,2.8,0,4.1,0
						c0.4,0,0.6,0.2,0.6,0.6c0,0.3-0.2,0.5-0.6,0.5C83.5,123.2,82.8,123.2,82.2,123.2z"/>
					<path class="st0" d="M95.6,148.5c0.6,0,1.2,0,1.8,0c0.4,0,0.6,0.2,0.6,0.5c0,0.3-0.2,0.5-0.6,0.5c-1.2,0-2.5,0-3.7,0
						c-0.4,0-0.6-0.2-0.6-0.5c0-0.4,0.2-0.5,0.6-0.5C94.4,148.5,95,148.5,95.6,148.5z"/>
					<path class="st0" d="M69.2,148.5c0.6,0,1.2,0,1.9,0c0.4,0,0.6,0.2,0.6,0.5c0,0.3-0.2,0.5-0.6,0.5c-1.2,0-2.5,0-3.7,0
						c-0.4,0-0.6-0.2-0.6-0.5c0-0.3,0.2-0.5,0.6-0.5C68,148.5,68.6,148.5,69.2,148.5z"/>
				</g>
			</g>
		</g>
	</g>
</g>
</svg>
