<?xml version="1.0" encoding="utf-8"?>
<!-- Generator: Adobe Illustrator 23.1.1, SVG Export Plug-In . SVG Version: 6.00 Build 0)  -->
<svg version="1.1" id="Layer_1" xmlns="http://www.w3.org/2000/svg" xmlns:xlink="http://www.w3.org/1999/xlink" x="0px" y="0px"
	 viewBox="0 0 3898.4 206.2" style="enable-background:new 0 0 3898.4 206.2;" xml:space="preserve">
<style type="text/css">
	.st0{fill:none;stroke:#00AEEF;stroke-width:1.5;stroke-linecap:round;stroke-miterlimit:10;}
	.st1{fill:#07456B;}
	.st2{fill:#07456B;stroke:#00AEEF;stroke-width:1.5;stroke-linecap:round;stroke-miterlimit:10;}
</style>
<g>
	<path class="st0" d="M1493.9,159.3V148h34.2v11.3"/>
	<path class="st0" d="M1511.1,148v11.3"/>
	<path class="st1" d="M1511.6,179.3v-34.8h17.6l8,4.6l6,8.5v21.7"/>
	<path class="st0" d="M1511.6,179.3v-34.8h17.6l8,4.6l6,8.5v21.7"/>
	<path class="st1" d="M1507,180.8h-45.6v10"/>
	<path class="st0" d="M1507,180.8h-45.6v10"/>
	<path class="st0" d="M1566.8,182.4v3.8"/>
	<path class="st2" d="M1553.6,194.4c3.2,0,5.8-2.6,5.8-5.9s-2.6-5.9-5.8-5.9s-5.8,2.6-5.8,5.9S1550.4,194.4,1553.6,194.4z"/>
	<path class="st2" d="M1553.6,190.8c1.3,0,2.3-1,2.3-2.3s-1-2.3-2.3-2.3s-2.3,1-2.3,2.3C1551.3,189.8,1552.3,190.8,1553.6,190.8z"/>
	<path class="st2" d="M1487.3,194.4c3.2,0,5.8-2.6,5.8-5.9s-2.6-5.9-5.8-5.9s-5.8,2.6-5.8,5.9S1484.1,194.4,1487.3,194.4z"/>
	<path class="st2" d="M1487.3,190.8c1.3,0,2.3-1,2.3-2.3s-1-2.3-2.3-2.3s-2.3,1-2.3,2.3S1486,190.8,1487.3,190.8z"/>
	<path class="st2" d="M1471.5,194.4c3.2,0,5.8-2.6,5.8-5.9s-2.6-5.9-5.8-5.9s-5.8,2.6-5.8,5.9S1468.2,194.4,1471.5,194.4z"/>
	<path class="st2" d="M1471.5,190.8c1.3,0,2.3-1,2.3-2.3s-1-2.3-2.3-2.3s-2.3,1-2.3,2.3S1470.2,190.8,1471.5,190.8z"/>
	<path class="st2" d="M1355.5,194.4c3.2,0,5.8-2.6,5.8-5.9s-2.6-5.9-5.8-5.9s-5.8,2.6-5.8,5.9S1352.3,194.4,1355.5,194.4z"/>
	<path class="st2" d="M1355.5,190.8c1.3,0,2.3-1,2.3-2.3s-1-2.3-2.3-2.3s-2.3,1-2.3,2.3S1354.3,190.8,1355.5,190.8z"/>
	<path class="st2" d="M1379.8,194.4c3.2,0,5.8-2.6,5.8-5.9s-2.6-5.9-5.8-5.9s-5.8,2.6-5.8,5.9S1376.6,194.4,1379.8,194.4z"/>
	<path class="st2" d="M1379.8,190.8c1.3,0,2.3-1,2.3-2.3s-1-2.3-2.3-2.3s-2.3,1-2.3,2.3C1377.6,189.8,1378.6,190.8,1379.8,190.8z"/>
	<path class="st2" d="M1543.3,179.3H1507v8.9h36.3V179.3z"/>
	<path class="st0" d="M1507,183.7h36.3"/>
	<path class="st0" d="M1529.2,160.2h14.1"/>
	<path class="st1" d="M1543.3,168.3l21.3,4.4v13.6h-1.6l-1.8-1.8"/>
	<path class="st0" d="M1543.3,168.3l21.3,4.4v13.6h-1.6l-1.8-1.8"/>
	<path class="st1" d="M1564.6,179.3h-15l-3.7,3.7"/>
	<path class="st0" d="M1564.6,179.3h-15l-3.7,3.7"/>
	<path class="st1" d="M1508.8,179.3v-39.2l-2.2-2.1"/>
	<path class="st0" d="M1508.8,179.3v-39.2l-2.2-2.1"/>
	<path class="st2" d="M1499.7,140.1h-156.9v37.7h156.9V140.1z"/>
	<path class="st0" d="M1346.2,143.4h150.1"/>
	<path class="st0" d="M1463.9,185.8h2.2"/>
	<path class="st0" d="M1479.5,185.8h2.6"/>
	<path class="st1" d="M1507,185.8h-10.9l-2.7-2.7"/>
	<path class="st0" d="M1507,185.8h-10.9l-2.7-2.7"/>
	<path class="st1" d="M1389.9,177.8v5.7h-2.3l-2.3-2.3"/>
	<path class="st0" d="M1389.9,177.8v5.7h-2.3l-2.3-2.3"/>
	<path class="st1" d="M1344.1,177.8v5.7h3.6l2.3-2.3"/>
	<path class="st0" d="M1344.1,177.8v5.7h3.6l2.3-2.3"/>
	<path class="st0" d="M1376.8,183.6h-14.2"/>
	<path class="st0" d="M1344.1,183.6v5.2"/>
	<path class="st2" d="M1540.1,163.3h-7.9v3.8h7.9V163.3z"/>
	<path class="st0" d="M1529.2,144.5v34.8"/>
	<path class="st0" d="M1461.5,174.1v-27.3"/>
	<path class="st0" d="M1467,174.1v-27.3"/>
	<path class="st0" d="M1472.5,174.1v-27.3"/>
	<path class="st0" d="M1478,174.1v-27.3"/>
	<path class="st0" d="M1483.5,174.1v-27.3"/>
	<path class="st0" d="M1488.9,174.1v-27.3"/>
	<path class="st0" d="M1494.4,174.1v-27.3"/>
	<path class="st0" d="M1422.5,174.1v-27.3"/>
	<path class="st0" d="M1428,174.1v-27.3"/>
	<path class="st0" d="M1433.4,174.1v-27.3"/>
	<path class="st0" d="M1438.9,174.1v-27.3"/>
	<path class="st0" d="M1444.4,174.1v-27.3"/>
	<path class="st0" d="M1449.9,174.1v-27.3"/>
	<path class="st0" d="M1455.4,174.1v-27.3"/>
	<path class="st0" d="M1416,171.4h-31.4"/>
	<path class="st0" d="M1416,165.9h-31.4"/>
	<path class="st0" d="M1416,160.4h-31.4"/>
	<path class="st0" d="M1416,155h-31.4"/>
	<path class="st0" d="M1416,149.5h-31.4"/>
	<path class="st0" d="M1378.5,171.4h-31.4"/>
	<path class="st0" d="M1378.5,165.9h-31.4"/>
	<path class="st0" d="M1378.5,160.4h-31.4"/>
	<path class="st0" d="M1378.5,155h-31.4"/>
	<path class="st0" d="M1378.5,149.5h-31.4"/>
</g>
<g>
	<path class="st0" d="M3167.9,159.3V148h34.2v11.3"/>
	<path class="st0" d="M3185.1,148v11.3"/>
	<path class="st1" d="M3185.6,179.3v-34.8h17.6l8,4.6l6,8.5v21.7"/>
	<path class="st0" d="M3185.6,179.3v-34.8h17.6l8,4.6l6,8.5v21.7"/>
	<path class="st1" d="M3181,180.8h-45.6v10"/>
	<path class="st0" d="M3181,180.8h-45.6v10"/>
	<path class="st0" d="M3240.9,182.4v3.8"/>
	<path class="st2" d="M3227.6,194.4c3.2,0,5.9-2.6,5.9-5.9s-2.6-5.9-5.9-5.9s-5.9,2.6-5.9,5.9S3224.4,194.4,3227.6,194.4z"/>
	<path class="st2" d="M3227.6,190.8c1.3,0,2.3-1,2.3-2.3s-1-2.3-2.3-2.3s-2.3,1-2.3,2.3S3226.3,190.8,3227.6,190.8z"/>
	<path class="st2" d="M3161.3,194.4c3.2,0,5.9-2.6,5.9-5.9s-2.6-5.9-5.9-5.9s-5.9,2.6-5.9,5.9S3158.1,194.4,3161.3,194.4z"/>
	<path class="st2" d="M3161.3,190.8c1.3,0,2.3-1,2.3-2.3s-1-2.3-2.3-2.3s-2.3,1-2.3,2.3S3160,190.8,3161.3,190.8z"/>
	<path class="st2" d="M3145.5,194.4c3.2,0,5.8-2.6,5.8-5.9s-2.6-5.9-5.8-5.9s-5.9,2.6-5.9,5.9S3142.2,194.4,3145.5,194.4z"/>
	<path class="st2" d="M3145.5,190.8c1.3,0,2.3-1,2.3-2.3s-1-2.3-2.3-2.3s-2.3,1-2.3,2.3S3144.2,190.8,3145.5,190.8z"/>
	<path class="st2" d="M3029.5,194.4c3.2,0,5.9-2.6,5.9-5.9s-2.6-5.9-5.9-5.9s-5.8,2.6-5.8,5.9S3026.3,194.4,3029.5,194.4z"/>
	<path class="st2" d="M3029.5,190.8c1.3,0,2.3-1,2.3-2.3s-1-2.3-2.3-2.3s-2.3,1-2.3,2.3S3028.3,190.8,3029.5,190.8z"/>
	<path class="st2" d="M3053.8,194.4c3.2,0,5.9-2.6,5.9-5.9s-2.6-5.9-5.9-5.9s-5.9,2.6-5.9,5.9S3050.6,194.4,3053.8,194.4z"/>
	<path class="st2" d="M3053.8,190.8c1.3,0,2.3-1,2.3-2.3s-1-2.3-2.3-2.3s-2.3,1-2.3,2.3S3052.6,190.8,3053.8,190.8z"/>
	<path class="st2" d="M3217.3,179.3H3181v8.9h36.3V179.3z"/>
	<path class="st0" d="M3181,183.7h36.3"/>
	<path class="st0" d="M3203.2,160.2h14.1"/>
	<path class="st1" d="M3217.3,168.3l21.4,4.4v13.6h-1.6l-1.8-1.8"/>
	<path class="st0" d="M3217.3,168.3l21.4,4.4v13.6h-1.6l-1.8-1.8"/>
	<path class="st1" d="M3238.6,179.3h-15l-3.7,3.7"/>
	<path class="st0" d="M3238.6,179.3h-15l-3.7,3.7"/>
	<path class="st1" d="M3182.8,179.3v-39.2l-2.1-2.1"/>
	<path class="st0" d="M3182.8,179.3v-39.2l-2.1-2.1"/>
	<path class="st2" d="M3173.7,140.1h-156.9v37.7h156.9V140.1z"/>
	<path class="st0" d="M3020.2,143.4h150.1"/>
	<path class="st0" d="M3137.9,185.8h2.2"/>
	<path class="st0" d="M3153.5,185.8h2.6"/>
	<path class="st1" d="M3181,185.8h-10.9l-2.7-2.7"/>
	<path class="st0" d="M3181,185.8h-10.9l-2.7-2.7"/>
	<path class="st1" d="M3063.9,177.8v5.7h-2.3l-2.3-2.3"/>
	<path class="st0" d="M3063.9,177.8v5.7h-2.3l-2.3-2.3"/>
	<path class="st1" d="M3018.1,177.8v5.7h3.6l2.3-2.3"/>
	<path class="st0" d="M3018.1,177.8v5.7h3.6l2.3-2.3"/>
	<path class="st0" d="M3050.8,183.6h-14.2"/>
	<path class="st0" d="M3018.1,183.6v5.2"/>
	<path class="st2" d="M3214.1,163.3h-7.9v3.8h7.9V163.3z"/>
	<path class="st0" d="M3203.2,144.5v34.8"/>
	<path class="st0" d="M3135.5,174.1v-27.3"/>
	<path class="st0" d="M3141,174.1v-27.3"/>
	<path class="st0" d="M3146.5,174.1v-27.3"/>
	<path class="st0" d="M3152,174.1v-27.3"/>
	<path class="st0" d="M3157.5,174.1v-27.3"/>
	<path class="st0" d="M3162.9,174.1v-27.3"/>
	<path class="st0" d="M3168.4,174.1v-27.3"/>
	<path class="st0" d="M3096.5,174.1v-27.3"/>
	<path class="st0" d="M3102,174.1v-27.3"/>
	<path class="st0" d="M3107.4,174.1v-27.3"/>
	<path class="st0" d="M3112.9,174.1v-27.3"/>
	<path class="st0" d="M3118.4,174.1v-27.3"/>
	<path class="st0" d="M3123.9,174.1v-27.3"/>
	<path class="st0" d="M3129.4,174.1v-27.3"/>
	<path class="st0" d="M3090,171.4h-31.4"/>
	<path class="st0" d="M3090,165.9h-31.4"/>
	<path class="st0" d="M3090,160.4h-31.4"/>
	<path class="st0" d="M3090,155h-31.4"/>
	<path class="st0" d="M3090,149.5h-31.4"/>
	<path class="st0" d="M3052.5,171.4h-31.4"/>
	<path class="st0" d="M3052.5,165.9h-31.4"/>
	<path class="st0" d="M3052.5,160.4h-31.4"/>
	<path class="st0" d="M3052.5,155h-31.4"/>
	<path class="st0" d="M3052.5,149.5h-31.4"/>
</g>
<g>
	<path class="st0" d="M406.9,161.3V150h34.2v11.3"/>
	<path class="st0" d="M424,150v11.3"/>
	<path class="st1" d="M424.6,181.3v-34.8h17.6l8,4.6l6,8.5v21.7"/>
	<path class="st0" d="M424.6,181.3v-34.8h17.6l8,4.6l6,8.5v21.7"/>
	<path class="st1" d="M420,182.8h-45.6v10"/>
	<path class="st0" d="M420,182.8h-45.6v10"/>
	<path class="st0" d="M479.9,184.4v3.8"/>
	<path class="st2" d="M466.6,196.4c3.2,0,5.9-2.6,5.9-5.9s-2.6-5.9-5.9-5.9s-5.9,2.6-5.9,5.9S463.4,196.4,466.6,196.4z"/>
	<path class="st2" d="M466.6,192.8c1.3,0,2.3-1,2.3-2.3s-1-2.3-2.3-2.3s-2.3,1-2.3,2.3S465.3,192.8,466.6,192.8z"/>
	<path class="st2" d="M400.3,196.4c3.2,0,5.9-2.6,5.9-5.9s-2.6-5.9-5.9-5.9s-5.9,2.6-5.9,5.9S397.1,196.4,400.3,196.4z"/>
	<path class="st2" d="M400.3,192.8c1.3,0,2.3-1,2.3-2.3s-1-2.3-2.3-2.3s-2.3,1-2.3,2.3S399,192.8,400.3,192.8z"/>
	<path class="st2" d="M384.5,196.4c3.2,0,5.8-2.6,5.8-5.9s-2.6-5.9-5.8-5.9s-5.9,2.6-5.9,5.9S381.2,196.4,384.5,196.4z"/>
	<path class="st2" d="M384.5,192.8c1.3,0,2.3-1,2.3-2.3s-1-2.3-2.3-2.3s-2.3,1-2.3,2.3S383.2,192.8,384.5,192.8z"/>
	<path class="st2" d="M268.5,196.4c3.2,0,5.9-2.6,5.9-5.9s-2.6-5.9-5.9-5.9s-5.8,2.6-5.8,5.9S265.3,196.4,268.5,196.4z"/>
	<path class="st2" d="M268.5,192.8c1.3,0,2.3-1,2.3-2.3s-1-2.3-2.3-2.3s-2.3,1-2.3,2.3S267.3,192.8,268.5,192.8z"/>
	<path class="st2" d="M292.8,196.4c3.2,0,5.9-2.6,5.9-5.9s-2.6-5.9-5.9-5.9s-5.9,2.6-5.9,5.9S289.6,196.4,292.8,196.4z"/>
	<path class="st2" d="M292.8,192.8c1.3,0,2.3-1,2.3-2.3s-1-2.3-2.3-2.3s-2.3,1-2.3,2.3S291.6,192.8,292.8,192.8z"/>
	<path class="st2" d="M456.3,181.3H420v8.9h36.3V181.3z"/>
	<path class="st0" d="M420,185.7h36.3"/>
	<path class="st0" d="M442.2,162.2h14"/>
	<path class="st1" d="M456.3,170.3l21.4,4.4v13.6H476l-1.8-1.8"/>
	<path class="st0" d="M456.3,170.3l21.4,4.4v13.6H476l-1.8-1.8"/>
	<path class="st1" d="M477.6,181.3h-15L459,185"/>
	<path class="st0" d="M477.6,181.3h-15L459,185"/>
	<path class="st1" d="M421.8,181.3v-39.2l-2.1-2.1"/>
	<path class="st0" d="M421.8,181.3v-39.2l-2.1-2.1"/>
	<path class="st2" d="M412.7,142.1H255.8v37.7h156.9V142.1z"/>
	<path class="st0" d="M259.2,145.4h150.1"/>
	<path class="st0" d="M376.9,187.8h2.2"/>
	<path class="st0" d="M392.5,187.8h2.6"/>
	<path class="st1" d="M420,187.8h-10.9l-2.7-2.7"/>
	<path class="st0" d="M420,187.8h-10.9l-2.7-2.7"/>
	<path class="st1" d="M302.9,179.8v5.7h-2.3l-2.3-2.3"/>
	<path class="st0" d="M302.9,179.8v5.7h-2.3l-2.3-2.3"/>
	<path class="st1" d="M257.1,179.8v5.7h3.6l2.3-2.3"/>
	<path class="st0" d="M257.1,179.8v5.7h3.6l2.3-2.3"/>
	<path class="st0" d="M289.8,185.6h-14.2"/>
	<path class="st0" d="M257.1,185.6v5.2"/>
	<path class="st2" d="M453.1,165.3h-7.9v3.8h7.9V165.3z"/>
	<path class="st0" d="M442.2,146.5v34.8"/>
	<path class="st0" d="M374.5,176.1v-27.3"/>
	<path class="st0" d="M380,176.1v-27.3"/>
	<path class="st0" d="M385.5,176.1v-27.3"/>
	<path class="st0" d="M391,176.1v-27.3"/>
	<path class="st0" d="M396.5,176.1v-27.3"/>
	<path class="st0" d="M401.9,176.1v-27.3"/>
	<path class="st0" d="M407.4,176.1v-27.3"/>
	<path class="st0" d="M335.5,176.1v-27.3"/>
	<path class="st0" d="M341,176.1v-27.3"/>
	<path class="st0" d="M346.4,176.1v-27.3"/>
	<path class="st0" d="M351.9,176.1v-27.3"/>
	<path class="st0" d="M357.4,176.1v-27.3"/>
	<path class="st0" d="M362.9,176.1v-27.3"/>
	<path class="st0" d="M368.4,176.1v-27.3"/>
	<path class="st0" d="M329,173.4h-31.4"/>
	<path class="st0" d="M329,167.9h-31.4"/>
	<path class="st0" d="M329,162.4h-31.4"/>
	<path class="st0" d="M329,157h-31.4"/>
	<path class="st0" d="M329,151.5h-31.4"/>
	<path class="st0" d="M291.5,173.4h-31.4"/>
	<path class="st0" d="M291.5,167.9h-31.4"/>
	<path class="st0" d="M291.5,162.4h-31.4"/>
	<path class="st0" d="M291.5,157h-31.4"/>
	<path class="st0" d="M291.5,151.5h-31.4"/>
</g>
<g>
	<path class="st0" d="M2466.1,159.6v-11.3h34.2v11.3"/>
	<path class="st0" d="M2483.2,148.3v11.3"/>
	<path class="st1" d="M2483.8,179.6v-34.8h17.6l8,4.6l6,8.5v21.7"/>
	<path class="st0" d="M2483.8,179.6v-34.8h17.6l8,4.6l6,8.5v21.7"/>
	<path class="st1" d="M2479.1,181.2h-45.6v10"/>
	<path class="st0" d="M2479.1,181.2h-45.6v10"/>
	<path class="st0" d="M2539,182.8v3.8"/>
	<path class="st2" d="M2525.7,194.7c3.2,0,5.9-2.6,5.9-5.9s-2.6-5.9-5.9-5.9s-5.9,2.6-5.9,5.9S2522.5,194.7,2525.7,194.7z"/>
	<path class="st2" d="M2525.7,191.2c1.3,0,2.3-1,2.3-2.3s-1-2.3-2.3-2.3s-2.3,1-2.3,2.3S2524.5,191.2,2525.7,191.2z"/>
	<path class="st2" d="M2459.4,194.7c3.2,0,5.9-2.6,5.9-5.9s-2.6-5.9-5.9-5.9s-5.9,2.6-5.9,5.9S2456.2,194.7,2459.4,194.7z"/>
	<path class="st2" d="M2459.4,191.2c1.3,0,2.3-1,2.3-2.3s-1-2.3-2.3-2.3s-2.3,1-2.3,2.3S2458.2,191.2,2459.4,191.2z"/>
	<path class="st2" d="M2443.6,194.7c3.2,0,5.8-2.6,5.8-5.9s-2.6-5.9-5.8-5.9s-5.9,2.6-5.9,5.9S2440.4,194.7,2443.6,194.7z"/>
	<path class="st2" d="M2443.6,191.2c1.3,0,2.3-1,2.3-2.3s-1-2.3-2.3-2.3s-2.3,1-2.3,2.3S2442.3,191.2,2443.6,191.2z"/>
	<path class="st2" d="M2327.7,194.7c3.2,0,5.9-2.6,5.9-5.9s-2.6-5.9-5.9-5.9s-5.8,2.6-5.8,5.9S2324.5,194.7,2327.7,194.7z"/>
	<path class="st2" d="M2327.7,191.2c1.3,0,2.3-1,2.3-2.3s-1-2.3-2.3-2.3s-2.3,1-2.3,2.3S2326.4,191.2,2327.7,191.2z"/>
	<path class="st2" d="M2352,194.7c3.2,0,5.9-2.6,5.9-5.9s-2.6-5.9-5.9-5.9s-5.9,2.6-5.9,5.9S2348.8,194.7,2352,194.7z"/>
	<path class="st2" d="M2352,191.2c1.3,0,2.3-1,2.3-2.3s-1-2.3-2.3-2.3s-2.3,1-2.3,2.3S2350.7,191.2,2352,191.2z"/>
	<path class="st2" d="M2515.4,179.6h-36.3v8.9h36.3V179.6z"/>
	<path class="st0" d="M2479.1,184.1h36.3"/>
	<path class="st0" d="M2501.4,160.5h14.1"/>
	<path class="st1" d="M2515.4,168.6l21.4,4.4v13.6h-1.6l-1.8-1.8"/>
	<path class="st0" d="M2515.4,168.6l21.4,4.4v13.6h-1.6l-1.8-1.8"/>
	<path class="st1" d="M2536.8,179.6h-15l-3.7,3.7"/>
	<path class="st0" d="M2536.8,179.6h-15l-3.7,3.7"/>
	<path class="st1" d="M2480.9,179.6v-39.2l-2.1-2.1"/>
	<path class="st0" d="M2480.9,179.6v-39.2l-2.1-2.1"/>
	<path class="st2" d="M2471.8,140.4h-156.9v37.7h156.9V140.4z"/>
	<path class="st0" d="M2318.3,143.7h150.1"/>
	<path class="st0" d="M2436,186.2h2.2"/>
	<path class="st0" d="M2451.7,186.2h2.6"/>
	<path class="st1" d="M2479.1,186.2h-10.9l-2.7-2.7"/>
	<path class="st0" d="M2479.1,186.2h-10.9l-2.7-2.7"/>
	<path class="st1" d="M2362,178.2v5.7h-2.3l-2.3-2.3"/>
	<path class="st0" d="M2362,178.2v5.7h-2.3l-2.3-2.3"/>
	<path class="st1" d="M2316.3,178.2v5.7h3.6l2.3-2.3"/>
	<path class="st0" d="M2316.3,178.2v5.7h3.6l2.3-2.3"/>
	<path class="st0" d="M2348.9,183.9h-14.2"/>
	<path class="st0" d="M2316.3,183.9v5.2"/>
	<path class="st2" d="M2512.3,163.6h-7.9v3.8h7.9V163.6z"/>
	<path class="st0" d="M2501.4,144.8v34.8"/>
	<path class="st0" d="M2433.7,174.4v-27.3"/>
	<path class="st0" d="M2439.2,174.4v-27.3"/>
	<path class="st0" d="M2444.6,174.4v-27.3"/>
	<path class="st0" d="M2450.1,174.4v-27.3"/>
	<path class="st0" d="M2455.6,174.4v-27.3"/>
	<path class="st0" d="M2461.1,174.4v-27.3"/>
	<path class="st0" d="M2466.6,174.4v-27.3"/>
	<path class="st0" d="M2394.6,174.4v-27.3"/>
	<path class="st0" d="M2400.1,174.4v-27.3"/>
	<path class="st0" d="M2405.6,174.4v-27.3"/>
	<path class="st0" d="M2411.1,174.4v-27.3"/>
	<path class="st0" d="M2416.5,174.4v-27.3"/>
	<path class="st0" d="M2422,174.4v-27.3"/>
	<path class="st0" d="M2427.5,174.4v-27.3"/>
	<path class="st0" d="M2388.2,171.7h-31.4"/>
	<path class="st0" d="M2388.2,166.3h-31.4"/>
	<path class="st0" d="M2388.2,160.8h-31.4"/>
	<path class="st0" d="M2388.2,155.3h-31.4"/>
	<path class="st0" d="M2388.2,149.8h-31.4"/>
	<path class="st0" d="M2350.6,171.7h-31.4"/>
	<path class="st0" d="M2350.6,166.3h-31.4"/>
	<path class="st0" d="M2350.6,160.8h-31.4"/>
	<path class="st0" d="M2350.6,155.3h-31.4"/>
	<path class="st0" d="M2350.6,149.8h-31.4"/>
</g>
</svg>
